<?xml version="1.0" encoding="utf-8"?>
<!-- Generator: Adobe Illustrator 27.5.0, SVG Export Plug-In . SVG Version: 6.00 Build 0)  -->
<svg version="1.1" xmlns="http://www.w3.org/2000/svg" xmlns:xlink="http://www.w3.org/1999/xlink" x="0px" y="0px"
	 viewBox="0 0 750 500" style="enable-background:new 0 0 750 500;" xml:space="preserve">
<g id="BACKGROUND">
	<rect y="0" style="fill:#FFFFFF;" width="750" height="500"/>
</g>
<g id="OBJECTS">
	<g>
		<path style="fill:#FCEBF2;" d="M653.586,425.397H85.465c-11.216-29.561-33.986-100.492-14.748-146.652
			c24.827-59.555,77.515,4.283,94.236-42.835s-2.536-128.175,86.627-156.036c89.173-27.871,114.498,42.553,148.953,56.737
			c34.446,14.184,43.06-26.847,106.382-25.325c63.331,1.512,64.599,48.884,54.717,92.958c-9.882,44.075,3.044,62.185,44.074,51.993
			C646.748,246.046,687.779,295.457,653.586,425.397z"/>
		<g>
			<g>
				<path style="fill:#E2BFCD;" d="M195.461,426.589c0,0-6.881-141.818-68.809-190.178s-42.05,42.621-12.233,80.848
					c29.817,38.227,74.161,109.33,74.161,109.33H195.461z"/>
				<g>
					<path style="fill:#FFFFFF;" d="M120.624,258.783c0,0,36.563,31.088,74.837,167.806h-4.717
						C190.744,426.589,162.918,326.751,120.624,258.783z"/>
					<path style="fill:#FFFFFF;" d="M141.188,263.128c-0.464,1.845-0.893,3.694-1.269,5.55c-0.402,1.853-0.731,3.715-1.092,5.573
						c-0.667,3.723-1.262,7.454-1.805,11.192l1.703-1.136c-2.776-0.783-5.539-1.617-8.333-2.335l-4.183-1.107l-4.203-1.036
						c-2.808-0.669-5.622-1.316-8.455-1.892c-2.831-0.584-5.674-1.128-8.552-1.543c2.683,1.122,5.401,2.114,8.131,3.066
						c2.727,0.961,5.474,1.849,8.227,2.717l4.139,1.268l4.158,1.197c2.767,0.818,5.565,1.521,8.35,2.274l1.539,0.416l0.164-1.552
						c0.398-3.756,0.744-7.519,1.019-11.291c0.11-1.889,0.251-3.775,0.319-5.669C141.139,266.928,141.182,265.03,141.188,263.128z"
						/>
					<path style="fill:#FFFFFF;" d="M158.042,295.2c-0.464,1.845-0.893,3.694-1.269,5.55c-0.402,1.853-0.732,3.715-1.093,5.573
						c-0.667,3.723-1.262,7.454-1.805,11.192l1.703-1.136c-2.776-0.783-5.539-1.617-8.333-2.335l-4.183-1.107l-4.203-1.036
						c-2.808-0.669-5.622-1.316-8.455-1.892c-2.831-0.584-5.674-1.128-8.552-1.543c2.683,1.122,5.401,2.114,8.131,3.066
						c2.727,0.961,5.474,1.849,8.227,2.717l4.139,1.268l4.158,1.197c2.767,0.818,5.565,1.521,8.35,2.274l1.539,0.416l0.164-1.552
						c0.398-3.756,0.744-7.519,1.018-11.291c0.11-1.889,0.251-3.775,0.32-5.669C157.994,299,158.036,297.102,158.042,295.2z"/>
					<path style="fill:#FFFFFF;" d="M173.9,329.343c-0.731,1.757-1.426,3.523-2.071,5.303c-0.67,1.773-1.27,3.566-1.9,5.351
						c-1.207,3.584-2.345,7.187-3.432,10.805l1.852-0.873c-2.631-1.183-5.241-2.414-7.899-3.536l-3.975-1.711l-4.005-1.643
						c-2.679-1.074-5.367-2.129-8.085-3.115c-2.715-0.994-5.446-1.95-8.232-2.784c2.489,1.504,5.032,2.885,7.591,4.229
						c2.556,1.351,5.143,2.635,7.738,3.898l3.907,1.863l3.937,1.796c2.616,1.216,5.281,2.323,7.924,3.477l1.461,0.638l0.391-1.511
						c0.946-3.657,1.842-7.328,2.668-11.019c0.386-1.853,0.803-3.697,1.15-5.561C173.293,333.095,173.614,331.224,173.9,329.343z"/>
				</g>
			</g>
			<g>
				<path style="fill:#E2BFCD;" d="M54.627,369.598c23.108,29.195,88.938,47.447,108.364,52.313
					c3.466,0.864,5.458,1.306,5.458,1.306h3.635c0,0-24.282-45.305-53.524-68.817c-29.242-23.503-57.338-36.118-70.527-34.69
					C34.845,321.146,27.386,335.19,54.627,369.598z"/>
				<g>
					<path style="fill:#FFFFFF;" d="M66.717,338.28c35.461,23.719,70.902,57.376,96.274,83.631c3.466,0.864,5.458,1.306,5.458,1.306
						h2.912C101.83,348.378,66.717,338.28,66.717,338.28z"/>
					<path style="fill:#FFFFFF;" d="M103.977,347.79c1.283,3.838,2.689,7.621,4.166,11.371c0.717,1.885,1.498,3.741,2.249,5.611
						c0.744,1.873,1.556,3.715,2.333,5.573l0.975-1.805c-3.71,0.484-7.402,1.078-11.1,1.639c-3.689,0.614-7.382,1.204-11.059,1.897
						c-1.842,0.326-3.68,0.673-5.514,1.045c-1.837,0.358-3.672,0.723-5.502,1.123c-3.665,0.771-7.319,1.608-10.953,2.572
						c3.754-0.203,7.489-0.533,11.212-0.929c1.864-0.184,3.723-0.401,5.581-0.627c1.86-0.212,3.715-0.448,5.568-0.706
						c3.711-0.474,7.407-1.05,11.106-1.603c3.691-0.606,7.386-1.179,11.065-1.862l1.697-0.315l-0.721-1.49
						c-0.877-1.813-1.719-3.641-2.63-5.439c-0.903-1.801-1.776-3.616-2.713-5.402C107.904,354.853,106.003,351.294,103.977,347.79z"
						/>
					<path style="fill:#FFFFFF;" d="M125.766,366.235c0.402,1.794,0.836,3.576,1.321,5.34c0.46,1.773,0.988,3.522,1.487,5.28
						l1.616,5.234l1.713,5.199l1.01-1.784c-2.761,0.532-5.532,1.007-8.28,1.604l-4.128,0.863l-4.114,0.937
						c-2.738,0.646-5.472,1.315-8.191,2.057c-2.721,0.733-5.433,1.508-8.12,2.414c2.829-0.185,5.633-0.502,8.428-0.86
						c2.797-0.35,5.579-0.772,8.357-1.217l4.16-0.7l4.146-0.774c2.768-0.495,5.512-1.111,8.267-1.67l1.582-0.321l-0.572-1.463
						l-1.992-5.099l-2.089-5.064c-0.735-1.674-1.443-3.358-2.218-5.018C127.399,369.524,126.599,367.874,125.766,366.235z"/>
				</g>
			</g>
		</g>
		<g>
			<g>
				<path style="fill:#E2BFCD;" d="M626.718,202.114c0,0-51.092,24.693-70.265,86.328c-15.741,50.602,1.259,70.429,7.851,75.907
					c-2.409,17.979-4.499,38.454-6.046,61.751l4.617-0.968c0,0,1.658-25.384,6.665-60.139
					c26.694-10.744,40.607-40.032,40.411-74.412C609.747,254.995,626.718,202.114,626.718,202.114z"/>
				<path style="fill:#FFFFFF;" d="M583.623,308.519l3.824-2.025l3.79-2.091c2.516-1.414,5.023-2.848,7.495-4.348
					c2.476-1.492,4.933-3.021,7.329-4.67c-2.732,0.997-5.402,2.113-8.053,3.265c-2.655,1.145-5.276,2.356-7.887,3.587l-3.901,1.877
					l-3.867,1.942c-0.895,0.442-1.778,0.906-2.664,1.367c2.524-9.693,5.455-20.285,8.821-31.534
					c0.973-0.565,1.944-1.136,2.903-1.733l3.055-1.866l3.025-1.932c2.007-1.309,4.005-2.638,5.973-4.034
					c1.971-1.388,3.925-2.814,5.825-4.36c-2.2,0.886-4.344,1.893-6.472,2.936c-2.131,1.036-4.232,2.14-6.323,3.263l-3.123,1.716
					l-3.093,1.782c-0.202,0.114-0.399,0.238-0.601,0.354c4.244-13.953,9.147-28.85,14.77-44.257c0,0-9.732,14.813-19.638,45.728
					c-0.915-2.673-1.846-5.34-2.816-7.992c-0.668-1.762-1.313-3.532-2.013-5.282c-0.68-1.757-1.4-3.499-2.148-5.231
					c0.396,1.864,0.82,3.718,1.284,5.557c0.444,1.846,0.944,3.671,1.419,5.506c0.993,3.653,2.041,7.285,3.13,10.902l0.029,0.095
					c-2.795,9.066-5.576,19.413-8.127,31.082c-0.989-2.641-1.998-5.275-3.056-7.892c-0.734-1.744-1.439-3.499-2.213-5.23
					c-0.749-1.739-1.547-3.462-2.38-5.172c0.397,1.861,0.828,3.709,1.308,5.541c0.456,1.84,0.981,3.657,1.476,5.483
					c1.043,3.635,2.153,7.247,3.314,10.842l0.479,1.485l0.001,0c-1.887,9.159-3.623,19.083-5.115,29.783
					c-1.277-2.296-2.57-4.584-3.903-6.851c-0.983-1.617-1.938-3.249-2.958-4.847c-0.997-1.61-2.04-3.196-3.115-4.765
					c0.666,1.782,1.364,3.547,2.109,5.288c0.721,1.753,1.508,3.473,2.267,5.206c1.566,3.443,3.196,6.852,4.872,10.237l0.12,0.242
					c-0.777,5.965-1.48,12.154-2.088,18.586c0,0,1.076-6.573,3.451-17.992l0.508-0.362c2.35-1.672,4.731-3.303,7.042-5.03
					l3.485-2.565l3.442-2.626c2.281-1.769,4.549-3.556,6.774-5.403c2.229-1.84,4.435-3.714,6.562-5.697
					c-2.555,1.388-5.032,2.884-7.485,4.414c-2.458,1.523-4.872,3.107-7.274,4.708l-3.582,2.43l-3.539,2.49
					c-1.723,1.194-3.41,2.438-5.097,3.68c1.896-8.871,4.466-20.107,7.788-33.083C580.39,310.207,582.018,309.384,583.623,308.519z"
					/>
			</g>
			<g>
				<path style="fill:#E2BFCD;" d="M581.778,421.195c0,0,15.411-114.327,73.147-149.039c57.736-34.712,34.228,37.523,5.444,66.335
					c-28.784,28.811-72.531,83.198-72.531,83.198L581.778,421.195z"/>
				<g>
					<path style="fill:#FFFFFF;" d="M658.759,290.703c0,0-34.255,22.548-76.981,130.493l4.154,0.338
						C585.933,421.534,617.025,342.698,658.759,290.703z"/>
					<path style="fill:#FFFFFF;" d="M640.359,292.746c0.287,1.527,0.543,3.055,0.752,4.585c0.232,1.529,0.399,3.06,0.595,4.59
						c0.342,3.062,0.62,6.126,0.852,9.191l-1.425-1.042c2.497-0.435,4.985-0.912,7.494-1.293l3.757-0.596l3.77-0.538
						c2.517-0.34,5.038-0.663,7.572-0.926c2.532-0.27,5.072-0.506,7.634-0.636c-2.437,0.716-4.897,1.324-7.364,1.899
						c-2.466,0.582-4.944,1.105-7.426,1.61l-3.729,0.73l-3.742,0.671c-2.491,0.464-5.002,0.832-7.505,1.242l-1.383,0.227
						l-0.042-1.268c-0.103-3.07-0.159-6.141-0.153-9.215c0.028-1.538,0.028-3.074,0.093-4.613
						C640.152,295.826,640.24,294.286,640.359,292.746z"/>
					<path style="fill:#FFFFFF;" d="M623.4,317.503c0.287,1.527,0.542,3.055,0.751,4.585c0.232,1.529,0.399,3.06,0.595,4.59
						c0.342,3.062,0.62,6.126,0.852,9.191l-1.425-1.042c2.497-0.435,4.985-0.912,7.494-1.293l3.758-0.597l3.77-0.538
						c2.517-0.34,5.038-0.662,7.572-0.925c2.532-0.27,5.072-0.506,7.634-0.636c-2.437,0.716-4.897,1.324-7.364,1.899
						c-2.465,0.582-4.944,1.105-7.426,1.61l-3.729,0.73l-3.742,0.671c-2.491,0.464-5.002,0.832-7.505,1.242l-1.383,0.227
						l-0.043-1.268c-0.103-3.07-0.159-6.141-0.153-9.215c0.028-1.538,0.028-3.074,0.092-4.613
						C623.192,320.583,623.28,319.044,623.4,317.503z"/>
					<path style="fill:#FFFFFF;" d="M607.181,344.009c0.528,1.475,1.024,2.954,1.475,4.442c0.474,1.484,0.883,2.979,1.321,4.469
						c0.827,2.988,1.592,5.987,2.311,8.994l-1.573-0.839c2.395-0.769,4.775-1.578,7.19-2.296l3.614-1.1l3.636-1.043
						c2.431-0.678,4.868-1.339,7.327-1.942c2.457-0.61,4.926-1.188,7.434-1.664c-2.291,1.039-4.622,1.975-6.966,2.879
						c-2.341,0.911-4.703,1.764-7.073,2.601l-3.564,1.228l-3.586,1.172c-2.385,0.797-4.805,1.502-7.209,2.247l-1.329,0.412
						l-0.245-1.251c-0.592-3.029-1.139-6.065-1.624-9.112c-0.218-1.528-0.464-3.051-0.646-4.585
						C607.468,347.09,607.309,345.552,607.181,344.009z"/>
				</g>
			</g>
			<g>
				<path style="fill:#E2BFCD;" d="M691.023,403.2c-24.228,18.338-79.23,18.976-95.349,18.751c-2.875-0.043-4.515-0.112-4.515-0.112
					l-2.82-0.766c0,0,28.617-30.896,56.375-43.424c27.756-12.521,52.273-16.629,62.195-12.715
					C716.829,368.855,719.582,381.59,691.023,403.2z"/>
				<g>
					<path style="fill:#FFFFFF;" d="M688.408,375.759c-32.627,11.382-67.385,30.668-92.733,46.192
						c-2.875-0.043-4.515-0.112-4.515-0.112l-2.259-0.614C658.992,376.388,688.408,375.759,688.408,375.759z"/>
					<path style="fill:#FFFFFF;" d="M657.453,375.468c-1.824,2.781-3.731,5.491-5.687,8.161c-0.963,1.347-1.97,2.658-2.956,3.986
						c-0.981,1.332-2.009,2.625-3.013,3.938l-0.367-1.64c2.773,1.166,5.509,2.417,8.256,3.642c2.729,1.265,5.466,2.513,8.169,3.838
						c1.358,0.647,2.709,1.31,4.052,1.992c1.347,0.671,2.692,1.349,4.025,2.052c2.676,1.385,5.33,2.82,7.94,4.352
						c-2.868-0.952-5.694-2.001-8.496-3.101c-1.406-0.539-2.801-1.103-4.193-1.674c-1.397-0.56-2.785-1.139-4.166-1.734
						c-2.777-1.159-5.518-2.395-8.268-3.615c-2.732-1.259-5.475-2.493-8.181-3.811l-1.248-0.608l0.881-1.033
						c1.072-1.256,2.12-2.532,3.214-3.77c1.09-1.241,2.159-2.5,3.271-3.722C652.882,380.255,655.125,377.826,657.453,375.468z"/>
					<path style="fill:#FFFFFF;" d="M636.57,385.539c-0.699,1.341-1.421,2.667-2.178,3.966c-0.74,1.312-1.526,2.591-2.294,3.884
						l-2.384,3.82l-2.451,3.772l-0.398-1.631c2.027,1.004,4.074,1.966,6.076,3.019l3.016,1.556l2.988,1.612
						c1.984,1.09,3.96,2.198,5.909,3.36c1.952,1.156,3.889,2.343,5.777,3.63c-2.155-0.743-4.261-1.586-6.351-2.459
						c-2.094-0.867-4.161-1.789-6.219-2.728l-3.076-1.433l-3.049-1.489c-2.04-0.977-4.036-2.044-6.052-3.069l-1.158-0.588
						l0.759-1.043l2.646-3.633l2.714-3.585c0.932-1.176,1.844-2.365,2.803-3.521C634.593,387.809,635.57,386.666,636.57,385.539z"/>
				</g>
			</g>
		</g>
		<g>
			<g>
				<path style="fill:#DFDCF4;" d="M595.049,101.969v131.838c0,6.782-6.04,12.287-13.489,12.287H353.522
					c-7.449,0-13.489-5.505-13.489-12.287V101.969c0-0.094,0-0.188,0.009-0.272c0.15-6.66,6.134-12.014,13.48-12.014H581.56
					c7.346,0,13.329,5.354,13.48,12.014C595.049,101.782,595.049,101.875,595.049,101.969z"/>
				<g>
					<g>
						<rect x="371.197" y="184.021" style="fill:#A5A3CC;" width="5.826" height="44.779"/>
						<polygon style="fill:#A5A3CC;" points="525.144,117.594 525.144,228.8 362.782,228.8 362.782,229.617 525.144,229.617 
							525.961,229.617 525.961,117.594 						"/>
						<rect x="501.641" y="130.308" style="fill:#A5A3CC;" width="5.826" height="98.492"/>
						<rect x="475.552" y="143.793" style="fill:#A5A3CC;" width="5.826" height="85.007"/>
						<rect x="449.464" y="170.849" style="fill:#A5A3CC;" width="5.826" height="57.951"/>
						<rect x="423.375" y="156.052" style="fill:#A5A3CC;" width="5.826" height="72.748"/>
						<rect x="397.286" y="170.849" style="fill:#A5A3CC;" width="5.826" height="57.951"/>
						<g>
							<polygon style="fill:#A5A3CC;" points="374.625,171.635 373.595,170.063 426.316,135.55 452.35,154.43 503.969,113.299 
								505.14,114.769 452.403,156.79 426.261,137.832 							"/>
						</g>
						<polygon style="fill:#A5A3CC;" points="499.221,112.274 504.834,119.406 508.483,110.814 						"/>
						<rect x="398.439" y="232.086" style="fill:#96B4D6;" width="1.215" height="1.215"/>
						<rect x="400.745" y="232.086" style="fill:#96B4D6;" width="1.215" height="1.215"/>
						<rect x="424.528" y="232.086" style="fill:#96B4D6;" width="1.215" height="1.215"/>
						<rect x="426.833" y="232.086" style="fill:#96B4D6;" width="1.215" height="1.215"/>
						<rect x="450.616" y="232.086" style="fill:#96B4D6;" width="1.215" height="1.215"/>
						<rect x="452.922" y="232.086" style="fill:#96B4D6;" width="1.215" height="1.215"/>
						<rect x="476.705" y="232.086" style="fill:#96B4D6;" width="1.215" height="1.215"/>
						<rect x="479.011" y="232.086" style="fill:#96B4D6;" width="1.215" height="1.215"/>
						<rect x="502.794" y="232.086" style="fill:#96B4D6;" width="1.215" height="1.215"/>
						<rect x="505.1" y="232.086" style="fill:#96B4D6;" width="1.215" height="1.215"/>
					</g>
				</g>
				<g>
					<path style="fill:#A5A3CC;" d="M595.039,101.697H340.042c0.15-6.66,6.134-12.014,13.48-12.014H581.56
						C588.905,89.683,594.889,95.037,595.039,101.697z"/>
					<g>
						<path style="fill:#FFFFFF;" d="M357.351,95.69c0,1.294-1.049,2.343-2.343,2.343c-1.294,0-2.343-1.049-2.343-2.343
							c0-1.294,1.049-2.343,2.343-2.343C356.302,93.347,357.351,94.396,357.351,95.69z"/>
						<path style="fill:#FFFFFF;" d="M367.135,95.69c0,1.294-1.049,2.343-2.343,2.343c-1.294,0-2.343-1.049-2.343-2.343
							c0-1.294,1.049-2.343,2.343-2.343C366.086,93.347,367.135,94.396,367.135,95.69z"/>
						<path style="fill:#FFFFFF;" d="M376.919,95.69c0,1.294-1.049,2.343-2.343,2.343c-1.294,0-2.343-1.049-2.343-2.343
							c0-1.294,1.049-2.343,2.343-2.343C375.87,93.347,376.919,94.396,376.919,95.69z"/>
					</g>
				</g>
			</g>
			<g>
				<g>
					<path style="fill:#EFACA5;" d="M576.528,181.495c0,0-11.816,14.482-22.022,10.805c-4.521-1.629-6.237-4.422-6.755-7.021
						c-0.638-3.272,0.625-6.25,0.625-6.25l2.646-0.805l2.6-6.902l12.567-8.046c1.21,0.299,2.746,0.725,4.096,1.104
						c0.133,1.868,0.332,4.116,0.605,5.812c0.1,0.598,0.206,1.13,0.326,1.556C572.027,174.639,576.528,181.495,576.528,181.495z"/>
					<path style="fill:#D98A88;" d="M570.89,170.191c-1.629,3.923-7.733,15.413-23.139,15.087c-0.638-3.272,0.625-6.25,0.625-6.25
						l2.646-0.805l2.6-6.902l12.567-8.046c1.21,0.299,2.746,0.725,4.096,1.104C570.418,166.248,570.617,168.496,570.89,170.191z"/>
					<path style="fill:#D98A88;" d="M545.315,157.607c-0.51,2.042-3.26,3.114-6.142,2.394c-2.882-0.719-4.806-2.958-4.296-5
						c0.51-2.042,3.26-3.114,6.142-2.394C543.902,153.327,545.825,155.565,545.315,157.607z"/>
					<path style="fill:#EFACA5;" d="M573.501,154.957c-0.496,10.284-9.882,18.582-19.219,18.534
						c-9.337-0.048-14.65-8.425-14.154-18.709c0.496-10.284-0.032-18.534,17.364-18.534
						C566.83,136.248,573.997,144.672,573.501,154.957z"/>
					<path style="fill:none;stroke:#DD4B47;stroke-linecap:round;stroke-miterlimit:10;" d="M548.137,154.87
						c0,0-1.111,2.893-0.036,5.762"/>
					<path style="fill:none;stroke:#2C1106;stroke-linecap:round;stroke-miterlimit:10;" d="M553.621,154.206
						c0,0.532-0.141,0.964-0.314,0.964c-0.173,0-0.314-0.431-0.314-0.964s0.14-0.964,0.314-0.964
						C553.48,153.242,553.621,153.673,553.621,154.206z"/>
					<path style="fill:none;stroke:#2C1106;stroke-linecap:round;stroke-miterlimit:10;" d="M542.957,153.242
						c0,0.532-0.141,0.964-0.314,0.964c-0.173,0-0.314-0.432-0.314-0.964c0-0.532,0.141-0.964,0.314-0.964
						C542.817,152.278,542.957,152.71,542.957,153.242z"/>
					<path style="fill:#D98A88;" d="M541.294,144.873c0,0,6.455,6.814,24.027,1.793c0,0,0.562,5.53,3.06,7.539
						c2.498,2.009,9.067-11.871,0-14.076c-9.067-2.204-16.195-2.07-17.271-1.936c-1.076,0.134-3.366,0.403-4.708,0.941
						c-1.343,0.538-5.904,4.115-5.904,4.115L541.294,144.873z"/>
					<path style="fill:#2C1106;" d="M539.142,141.018c0,0-2.303,10.848,0.955,15.286c0,0,0.838-9.01,2.272-13.582
						C543.804,138.149,539.142,141.018,539.142,141.018z"/>
					<path style="fill:#2C1106;" d="M576.08,157.97l-5.34,1.87c0,0-3.56-5.58-3.83-14.99c0,0-13.58,4.31-22.99,0.27
						c-2.8-1.2-4.7-2.64-5.91-4.19c-0.04-0.05-0.08-0.11-0.12-0.16c-2.74-3.65-1.75-7.93,0.45-11.32
						c4.3-6.64,26.68-10.06,33.65,2.78c0.12,0.22,0.23,0.44,0.34,0.66c0.5,1.02,0.9,2.14,1.19,3.36
						C573.52,136.25,584.6,140.12,576.08,157.97z"/>
					<path style="fill:#683518;" d="M571.99,132.23c-4.86-2.95-15.35-8.1-24.36-4.38c-8.13,3.35-9.64,9.32-9.74,12.92
						c-2.74-3.65-1.75-7.93,0.45-11.32C542.64,122.81,565.02,119.39,571.99,132.23z"/>
					<path style="fill:#EFACA5;" d="M578.905,160.225c0,2.104-2.408,3.81-5.379,3.81c-2.971,0-5.379-1.706-5.379-3.81
						c0-2.104,2.409-3.81,5.379-3.81C576.496,156.415,578.905,158.12,578.905,160.225z"/>
					<path style="fill:none;stroke:#2C1106;stroke-linecap:round;stroke-miterlimit:10;" d="M541.462,149.262
						c0,0,2.746-1.748,4.94,0.538"/>
					<path style="fill:none;stroke:#2C1106;stroke-linecap:round;stroke-miterlimit:10;" d="M552.468,149.85
						c0,0,2.865-1.748,5.154,0.538"/>
					<path style="fill:#2C1106;" d="M571.768,155.629l-3.386-1.424c0,0-1.402,9.319-9.204,13.513
						c-0.252-1.322-1.67-6.18-8.899-5.906c-5.95,0.225-6.541,2.824-6.388,4.303c-1.837-2.299-3.143-5.596-3.799-9.809
						c0,0-3.916,8.651-0.691,15.639c3.232,6.995,10.599,9.548,17.401,7.534C563.61,177.465,572.089,167.889,571.768,155.629z"/>
					<path style="fill:#FFFFFF;" d="M547.079,164.256c0,0,3.497,0.09,7.62-0.807c0,0-0.359,2.69-3.227,3.765
						C548.603,168.29,547.258,165.87,547.079,164.256z"/>
				</g>
				<g>
					<path style="fill:#EFACA5;" d="M531.535,302.213c-0.712,1.695-1.935-0.352-1.935-0.352s-0.253,3.085-1.476,1.962
						c-1.124-1.037-1.849-4.628-1.955-5.18c0.04,0.326,0.226,1.695,0.226,2.766c0,1.23-1.357,3.384-2.693-1.616
						c-0.765-2.866-0.785-9.056-0.658-13.83c0.086-3.564,0.259-6.337,0.259-6.337l6.816,0.346l0.532,0.027
						C530.65,279.997,532.246,300.517,531.535,302.213z"/>
					<path style="fill:#D88B87;" d="M530.969,285.536l-7.926,0.426c0.086-3.564,0.259-6.337,0.259-6.337l6.816,0.346
						C530.524,282.597,530.969,285.536,530.969,285.536z"/>
					<g>
						<path style="fill:#3B95ED;" d="M538.126,185.03c0,0-0.152,0.137-0.421,0.434c-1.71,1.889-8.138,10.245-10.261,31.042
							c-2.457,24.072-6.605,62.937-6.605,62.937l10.579,3.407L538.126,185.03z"/>
						<polygon style="fill:#52ACF7;" points="519.975,279.369 520.176,273.994 534.912,274.568 530.92,283.257 						"/>
					</g>
				</g>
				<g>
					<g>
						<polygon style="fill:#EFACA5;" points="575.048,405.809 575.585,412.533 593.202,412.533 592.126,405.002 						"/>
						<path style="fill:#021C3D;" d="M611.18,425.397h-39.357c-0.013-1.024,0.04-2.048,0.146-3.045
							c0.572-5.546,2.633-10.313,2.633-10.313l18.598,0.226c0,0,8.119,1.39,13.318,4.615c2.6,1.616,3.763,3.75,4.282,5.472
							C611.313,424.074,611.18,425.397,611.18,425.397z"/>
						<path style="fill:#0F43A9;" d="M611.18,425.397h-39.357c-0.013-1.024,0.04-2.048,0.146-3.045h38.832
							C611.313,424.074,611.18,425.397,611.18,425.397z"/>
					</g>
					<g>
						<polygon style="fill:#EFACA5;" points="550.367,405.809 549.829,412.533 532.212,412.533 533.288,405.002 						"/>
						<path style="fill:#021C3D;" d="M514.235,425.397h39.357c0.013-1.024-0.04-2.048-0.146-3.045
							c-0.572-5.546-2.633-10.313-2.633-10.313l-18.598,0.226c0,0-8.119,1.39-13.319,4.615c-2.6,1.616-3.763,3.75-4.282,5.472
							C514.102,424.074,514.235,425.397,514.235,425.397z"/>
						<path style="fill:#0F43A9;" d="M514.235,425.397h39.357c0.013-1.024-0.04-2.048-0.146-3.045h-38.832
							C514.102,424.074,514.235,425.397,514.235,425.397z"/>
					</g>
					<g>
						<g>
							<g>
								<polygon style="fill:#0F43A9;" points="596.643,407.647 570.465,407.647 558.285,311.183 555.645,363.113 553.872,407.827 
									529.482,407.468 529.593,248.068 583.924,251.811 584.443,258.952 								"/>
							</g>
							<path style="fill:#0D339E;" d="M584.443,258.952c-35.913,9.542-54.85-2.587-54.85-2.587v-8.298l54.331,3.744L584.443,258.952
								z"/>
							<polygon style="fill:#0D339E;" points="558.285,311.183 555.645,363.113 555.538,362.821 547.021,286.793 555.538,286.793 
															"/>
						</g>
						<g>
							<path style="fill:none;stroke:#0B2A84;stroke-linecap:round;stroke-linejoin:round;stroke-miterlimit:10;" d="
								M548.656,259.977c0,0,1.922,24.067,5.944,29.547"/>
							<path style="fill:none;stroke:#0B2A84;stroke-linecap:round;stroke-linejoin:round;stroke-miterlimit:10;" d="
								M544.285,259.977c0,0,0.43,13.528,5.81,13.408"/>
						</g>
						<g>
							
								<line style="fill:none;stroke:#0B2A84;stroke-linecap:round;stroke-linejoin:round;stroke-miterlimit:10;" x1="578.875" y1="258.951" x2="593.202" y2="403.448"/>
							<path style="fill:none;stroke:#0B2A84;stroke-linecap:round;stroke-linejoin:round;stroke-miterlimit:10;" d="
								M580.049,270.79c0,0-5.517,0.377-8.14-10.813"/>
							
								<line style="fill:none;stroke:#0B2A84;stroke-linecap:round;stroke-linejoin:round;stroke-miterlimit:10;" x1="570.508" y1="403.448" x2="595.068" y2="403.448"/>
						</g>
						
							<line style="fill:none;stroke:#0B2A84;stroke-linecap:round;stroke-linejoin:round;stroke-miterlimit:10;" x1="553.096" y1="403.448" x2="530.286" y2="403.448"/>
					</g>
				</g>
				<path style="fill:#2D79E9;" d="M574.734,178.637c0,0,7.846,1.157,13.226,6.648c5.379,5.491-4.303,57.669-2.69,71.117
					c0,0-43.572,7.678-57.827-3.618c0,0,1.855-40.246,5.902-59.03c1.173-5.443,4.871-10.016,9.972-12.248
					c1.473-0.645,3.104-1.275,4.82-1.8c0,0-0.858,8.448,6.808,9.456C562.61,190.171,572.941,182.403,574.734,178.637z"/>
				<g>
					<g>
						<path style="fill:#EFACA5;" d="M552.704,240.671l-4.452,1.027c0,0-2.241-5.11-4.931-6.186
							c-2.69-1.076-8.069-3.586-9.682-3.855c-1.614-0.269-1.883,1.345,0,2.779c1.883,1.434,4.841,3.586,4.841,3.586
							s-4.303-0.209-7.89-1.36c-3.586-1.151-7.71-4.109-8.382-4.333c-0.672-0.224-2.331-0.493-2.062,1.255
							c0.269,1.748,6.859,6.59,10.534,7.62c0,0-3.586,0.135-5.693-0.628c-2.107-0.762-4.572-2.779-5.424-2.465
							c-0.852,0.314-0.986,1.883-0.314,2.51c0,0-1.076,1.345,0.404,3.138c0,0-0.359,1.121,1.569,2.824
							c1.928,1.703,7.283,4.707,14.064,5.065c6.781,0.359,16.463,0,16.463,0L552.704,240.671z"/>
						<path style="fill:none;stroke:#DD4B47;stroke-width:0.75;stroke-linecap:round;stroke-miterlimit:10;" d="M529.513,244.299
							c-5.85-0.067-10.264-3.676-10.264-3.676"/>
						<path style="fill:none;stroke:#DD4B47;stroke-width:0.75;stroke-linecap:round;stroke-miterlimit:10;" d="M519.652,243.761
							c0,0,3.966,4.303,10.242,4.303"/>
					</g>
					<path style="fill:#3B95ED;" d="M575.988,191.717c3.765-11.565,9.951-8.741,12.641-5.648c2.69,3.093,10.176,21.293,9.996,55.361
						c0,0,0.09,4.752-1.524,6.769c-1.614,2.017-12.103,4.438-19.634,4.572c-7.531,0.135-26.627-0.807-26.627-0.807l1.095-11.563
						l24.052-5.112C575.988,235.289,572.223,203.283,575.988,191.717z"/>
					<polygon style="fill:#52ACF7;" points="551.936,240.401 557.197,239.283 560.241,253.712 550.84,251.964 					"/>
				</g>
				<g>
					<path style="fill:#52ACF7;" d="M574.734,178.637c0,0-4.197,11.576-14.746,15.341l-6.937-5.267
						C553.051,188.711,566.834,185.826,574.734,178.637z"/>
					<path style="fill:#52ACF7;" d="M552.5,188.487l-6.203,3.918c0,0-4.107-9.061,1.84-12.699
						C548.137,179.706,548.475,186.455,552.5,188.487z"/>
					<circle style="fill:#52ACF7;" cx="551.555" cy="193.608" r="1.27"/>
					<circle style="fill:#52ACF7;" cx="550.889" cy="200.096" r="1.27"/>
				</g>
			</g>
			<g>
				<g>
					<g>
						<g>
							<polygon style="fill:#FA8595;" points="166.142,358.315 156.063,425.78 149.275,425.78 159.56,358.315 							"/>
							<polygon style="fill:#FA8595;" points="161.062,354.304 154.395,354.304 151.443,334.556 150.353,327.257 156.935,327.257 
								158.049,334.556 							"/>
							<polygon style="fill:#FA8595;" points="191.755,354.304 185.096,354.304 182.144,334.556 181.053,327.257 187.636,327.257 
								188.749,334.556 							"/>
							<polygon style="fill:#F15771;" points="185.887,358.315 175.809,425.78 169.021,425.78 179.306,358.315 							"/>
							<polygon style="fill:#F15771;" points="228.67,358.315 238.749,425.78 245.536,425.78 235.252,358.315 							"/>
							<polygon style="fill:#FA8595;" points="200.491,358.315 210.57,425.78 217.357,425.78 207.073,358.315 							"/>
							<polygon style="fill:#F15771;" points="156.935,327.257 158.049,334.556 151.443,334.556 150.353,327.257 							"/>
							<polygon style="fill:#F15771;" points="188.749,334.556 182.144,334.556 181.053,327.257 187.636,327.257 							"/>
							<polygon style="fill:#F15771;" points="181.741,285.045 135.644,285.045 143.097,328.228 189.194,328.228 							"/>
							<polygon style="fill:#FA8595;" points="186.863,285.045 140.766,285.045 148.219,328.228 194.316,328.228 							"/>
							<path style="fill:#FA8595;" d="M239.366,360.989h-89.679c-2.726,0-4.936-2.21-4.936-4.936l0,0
								c0-2.726,2.21-4.936,4.936-4.936h89.679c2.726,0,4.936,2.21,4.936,4.936l0,0
								C244.302,358.779,242.092,360.989,239.366,360.989z"/>
						</g>
						<g>
							<g>
								<path style="fill:#3A070C;" d="M186.764,208.691c0,0-6.021-7.042-13.245-1.987c-7.225,5.055-0.344,17.074,1.204,22.931
									c1.548,5.858-3.784,7.294-3.784,7.294s14.277,7.562,18.405-2.83C193.472,223.706,186.764,208.691,186.764,208.691z"/>
								<path style="fill:#58110D;" d="M196.789,191.401l-3.138-1.513c0,0-8.893,0.673-11.562,11.001
									c-3.04,11.76,0.553,27.599,16.793,31.133c19.341,4.209,28.218-13.916,22.928-29.526c-0.405-1.194-0.771-0.998-0.771-0.998
									L196.789,191.401z"/>
								<path style="fill:#F4AC96;" d="M206.812,255.642c5.544-3.025,6.392-10.082,6.392-10.082l-1.18-3.533
									c0,0-0.125-0.183-0.324-0.549c-0.781-1.463-2.701-5.827-2.028-12.568c0.84-8.403-13.615-2.685-13.615-2.685
									s-0.599,3.741-1.33,7.622c-0.557,2.951-1.189,5.984-1.696,7.506C191.851,244.887,201.268,258.668,206.812,255.642z"/>
								<path style="fill:#DF776C;" d="M194.727,233.848c2.519,3.142,7.813,7.846,16.973,7.63
									c-0.781-1.463-2.701-5.827-2.028-12.568c0.84-8.403-13.615-2.685-13.615-2.685S195.458,229.967,194.727,233.848z"/>
								<path style="fill:#DF776C;" d="M227.288,216.734c0.219,2.213-2.057,4.248-5.083,4.547c-3.026,0.299-5.656-1.253-5.874-3.465
									c-0.218-2.213,2.057-4.248,5.083-4.547C224.439,212.97,227.069,214.521,227.288,216.734z"/>
								<path style="fill:#F4AC96;" d="M210.449,236.475c4.58-0.333,10.074-6.583,11.778-15.66c0.283-1.496,0.457-2.959,0.524-4.364
									c0,0,0-0.008,0.008-0.008c0.116-2.377-0.05-4.588-0.474-6.517c-0.831-3.84-2.652-6.533-5.154-7.09
									c-11.82-2.618-19.001-1.155-23.257,2.336c-2.992,2.452-4.538,5.901-5.245,9.65
									C186.926,223.899,198.654,237.339,210.449,236.475z"/>
								<path style="fill:#DF776C;" d="M191.763,216.451c1.031-5.827,9.567-7.481,17.804-7.647
									c8.237-0.174,10.249-1.346,10.249-1.346c0.956,0.549,1.787,1.488,2.469,2.469c-0.831-3.84-2.652-6.533-5.154-7.09
									c-11.82-2.618-19.001-1.155-23.257,2.336C190.317,211.838,191.073,220.383,191.763,216.451z"/>
								<path style="fill:#58110D;" d="M188.405,221.583l0.086,0.043C188.491,221.626,188.416,221.777,188.405,221.583z"/>
								<path style="fill:#58110D;" d="M218.221,205.641c-0.022,0.011-0.032,0.011-0.032,0.011
									c-0.679,0.183-1.422,0.302-2.241,0.377c-12.992,1.12-22.182,1.68-23.981,9.523c-1.131,4.977-1.325,6.345-1.314,6.679
									l-5.408-2.639c0,0-3.856-6.166-2.015-18.702c1.41-9.594,10.418-10.999,10.418-10.999l0.011-0.011
									c0.323-0.183,6.992-3.857,18.152-1.896C222.509,189.869,228.197,203.055,218.221,205.641z"/>
								<path style="fill:#F4AC96;" d="M182.792,220.777c-0.218,2.213,2.058,4.248,5.084,4.547c3.026,0.299,5.656-1.253,5.874-3.465
									c0.218-2.212-2.058-4.248-5.084-4.547C185.641,217.013,183.011,218.564,182.792,220.777z"/>
								<path style="fill:none;stroke:#BE494F;stroke-linecap:round;stroke-miterlimit:10;" d="M211.727,219.902
									c0,0,1.22,2.588,0.515,5.528"/>
								<path style="fill:none;stroke:#58110D;stroke-linecap:round;stroke-miterlimit:10;" d="M215.548,213.307
									c0,0,2.773-2.202,5.545,0.277"/>
								<path style="fill:none;stroke:#58110D;stroke-linecap:round;stroke-miterlimit:10;" d="M201.3,213.307
									c0,0,2.773-2.202,5.545,0.277"/>
								<path style="fill:#282D33;" d="M206.116,217.547c0,0.861-0.344,1.558-0.769,1.558c-0.425,0-0.769-0.698-0.769-1.558
									c0-0.861,0.344-1.559,0.769-1.559C205.771,215.988,206.116,216.686,206.116,217.547z"/>
								<path style="fill:#282D33;" d="M219.731,217.547c0,0.861-0.345,1.558-0.769,1.558s-0.769-0.698-0.769-1.558
									c0-0.861,0.344-1.559,0.769-1.559S219.731,216.686,219.731,217.547z"/>
								<path style="fill:none;stroke:#BE494F;stroke-linecap:round;stroke-miterlimit:10;" d="M205.772,228.549
									c1.447,0.763,3.775,1.525,6.819,0.986"/>
								<path style="fill:#751A17;" d="M218.221,205.641c0.409-0.194,5.257-2.585,0.097-10.805
									c-5.386-8.564-24.67-4.945-24.67-4.945l0.011-0.011c0.323-0.183,6.992-3.857,18.152-1.896
									C222.509,189.869,228.197,203.055,218.221,205.641z"/>
							</g>
							<g>
								<path style="fill:#DF776C;" d="M236.132,338.85l11.723,1.835l8.956,72.946l12.396-1.006l-1.861-84.842
									c-0.123-3.603-2.585-6.702-6.067-7.637l-17.713-4.755L236.132,338.85z"/>
								<path style="fill:#DF776C;" d="M268.885,409.99l0.358,2.937c0,0,19.011,3.262,19.652,12.853h-22.773l-2.539-1.693
									l-0.846,1.693h-7.899c0,0-0.142-6.739,2.185-10.195l-0.318-2.818L268.885,409.99z"/>
								<path style="fill:#264066;" d="M288.895,425.785h-22.774l-2.542-1.702l-0.851,1.702h-7.896c0,0-0.108-4.245,1.045-7.713
									c1.347,0.722,5.796,2.596,14.49,2.058c7.369-0.442,9.965-2.209,10.859-3.264
									C285.168,418.89,288.626,421.777,288.895,425.785z"/>
							</g>
							<g>
								<path style="fill:#F4AC96;" d="M228.693,352.544h2.675l4.075,61.335l12.413-0.953l6.977-73.581
									c0.106-3.89-2.601-7.293-6.416-8.065l-15.087-3.053L228.693,352.544z"/>
								<path style="fill:#F4AC96;" d="M267.511,425.785h-22.774l-2.542-1.702l-0.851,1.702h-7.897c0,0-0.108-4.245,1.045-7.713
									c0.291-0.862,0.657-1.691,1.12-2.381l-0.237-2.887l12.777-2.962l-0.302,3.081c0,0,6.475,1.11,11.99,3.943
									C263.784,418.89,267.242,421.777,267.511,425.785z"/>
								<path style="fill:#2E4A79;" d="M267.511,425.785h-22.774l-2.542-1.702l-0.851,1.702h-7.897c0,0-0.108-4.245,1.045-7.713
									c1.347,0.722,5.796,2.596,14.49,2.058c7.369-0.442,9.965-2.209,10.859-3.264
									C263.784,418.89,267.242,421.777,267.511,425.785z"/>
							</g>
							<g>
								<path style="fill:#F4AC96;" d="M221.394,247.869c0,0,4.012,2.675,7.021,12.035c3.009,9.361,7.021,17.719,8.525,18.555
									c1.505,0.836,19.818-18.252,19.818-18.252l4.507,7.817c0,0-8.612,15.616-16.301,23.64
									c-7.689,8.024-10.029,7.355-12.202,6.519c-2.173-0.836-12.364-11.121-12.364-11.121L221.394,247.869z"/>
								<path style="fill:#F4AC96;" d="M257.021,261.235c-0.54-0.864-0.71-1.905-0.471-2.896c0.668-2.777,2.141-8.582,3.49-11.688
									c1.816-4.179,2.823-4.353,3.308-4.303c0.485,0.05,1.542,0.833-1.772,8.849c0,0,2.407-2.319,3.563,0.379
									c0,0,2.257-0.504,2.823,2.139c0,0,2.661,1.642,2.027,4.85c-0.634,3.209-2.63,1.436-2.63,1.436s1.014,3.688-2.214,5.895
									c-3.227,2.208-3.88,2.127-3.88,2.127L257.021,261.235z"/>
								<path style="fill:none;stroke:#BE494F;stroke-width:0.5;stroke-linecap:round;stroke-miterlimit:10;" d="M257.614,258.846
									c0,0,3.703-5.065,5.004-5.816c1.301-0.751,1.553,0.378,0.606,2.407c-0.947,2.029-1.007,2.789-1.007,2.789
									s1.749,3.54-0.839,6.156"/>
								<path style="fill:none;stroke:#BE494F;stroke-width:0.5;stroke-linecap:round;stroke-miterlimit:10;" d="M265.524,252.236
									c0,0,0.115,4.536-1.231,5.964c-1.346,1.427-1.843-0.347-1.795-1.01"/>
								<path style="fill:none;stroke:#BE494F;stroke-width:0.5;stroke-linecap:round;stroke-miterlimit:10;" d="M267.917,254.032
									c0,0-0.046,3.831-1.311,4.786c-1.266,0.955-2.126-0.364-2.013-1.031"/>
							</g>
							<g>
								<path style="fill:#0F43A9;" d="M226.641,270.336c-0.834-12.199-3.52-19.311-4.408-21.378
									c-0.077-0.286-0.173-0.509-0.294-0.65c-2.437-2.858-9.831-6.147-9.831-6.147c-0.988,4.749-5.4,9.372-5.4,9.372
									c-6.388-1.597-13.694-11.389-13.694-11.389s-12.867,3.068-16.229,6.471c-3.362,3.403-4.174,56.469,7.166,60.504
									s37.287,0.678,37.287,0.678c0-5.884-1.346-12.997-1.218-19.675c0.004-0.187,0.009-0.375,0.013-0.562
									C224.858,285.592,227.481,282.611,226.641,270.336z"/>
								<path style="fill:#2D79E9;" d="M206.709,251.533c0,0-3.698,3.884-10.423,4.674c-6.724,0.79-6.164-15.321-4.931-16.063
									c1.233-0.742,2.203-0.22,2.203-0.22S198.051,246.322,206.709,251.533z"/>
								<path style="fill:#2D79E9;" d="M206.709,251.533c0,0,4.113,2.38,8.461,3.054c4.348,0.674-0.562-11.456-1.359-12.09
									c-0.797-0.634-1.753-0.479-1.753-0.479S210.966,246.215,206.709,251.533z"/>
								<path style="fill:#0F43A9;" d="M176.703,291.575c0,0-1.064,12.652-3.679,18.97c-2.615,6.318-8.114,35.162,7.927,39.696
									c16.04,4.534,50.785,2.86,50.785,2.86s3.379-27.813,24.541-33.316c1.207-0.314,1.201-2.033-0.006-2.349l-34.748-9.113
									l-4.441-14.388L176.703,291.575z"/>
								<path style="fill:#2D79E9;" d="M208.914,256.483c0,0.717-0.582,1.299-1.299,1.299c-0.717,0-1.299-0.582-1.299-1.299
									c0-0.717,0.581-1.299,1.299-1.299C208.333,255.184,208.914,255.765,208.914,256.483z"/>
								<path style="fill:#2D79E9;" d="M208.914,261.676c0,0.717-0.582,1.299-1.299,1.299c-0.717,0-1.299-0.582-1.299-1.299
									c0-0.717,0.581-1.299,1.299-1.299C208.333,260.376,208.914,260.958,208.914,261.676z"/>
							</g>
							<g>
								<path style="fill:#F4AC96;" d="M199.264,307.659v0.011c-0.194,0-0.442-0.011-0.711-0.011l-7.412-0.549
									c-4.912-0.431-10.32-0.991-11.645-1.185c-2.284-0.323-16.515-2.058-17.495-4.891c-0.97-2.822,0.442-15.416,3.587-29.216
									c3.156-13.8,7.713-22.375,9.674-24.552c1.95-2.176,6.841-2.392,9.879,5.106c3.049,7.498-1.38,19.617-3.987,24.939
									c-2.607,5.322-5.229,15.07-5.229,15.07l19.495,6.38l0.646,0.205L199.264,307.659z"/>
								<path style="fill:#F4AC96;" d="M219.864,301.138c-1.197-0.059-1.717-1.265-3.208-2.904c-1.491-1.628-3.826-1.54-3.826-1.54
									s1.834,0.491,3.541,2.737c1.707,2.256,2.786,6.7,1.756,6.68c-1.02-0.02-2.325-1.844-2.325-1.844
									c0.275,0.922,0.226,3.198-0.853,3.09c-1.079-0.108-1.825-1.511-1.825-1.511c0.245,1.04-0.363,2.894-1.599,1.884
									c-1.236-1.02-3.394-4.267-3.394-4.267c-2.943,2.894-7.073,4.228-7.073,4.228h-1.815l-6.749-0.5l-0.333-7.936l6.347-0.745
									l0.069-0.01c0,0,10.124-6.376,14.607-5.042c4.483,1.334,6.053,3.669,6.386,4.493
									C219.894,298.774,221.071,301.197,219.864,301.138z"/>
								<path style="fill:none;stroke:#BE494F;stroke-width:0.5;stroke-linecap:round;stroke-miterlimit:10;" d="M212.736,304.586
									c0,0-1.023-2.251-3.192-3.929"/>
								<path style="fill:none;stroke:#BE494F;stroke-width:0.5;stroke-linecap:round;stroke-miterlimit:10;" d="M215.982,303.14
									c0,0-1.495-3.31-3.664-4.988"/>
							</g>
						</g>
					</g>
					<g>
						<g>
							<polygon style="fill:#999999;" points="421.275,260.126 359.594,260.126 353.41,298.27 415.092,298.27 							"/>
							<rect x="349.688" y="298.27" style="fill:#999999;" width="61.681" height="5.203"/>
							<polygon style="fill:#B7B7B7;" points="417.553,260.126 355.871,260.126 349.688,298.27 411.37,298.27 							"/>
							<polygon style="fill:#79DEE8;" points="414.423,262.786 411.39,281.522 409.103,295.61 352.812,295.61 353.775,289.689 
								354.944,282.484 358.132,262.786 							"/>
							<g>
								<polygon style="fill:#C5F8F9;" points="379.394,262.786 354.944,282.484 358.132,262.786 								"/>
								<polygon style="fill:#C5F8F9;" points="396.412,262.786 354.147,295.61 352.812,295.61 353.775,289.689 387.468,262.786 
																	"/>
								<polygon style="fill:#C5F8F9;" points="411.39,281.522 409.103,295.61 388.565,295.61 								"/>
							</g>
							<rect x="325.661" y="298.27" style="fill:#A8A8A8;" width="61.681" height="5.203"/>
						</g>
						<g>
							
								<rect x="198.864" y="308.904" transform="matrix(-1 -1.224647e-16 1.224647e-16 -1 403.9965 734.2315)" style="fill:#E0DCF5;" width="6.269" height="116.424"/>
							<g>
								
									<rect x="491.479" y="308.904" transform="matrix(-1 -1.224647e-16 1.224647e-16 -1 989.2265 734.2315)" style="fill:#A5A3CB;" width="6.269" height="116.424"/>
								
									<rect x="175.585" y="303.474" transform="matrix(-1 -1.224647e-16 1.224647e-16 -1 585.1617 615.5693)" style="fill:#E0DCF5;" width="233.992" height="8.622"/>
								
									<rect x="409.577" y="303.474" transform="matrix(-1 -1.224647e-16 1.224647e-16 -1 915.2023 615.5693)" style="fill:#A5A3CB;" width="96.048" height="8.622"/>
								
									<rect x="420.417" y="308.904" transform="matrix(-1 -1.224647e-16 1.224647e-16 -1 847.1022 734.2315)" style="fill:#A5A3CB;" width="6.269" height="116.424"/>
							</g>
						</g>
					</g>
					<g>
						<g>
							<g>
								<path style="fill:#FFCAC6;" d="M308.333,223.665c0,0,0.931,3.045-1.33,9.695c-1.303,3.87-4.142,5.034-6.303,5.326
									c-1.576,0.219-2.779-0.02-2.779-0.02l1.243,5.466l0.838,3.657l-22.574-3.411l0.572-7.274
									c-3.451-15.593,6.144-24.769,14.356-28.545c3.916-1.802,7.52-2.374,9.242-1.829c0.944,0.299,1.729,0.811,2.38,1.469
									c3.045,3.012,3.245,8.89,3.245,8.89s3.105,1.11,3.331,3.258C310.787,222.494,308.333,223.665,308.333,223.665z"/>
								<path style="fill:none;stroke:#DD4B47;stroke-width:0.75;stroke-linecap:round;stroke-miterlimit:10;" d="M305.002,229.891
									c0,0-2.328,0.295-4.937-0.482"/>
								<path style="fill:none;stroke:#2C1106;stroke-linecap:round;stroke-miterlimit:10;" d="M303.665,212.233
									c0,0-2.231-1.118-3.752,1.186"/>
								<path style="fill:#011E3C;" d="M303.046,215.438c0.149,0.556,0.051,1.065-0.218,1.137c-0.269,0.072-0.608-0.32-0.756-0.877
									c-0.149-0.556-0.051-1.065,0.218-1.137C302.559,214.49,302.897,214.882,303.046,215.438z"/>
								<path style="fill:#F9A0A0;" d="M297.921,238.665l1.245,5.465c-5.285-1.589-10.151-6.761-10.151-6.761
									C293.939,238.264,297.921,238.665,297.921,238.665z"/>
								<path style="fill:#F9A0A0;" d="M303.978,208.198c-4.056,3.684-12.527,5.22-12.527,5.22l0.904-4.861
									c3.916-1.802,7.52-2.374,9.242-1.829C302.542,207.028,303.326,207.54,303.978,208.198z"/>
								<g>
									<path style="fill:#011E3C;" d="M306.89,197.693c0,0.013,0.007,0.033,0,0.047c0,0.479-0.013,0.957-0.047,1.43
										c0.007,0.007,0.007,0.007,0,0.007c-0.013,0.166-0.027,0.333-0.047,0.492c0,0,0,0,0,0.007
										c-0.306,3.105-1.43,5.904-3.983,7.613c-8.677,5.778-10.027,5.658-10.027,5.658l0.067,5.785c0,0-3.917-1.569-5.645,0.465
										c-1.722,2.041-1.117,8.026,4.668,8.059c0,0-1.782,9.349-13.877,9.841c0,0-7.547-1.569-14.701-15.746
										c-7.155-14.176-2.228-18.531,2.48-18.452c0,0-1.596-3.777,1.928-6.303c1.117-0.791,2.746-1.463,5.107-1.849
										c9.801-1.589,22.621-9.395,21.51-12.614c0,0,6.33,1.137,7.048,4.628l2.241-3.657
										C303.612,183.104,306.877,190.724,306.89,197.693z"/>
									<path style="fill:#083A66;" d="M306.89,197.693c-0.399-4.063-4.064-9.468-4.064-9.468l-2.914,3.291
										c0,0-1.421-4.774-3.303-5.852c-1.882-1.077-5.045,6.053-14.662,9.282c-5.726,1.923-14.236,1.656-14.236,1.656l-0.007-0.007
										c1.117-0.791,2.746-1.463,5.107-1.849c9.801-1.589,22.621-9.395,21.51-12.614c0,0,6.33,1.137,7.048,4.628l2.241-3.657
										C303.612,183.104,306.877,190.724,306.89,197.693z"/>
								</g>
							</g>
							<g>
								<g>
									<polygon style="fill:#EFACA5;" points="322.611,405.809 323.149,412.533 340.766,412.533 339.69,405.002 									"/>
									<path style="fill:#021428;" d="M358.743,425.397h-39.357c-0.013-1.024,0.04-2.048,0.146-3.045
										c0.572-5.546,2.633-10.313,2.633-10.313l18.598,0.226c0,0,8.119,1.39,13.319,4.615c2.6,1.616,3.763,3.75,4.282,5.472
										C358.876,424.074,358.743,425.397,358.743,425.397z"/>
									<path style="fill:#0D3A82;" d="M358.743,425.397h-39.357c-0.013-1.024,0.04-2.048,0.146-3.045h38.832
										C358.876,424.074,358.743,425.397,358.743,425.397z"/>
								</g>
								<path style="fill:#2F5ED2;" d="M344.126,339.735v69.345c-11.477,2.873-24.742,1.795-24.742,1.795v-62.211
									C325.921,346.683,336.426,343.292,344.126,339.735z"/>
								<path style="fill:#2F5ED2;" d="M263.65,307.785c0,0-0.809,35.491,12.242,40.333c13.051,4.841,28.381,0.538,28.381,0.538
									l-4.717-35.234L263.65,307.785z"/>
							</g>
							<g>
								<g>
									<polygon style="fill:#EFACA5;" points="353.923,405.809 354.461,412.533 372.078,412.533 371.002,405.002 									"/>
									<path style="fill:#021C3D;" d="M390.055,425.397h-39.357c-0.013-1.024,0.04-2.048,0.146-3.045
										c0.572-5.546,2.633-10.313,2.633-10.313l18.598,0.226c0,0,8.119,1.39,13.319,4.615c2.6,1.616,3.763,3.75,4.282,5.472
										C390.188,424.074,390.055,425.397,390.055,425.397z"/>
									<path style="fill:#0F43A9;" d="M390.055,425.397h-39.357c-0.013-1.024,0.04-2.048,0.146-3.045h38.832
										C390.188,424.074,390.055,425.397,390.055,425.397z"/>
								</g>
								<path style="fill:#377EE8;" d="M276.076,314.408c0,0,3.744,28.921,14.301,34.785c16.944,9.414,59.53-5.021,59.53-5.021
									v66.702c0,0,13.269,1.076,24.744-1.793v-83.397c0-8.297-7.518-14.566-15.68-13.075l-40.264,7.356l-35.416-7.576"/>
							</g>
							<g>
								<path style="fill:#C6C6C6;" d="M318.081,321.482c0,0-44.364,11.803-58.388,0.007c0,0,2.746-42.044,2.647-60.223
									c-0.027-3.923,2.759-20.26,16.025-19.768c13.312,0.499,34.324,7.82,37.21,18.851c0.605,2.287,1.057,6.244,1.403,11.091
									c0.392,5.319,0.645,11.716,0.811,18.126c0.06,2.367,0.113,4.734,0.153,7.055
									C318.167,309.886,318.081,321.482,318.081,321.482z"/>
								<path style="fill:#9B9B9B;" d="M317.941,296.621c-4.575-1.277-9.222-3.404-12.939-6.902
									c-11.377-10.699-9.09-30.766-9.09-30.766l14.655,3.657l6.41,8.83c0.392,5.319,0.645,11.716,0.811,18.126
									C317.848,291.933,317.901,294.3,317.941,296.621z"/>
							</g>
							<g>
								<path style="fill:#FFCAC6;" d="M369.433,249.763c0,0-14.735,34.324-18.452,35.707c-1.476,0.552-5.459,0.712-9.735,0.712
									c-6.496-0.007-13.658-0.399-13.658-0.399l4.608-21.643l4.694,0.645l7.999,1.104l15.16-21.411L369.433,249.763z"/>
								<g>
									<path style="fill:#FFCAC6;" d="M360.052,244.476c0,0-2.076-3.405-1.359-8.784c0.717-5.379,3.474-6.119,3.474-6.119
										s1.816-8.405,4.953-11.991c3.138-3.586,2.084,2.6,1.636,3.586c-0.448,0.986-1.748,5.447-1.748,5.447
										s1.352-1.265,2.959-0.336c1.513,0.874,1.009,2.69,1.009,2.69s0.538-1.165,2.241-0.09c1.703,1.076,0.984,2.697,0.984,2.697
										s1.705-0.904,2.871,0.71s1.793,5.738,0.628,6.993c-1.165,1.255-2.421,0.448-2.421,0.448s0.142,9.04-5.846,10.034
										C363.445,250.754,360.052,244.476,360.052,244.476z"/>
									<path style="fill:none;stroke:#DD4B47;stroke-width:0.75;stroke-linecap:round;stroke-miterlimit:10;" d="M367.008,226.615
										c0,0-1.816,2.219-1.95,4.371"/>
									<path style="fill:none;stroke:#DD4B47;stroke-width:0.75;stroke-linecap:round;stroke-miterlimit:10;" d="M370.975,228.968
										c0,0-2.118,1.311-2.544,4.203"/>
									<path style="fill:none;stroke:#DD4B47;stroke-width:0.75;stroke-linecap:round;stroke-miterlimit:10;" d="M374.201,231.575
										c0,0-2.15,2.436-2.15,4.588"/>
									<path style="fill:none;stroke:#DD4B47;stroke-width:0.75;stroke-linecap:round;stroke-miterlimit:10;" d="M375.279,239.727
										c0,0-0.74-1.782-0.471-3.564"/>
									<path style="fill:none;stroke:#DD4B47;stroke-width:0.75;stroke-linecap:round;stroke-miterlimit:10;" d="M374.821,237.945
										c0,0,0.278-0.863,1.399-1.042"/>
								</g>
								<path style="fill:#F9A0A0;" d="M341.247,286.181c-6.496-0.007-13.658-0.399-13.658-0.399l4.608-21.643l4.694,0.645
									C338.581,268.7,341.726,277.304,341.247,286.181z"/>
								<path style="fill:#B2B2B2;" d="M332.641,261.547l-19.636-8.882c0,0-9.334-4.142-13.683-1.1
									c-4.349,3.042-5.758,16.387,3.199,25.966c8.957,9.579,29.723,12.189,29.723,12.189S337.901,274.131,332.641,261.547z"/>
							</g>
						</g>
						<g>
							<g>
								<g>
									<polygon style="fill:#FA8595;" points="263.052,354.304 256.386,354.304 253.434,334.556 252.343,327.257 258.926,327.257 
										260.039,334.556 									"/>
									<polygon style="fill:#F15771;" points="258.926,327.257 260.039,334.556 253.434,334.556 252.343,327.257 									"/>
								</g>
								<g>
									<polygon style="fill:#FA8595;" points="293.745,354.304 287.087,354.304 284.135,334.556 283.044,327.257 289.626,327.257 
										290.74,334.556 									"/>
									<polygon style="fill:#F15771;" points="290.74,334.556 284.135,334.556 283.044,327.257 289.626,327.257 									"/>
								</g>
								<g>
									<polygon style="fill:#F15771;" points="288.271,285.045 242.174,285.045 249.627,328.228 295.724,328.228 									"/>
									<polygon style="fill:#FA8595;" points="281.559,285.045 235.463,285.045 242.915,328.228 289.012,328.228 									"/>
								</g>
							</g>
							<g>
								<polygon style="fill:#FA8595;" points="268.132,358.315 258.054,425.78 251.266,425.78 261.551,358.315 								"/>
								<polygon style="fill:#F15771;" points="287.878,358.315 277.8,425.78 271.012,425.78 281.296,358.315 								"/>
								<polygon style="fill:#F15771;" points="330.661,358.315 340.739,425.78 347.527,425.78 337.243,358.315 								"/>
								<polygon style="fill:#FA8595;" points="302.482,358.315 312.56,425.78 319.348,425.78 309.064,358.315 								"/>
								<path style="fill:#FA8595;" d="M341.356,360.989h-89.679c-2.726,0-4.936-2.21-4.936-4.936l0,0
									c0-2.726,2.21-4.936,4.936-4.936h89.679c2.726,0,4.936,2.21,4.936,4.936l0,0
									C346.293,358.779,344.083,360.989,341.356,360.989z"/>
							</g>
						</g>
					</g>
				</g>
				<g>
					<path style="fill:#FA8595;" d="M286.813,164.271c0,4.187-1.701,7.987-4.441,10.738c-2.751,2.74-6.54,4.441-10.727,4.441
						h-19.947l-17.282,7.225l5.8-8.263c-5.645-2.209-9.644-7.711-9.644-14.14c0-4.187,1.701-7.976,4.441-10.727
						c2.751-2.74,6.54-4.441,10.738-4.441h25.894C280.019,149.103,286.813,155.897,286.813,164.271z"/>
					<g>
						<rect x="243.963" y="161.115" style="fill:#FFFFFF;" width="6.774" height="6.774"/>
						<rect x="256.307" y="161.115" style="fill:#FFFFFF;" width="6.774" height="6.774"/>
						<rect x="269.003" y="161.115" style="fill:#FFFFFF;" width="6.774" height="6.774"/>
					</g>
				</g>
				<g>
					<path style="fill:#FA8595;" d="M383.208,164.271c0,4.187-1.701,7.987-4.441,10.738c-2.751,2.74-6.54,4.441-10.727,4.441
						h-19.947l-17.282,7.225l5.8-8.263c-5.645-2.209-9.644-7.711-9.644-14.14c0-4.187,1.701-7.976,4.441-10.727
						c2.751-2.74,6.54-4.441,10.738-4.441h25.895C376.414,149.103,383.208,155.897,383.208,164.271z"/>
					<g>
						<rect x="340.033" y="161.115" style="fill:#FFFFFF;" width="6.774" height="6.774"/>
						<rect x="352.377" y="161.115" style="fill:#FFFFFF;" width="6.774" height="6.774"/>
						<rect x="365.073" y="161.115" style="fill:#FFFFFF;" width="6.774" height="6.774"/>
					</g>
				</g>
			</g>
		</g>
	</g>
</g>
</svg>
