<?xml version="1.0" encoding="utf-8"?>
<!-- Generator: Adobe Illustrator 27.5.0, SVG Export Plug-In . SVG Version: 6.00 Build 0)  -->
<svg version="1.1" xmlns="http://www.w3.org/2000/svg" xmlns:xlink="http://www.w3.org/1999/xlink" x="0px" y="0px"
	 viewBox="0 0 750 500" style="enable-background:new 0 0 750 500;" xml:space="preserve">
<g id="BACKGROUND">
	<rect style="fill:#FFFFFF;" width="750" height="500"/>
</g>
<g id="OBJECTS">
	<path style="fill:#E9F7F7;" d="M599.609,429.988c33.48-28.837,59.179-66.623,73.696-108.357
		c6.902-19.843,11.337-40.886,9.604-61.824c-1.734-20.937-10.12-41.827-25.7-55.921c-30.926-27.977-80.877-23.269-114.229-48.304
		c-19.906-14.942-31.165-38.434-46.846-57.762c-30.32-37.371-79.194-58.885-127.231-56.009
		c-48.037,2.877-93.994,30.071-119.637,70.793c-14.89,23.645-25.419,53.465-51.117,64.439c-16.019,6.841-34.36,4.45-51.466,7.739
		c-30.93,5.947-56.014,30.864-67.918,60.024s-12.09,61.96-6.861,93.019c6.169,36.648,41.237,72.324,73.685,95.158L599.609,429.988z"
		/>
	<g>
		<path style="fill:#62C3C8;" d="M208.088,145.811c0,0,95.003,39.937,51.861,95.552C259.949,241.363,190.06,254.747,208.088,145.811
			z"/>
		<line style="fill:none;stroke:#FFFFFF;stroke-miterlimit:10;" x1="259.949" y1="241.363" x2="208.088" y2="145.811"/>
		<line style="fill:none;stroke:#FFFFFF;stroke-miterlimit:10;" x1="229.653" y1="185.818" x2="235.539" y2="162.524"/>
		<line style="fill:none;stroke:#FFFFFF;stroke-miterlimit:10;" x1="209.552" y1="203.791" x2="241.655" y2="209.021"/>
		<line style="fill:none;stroke:#FFFFFF;stroke-miterlimit:10;" x1="255.688" y1="233.313" x2="266.193" y2="205.424"/>
	</g>
	<g>
		<path style="fill:#E5715A;" d="M578.87,152.414c0,0,17.116,104.54-54.877,97.351C523.993,249.766,474.164,196.218,578.87,152.414z
			"/>
		
			<line style="fill:none;stroke:#FFFFFF;stroke-width:1.0279;stroke-miterlimit:10;" x1="523.993" y1="249.766" x2="578.87" y2="152.414"/>
		
			<line style="fill:none;stroke:#FFFFFF;stroke-width:1.0279;stroke-miterlimit:10;" x1="555.812" y1="193.046" x2="579.311" y2="185.447"/>
		
			<line style="fill:none;stroke:#FFFFFF;stroke-width:1.0279;stroke-miterlimit:10;" x1="529.183" y1="185.359" x2="542.164" y2="216.171"/>
		
			<line style="fill:none;stroke:#FFFFFF;stroke-width:1.0279;stroke-miterlimit:10;" x1="528.675" y1="241.658" x2="558.698" y2="235.572"/>
	</g>
	<g>
		<path style="fill:#212951;" d="M230.928,97.069c0,0,74.001,38.653,35.419,80.639C266.347,177.708,209.022,183.796,230.928,97.069z
			"/>
		
			<line style="fill:none;stroke:#FFFFFF;stroke-width:0.8101;stroke-miterlimit:10;" x1="266.347" y1="177.708" x2="230.928" y2="97.069"/>
		
			<line style="fill:none;stroke:#FFFFFF;stroke-width:0.8101;stroke-miterlimit:10;" x1="245.638" y1="130.822" x2="251.962" y2="112.414"/>
		
			<line style="fill:none;stroke:#FFFFFF;stroke-width:0.8101;stroke-miterlimit:10;" x1="228.197" y1="143.975" x2="253.762" y2="150.364"/>
		
			<line style="fill:none;stroke:#FFFFFF;stroke-width:0.8101;stroke-miterlimit:10;" x1="263.45" y1="170.922" x2="273.813" y2="149.116"/>
	</g>
	<g>
		<path style="fill:#EDEDED;" d="M526.223,254.165H265.529c-6.129,0-11.144-5.015-11.144-11.144V116.322
			c0-6.129,5.015-11.144,11.144-11.144h260.694c6.129,0,11.144,5.015,11.144,11.144v126.699
			C537.366,249.15,532.352,254.165,526.223,254.165z"/>
		<path style="fill:#D7D9DD;" d="M347.408,136.58h-68.166c-3.642,0-6.623-2.98-6.623-6.623l0,0c0-3.642,2.98-6.623,6.623-6.623
			h68.166c3.642,0,6.623,2.98,6.623,6.623l0,0C354.031,133.599,351.051,136.58,347.408,136.58z"/>
		<path style="fill:#D7D9DD;" d="M324.397,156.254h-45.155c-3.642,0-6.623-2.98-6.623-6.623l0,0c0-3.642,2.98-6.623,6.623-6.623
			h45.155c3.643,0,6.623,2.98,6.623,6.623l0,0C331.02,153.274,328.04,156.254,324.397,156.254z"/>
		<path style="fill:#D7D9DD;" d="M348.685,177.964h-69.443c-3.642,0-6.623-2.98-6.623-6.623l0,0c0-3.642,2.98-6.623,6.623-6.623
			h69.443c3.643,0,6.623,2.98,6.623,6.623l0,0C355.308,174.983,352.328,177.964,348.685,177.964z"/>
		<path style="fill:#D7D9DD;" d="M358.135,235.953h-80.8c-2.22,0-4.037-1.817-4.037-4.037v-38.738c0-2.22,1.817-4.037,4.037-4.037
			h80.8c2.22,0,4.037,1.817,4.037,4.037v38.738C362.172,234.137,360.355,235.953,358.135,235.953z"/>
		<g>
			<polygon style="fill:#D7D9DD;" points="406.625,233.862 372.263,204.816 376.211,200.145 405.095,224.56 436.056,173.254 
				465.676,215.572 506.009,156.288 511.065,159.728 465.748,226.339 436.435,184.462 			"/>
		</g>
		<polygon style="fill:#D7D9DD;" points="495.638,151.816 519.372,167.811 522.468,141.497 		"/>
		<path style="fill:#D7D9DD;" d="M499.436,130.604H386.639c-0.974,0-1.772-0.797-1.772-1.772l0,0c0-0.974,0.797-1.772,1.772-1.772
			h112.797c0.974,0,1.772,0.797,1.772,1.772l0,0C501.208,129.807,500.411,130.604,499.436,130.604z"/>
		<path style="fill:#D7D9DD;" d="M482.316,143.006h-95.814c-0.899,0-1.635-0.736-1.635-1.635v-0.273
			c0-0.899,0.736-1.635,1.635-1.635h95.814c0.899,0,1.635,0.736,1.635,1.635v0.273C483.951,142.27,483.216,143.006,482.316,143.006z
			"/>
		<path style="fill:#D7D9DD;" d="M482.316,151.818h-95.814c-0.899,0-1.635-0.736-1.635-1.635v-0.273
			c0-0.899,0.736-1.635,1.635-1.635h95.814c0.899,0,1.635,0.736,1.635,1.635v0.273C483.951,151.082,483.216,151.818,482.316,151.818
			z"/>
	</g>
	<path style="fill:#212951;" d="M686.671,436.91H63.646c-1.646,0-2.993-1.347-2.993-2.993v-0.644c0-1.646,1.347-2.993,2.993-2.993
		h623.025c1.646,0,2.993,1.347,2.993,2.993v0.644C689.664,435.563,688.317,436.91,686.671,436.91z"/>
	
		<line style="fill:none;stroke:#212951;stroke-width:1.6174;stroke-miterlimit:10;" x1="261.456" y1="293.561" x2="245.266" y2="419.679"/>
	
		<line style="fill:none;stroke:#212951;stroke-width:1.6174;stroke-miterlimit:10;" x1="533.097" y1="293.561" x2="549.287" y2="419.679"/>
	<g>
		
			<rect x="188.265" y="396.095" transform="matrix(0.9294 0.369 -0.369 0.9294 161.7009 -42.8795)" style="fill:#E5A67C;" width="9.357" height="10.348"/>
		<path style="fill:#181E3D;" d="M208.582,347.189c0,0-17.544,33.389-20.373,49.801l10.187,4.527l34.521-45.84L208.582,347.189z"/>
		
			<line style="fill:none;stroke:#62C3C8;stroke-width:1.6174;stroke-miterlimit:10;" x1="208.582" y1="347.189" x2="221.942" y2="419.849"/>
		
			<line style="fill:none;stroke:#62C3C8;stroke-width:1.6174;stroke-miterlimit:10;" x1="158.273" y1="348.523" x2="145.682" y2="429.918"/>
		<path style="fill:#FFD444;" d="M157.302,323.041L157.302,323.041c-3.634,0-6.608-2.973-6.608-6.608v-41.681
			c0-3.634,2.974-6.608,6.608-6.608l0,0c3.634,0,6.608,2.974,6.608,6.608v41.681C163.91,320.067,160.936,323.041,157.302,323.041z"
			/>
		<path style="fill:#212951;" d="M192.008,204.649c2.196,12.565,4.392,25.129,6.588,37.694c1.125,6.435,2.16,13.462-1.014,19.172
			c-2.644,4.756-7.677,7.59-12.461,10.184c-6.285,3.407-13.69,6.894-20.28,4.12c-4.292-1.806-7.213-6.042-8.418-10.54
			c-1.206-4.498-0.908-9.259-0.27-13.872c1.356-9.799,4.222-19.389,8.464-28.326c2.574-5.422,5.727-10.697,10.235-14.658
			c4.508-3.961,10.551-6.487,16.503-5.719"/>
		<path style="fill:#D3946A;" d="M186.802,244.63c1.036,2.073,22.679,31.258,25.27,30.739c2.591-0.518,36.277-2.073,40.941,0.518
			c4.664,2.591,2.073,7.255-1.036,6.219s-15.029-2.591-17.102-2.591s-30.576,11.92-31.613,10.365
			c-1.036-1.555-19.693-32.65-19.693-32.65L186.802,244.63z"/>
		<path style="fill:#212951;" d="M203.772,350.018h-48.104c-2.957,0-5.376-2.419-5.376-5.376l0,0c0-2.957,2.419-5.376,5.376-5.376
			h48.104c2.957,0,5.376,2.419,5.376,5.376l0,0C209.148,347.599,206.729,350.018,203.772,350.018z"/>
		<rect x="174.624" y="224.354" style="fill:#E5A67C;" width="9.879" height="16.465"/>
		<path style="fill:#E5A67C;" d="M179.22,234.892h-0.3c-8.339,0-15.163-6.823-15.163-15.162v-7.216
			c0-8.339,6.823-15.162,15.163-15.162h0.3c8.339,0,15.162,6.823,15.162,15.162v7.216
			C194.382,228.069,187.559,234.892,179.22,234.892z"/>
		<path style="fill:#E5715A;" d="M202.357,310.97c0,0-1.411-36.742-0.893-41.924c0.518-5.182,0.867-6.472-4.923-12.262
			c-5.285-5.285-11.936-18.728-20.746-17.691s-13.993,12.956-13.993,19.693c0,6.737,4.753,54.134,4.753,54.134L202.357,310.97z"/>
		<path style="fill:#E5A67C;" d="M168.021,257.231c0,0,30.058,38.868,34.723,39.387c4.664,0.518,31.095-16.066,37.314-13.993
			c6.219,2.073,8.292,3.109,11.92,2.073s2.073-6.219-5.701-7.255s-11.401-1.555-16.584-0.518
			c-5.182,1.036-20.212,4.146-20.212,4.146s-23.839-32.131-29.022-33.686C175.276,245.829,166.466,251.012,168.021,257.231z"/>
		<path style="fill:#212951;" d="M193.289,204.78l-0.322-0.61c-2.958-3.383-6.543-6.343-10.773-7.859
			c-3.25-1.165-6.915-1.377-10.181-0.358c-7.906,1.813-14.132,8.63-17.857,15.994c-4.066,8.04-5.987,17.001-9.739,25.193
			c-2.254,4.921-5.16,9.546-7.034,14.623s-2.638,10.861-0.511,15.838c2.443,5.717,8.803,9.495,14.992,8.907
			c6.189-0.589,11.723-5.497,13.045-11.572c0.66-3.034,0.351-6.19,0.667-9.279c0.316-3.089,1.46-6.371,4.113-7.984
			c4.323-2.628,11.264-0.105,14.106-4.29c1.739-2.56,0.614-6.057-0.912-8.749c-1.347-2.376-3.023-4.798-3.257-7.457
			c-1.026-0.193-1.922-0.797-2.045-1.973c-0.115-1.108,0.509-2.122,1.381-2.762l-0.377-2.139c0.994-1.57,3.62-1.512,5.653-1.696
			c3.109-0.282,6.04-2.105,7.667-4.77C193.532,211.174,194.458,207.675,193.289,204.78z"/>
		<path style="fill:none;stroke:#212951;stroke-width:0.6318;stroke-miterlimit:10;" d="M171.223,197.158
			c-8.991,1.042-16.077,8.395-20.245,16.43c-4.169,8.035-6.196,17.006-9.904,25.263c-2.079,4.631-4.691,9.047-6.198,13.895
			c-1.507,4.847-1.79,10.367,0.703,14.789c2.493,4.422,8.351,7.124,12.919,4.91"/>
		<path style="fill:none;stroke:#212951;stroke-width:0.6713;stroke-miterlimit:10;" d="M192.675,204.623
			c1.579,2.052,2.109,4.73,1.416,7.147c-0.693,2.417-2.598,4.53-5.083,5.639c-1.677,0.748-3.549,1.044-5.374,1.417
			c-1.825,0.374-3.682,0.858-5.149,1.904c-1.466,1.046-2.465,2.781-2.038,4.42"/>
		<path style="fill:none;stroke:#212951;stroke-width:0.6318;stroke-miterlimit:10;" d="M188.467,203.164
			c5.192,3.088,6.512,9.886,7.321,15.872c1.669,12.359,3.34,24.882,1.812,37.258"/>
		<path style="fill:none;stroke:#212951;stroke-width:0.6318;stroke-miterlimit:10;" d="M184.206,239.821
			c0.461,3.277-2.678,5.952-5.763,7.149c-3.085,1.197-6.586,1.729-9.002,3.99c-2.618,2.45-3.277,6.272-4.072,9.768
			c-0.795,3.497-2.183,7.319-5.43,8.84"/>
		<path style="fill:none;stroke:#212951;stroke-width:1.6174;stroke-miterlimit:10;" d="M151.902,292.363
			c-1.809-0.54-3.769,0.697-4.68,2.35c-0.911,1.654-1.023,3.616-1.098,5.503c-0.328,8.281-0.334,16.574-0.02,24.855
			c0.2,5.281,0.609,10.811,3.419,15.286c2.81,4.475,8.807,7.398,13.544,5.054"/>
		<path style="fill:#212951;" d="M187.029,400.601c0,0,3.766,5.403,9.824,4.748c0,0,0.655-2.62,1.474-2.292
			c0.819,0.328,0.655,2.456,1.146,3.275c0.491,0.819,3.766,8.023,6.058,10.806c2.292,2.783-2.129,5.239-2.129,5.239l-22.267-11.297
			C181.135,411.08,181.135,402.566,187.029,400.601z"/>
		
			<rect x="222.294" y="410.859" transform="matrix(0.9997 0.0226 -0.0226 0.9997 9.4748 -5.0308)" style="fill:#E5A67C;" width="9.357" height="10.348"/>
		<path style="fill:#212951;" d="M221.532,419.016c0,0,5.785,3.195,10.948-0.08c0,0-0.572-2.648,0.31-2.717
			c0.882-0.068,1.678,1.921,2.483,2.44c0.805,0.519,6.946,5.553,10.243,7.042c3.297,1.49,0.406,5.66,0.406,5.66l-25.052-0.3
			C220.871,431.061,217.097,423.397,221.532,419.016z"/>
		<path style="fill:#212951;" d="M166.533,312.067c0,0-3.147,23.114,5.689,26.893c18.477,7.904,44.283,15.02,44.283,15.02
			s-0.566,49.801,5.093,60.554l11.318,0.566c0,0,7.357-66.779,6.225-73.004c-1.132-6.225-36.785-31.126-36.785-31.126
			L166.533,312.067z"/>
	</g>
	<g>
		<path style="fill:#181E3D;" d="M552.045,248.903c-1.788-14.126-4.01-29.226-13.62-39.732l-3.644-4.763
			c-3.652,2.14-4.163,7.146-4.014,11.376c0.149,4.23,0.313,9.066-2.762,11.974c-1.995,1.886-5.19,2.751-6.073,5.351
			c-0.757,2.229,0.605,4.82-0.327,6.982c-1.63,3.783-8.16,2.548-10.32,6.055c-1.39,2.257-0.305,5.6-2.117,7.535
			c-1.985,2.12-6.416,1.327-7.369,4.071c-0.468,1.347,0.344,2.871,1.519,3.679c1.175,0.808,2.631,1.066,4.038,1.305
			c11.38,1.93,23.085,3.856,34.377,1.467c3.7-0.783,7.625-2.279,9.476-5.577C552.83,255.738,552.461,252.189,552.045,248.903z"/>
		<path style="fill:#A0674A;" d="M537.927,248.909c0,0-30.577,16.331-35.441,14.246c-4.865-2.085-37.95-35.257-39.567-32.463
			c-1.185,2.046,4.821,6.403,4.821,6.403s-0.601,7.556,1.203,8.444c12.061,5.938,25.621,28.704,32.223,29.399
			c6.602,0.695,39.542-10.74,43.016-15.257C547.656,255.163,537.927,248.909,537.927,248.909z"/>
		
			<rect x="461.348" y="408.328" transform="matrix(-0.8119 -0.5838 0.5838 -0.8119 602.9955 1021.2888)" style="fill:#B27552;" width="9.357" height="10.348"/>
		<path style="fill:#181E3D;" d="M503.142,371.174c0,0-18.662,32.777-30.959,44.009l-9.305-6.138l26.023-66.712L503.142,371.174z"/>
		
			<line style="fill:none;stroke:#62C3C8;stroke-width:1.6174;stroke-miterlimit:10;" x1="518.326" y1="346.175" x2="504.966" y2="418.835"/>
		
			<line style="fill:none;stroke:#62C3C8;stroke-width:1.6174;stroke-miterlimit:10;" x1="568.636" y1="347.509" x2="581.226" y2="428.904"/>
		<path style="fill:#FFD444;" d="M569.606,322.027L569.606,322.027c3.634,0,6.608-2.974,6.608-6.608v-41.681
			c0-3.634-2.974-6.608-6.608-6.608l0,0c-3.634,0-6.608,2.974-6.608,6.608v41.681C562.998,319.053,565.972,322.027,569.606,322.027z
			"/>
		<path style="fill:#212951;" d="M523.137,349.004h48.104c2.957,0,5.376-2.419,5.376-5.376v0c0-2.957-2.419-5.376-5.376-5.376
			h-48.104c-2.957,0-5.376,2.419-5.376,5.376v0C517.76,346.585,520.18,349.004,523.137,349.004z"/>
		
			<rect x="542.405" y="223.34" transform="matrix(-1 -1.224647e-16 1.224647e-16 -1 1094.6896 467.3936)" style="fill:#B27552;" width="9.879" height="20.714"/>
		<path style="fill:#B27552;" d="M547.689,233.878h0.3c8.339,0,15.163-6.823,15.163-15.163v-7.216
			c0-8.339-6.823-15.162-15.163-15.162h-0.3c-8.339,0-15.163,6.823-15.163,15.162v7.216
			C532.526,227.055,539.349,233.878,547.689,233.878z"/>
		<path style="fill:#62C3C8;" d="M524.552,309.956c0,0,1.411-36.741,0.893-41.924c-0.518-5.182-0.867-6.472,4.923-12.262
			c5.285-5.285,11.936-18.728,20.746-17.691c8.81,1.036,13.993,12.956,13.993,19.693c0,6.737-4.753,54.134-4.753,54.134
			L524.552,309.956z"/>
		<path style="fill:none;stroke:#212951;stroke-width:1.6174;stroke-miterlimit:10;" d="M575.006,291.349
			c1.809-0.54,3.769,0.697,4.68,2.35c0.911,1.654,1.023,3.616,1.098,5.503c0.328,8.28,0.334,16.574,0.02,24.855
			c-0.2,5.281-0.609,10.811-3.419,15.286c-2.81,4.475-8.807,7.398-13.544,5.054"/>
		<path style="fill:#212951;" d="M469.778,418.123c0,0-6.581-0.258-9.295-5.714c0,0,1.853-1.964,1.136-2.477
			c-0.717-0.513-2.422,0.773-3.376,0.8c-0.954,0.028-8.787,1.154-12.367,0.724c-3.58-0.43-3.265,4.617-3.265,4.617l21.52,12.663
			C464.131,428.737,471.301,424.146,469.778,418.123z"/>
		
			<rect x="495.257" y="409.845" transform="matrix(-0.9997 0.0226 -0.0226 -0.9997 1009.1366 818.6162)" style="fill:#B27552;" width="9.357" height="10.348"/>
		<path style="fill:#212951;" d="M505.376,418.002c0,0-5.785,3.195-10.948-0.08c0,0,0.572-2.649-0.311-2.717
			c-0.882-0.068-1.678,1.921-2.483,2.44c-0.805,0.519-6.946,5.553-10.243,7.043c-3.297,1.49-0.406,5.66-0.406,5.66l25.052-0.3
			C506.038,430.047,509.812,422.383,505.376,418.002z"/>
		<path style="fill:#212951;" d="M560.376,311.053c0,0,3.147,23.114-5.689,26.893c-18.477,7.904-44.283,15.02-44.283,15.02
			s0.566,49.801-5.093,60.554l-11.318,0.566c0,0-7.357-66.779-6.225-73.004c1.132-6.225,36.785-31.126,36.785-31.126
			L560.376,311.053z"/>
		<path style="fill:#B27552;" d="M556.286,250.319c0,0-28.636,40.303-32.525,40.303c-3.889,0-63.636-0.707-66.11-0.353
			c-2.475,0.353-1.768-4.242,4.242-4.596c6.01-0.354,55.858-8.485,56.919-8.838c1.061-0.354,25.101-30.757,25.101-30.757
			L556.286,250.319z"/>
		<path style="fill:#62C3C8;" d="M534.118,254.195c0,0,6.821-9.662,13.073-9.662c6.252,0,13.357,5.968,11.652,9.378
			c-1.705,3.41-14.778,18.472-14.778,18.472l-14.778-10.799L534.118,254.195z"/>
		<path style="fill:#181E3D;" d="M594.852,240.764c-2.292-1.582-5.405-2.46-6.472-5.032c-1.1-2.651,0.591-5.879-0.601-8.49
			c-0.973-2.13-3.503-3.04-5.822-3.367c-2.318-0.327-4.78-0.321-6.815-1.48c-3.942-2.246-4.473-7.549-5.878-11.863
			c-1.559-4.79-4.803-8.967-8.943-11.828c-2.182-1.849-4.742-3.224-7.528-3.902c-6.407-1.559-13.775,0.95-17.408,6.454l-1.967,3.104
			c0.696,6.284,6.739,11.457,13.008,12.273c1.409,0.184,2.859,0.159,4.214,0.588c1.355,0.429,2.65,1.463,2.839,2.871
			c0.189,1.408-1.269,2.928-2.589,2.401c0.104,2.189,0.217,4.425,1.019,6.465c0.094,0.238,0.201,0.473,0.317,0.704
			c-0.806,3.598-1.431,7.235-1.318,10.908c0.149,4.902,1.775,9.963,5.41,13.255c2.095,1.897,4.898,3.311,5.866,5.965
			c0.674,1.847,0.302,3.979,1.123,5.766c1.002,2.182,3.59,3.274,5.99,3.226c2.401-0.049,4.676-1.016,6.88-1.967
			c3.994-1.723,7.988-3.445,11.982-5.168c3.423-1.476,7.013-3.082,9.209-6.096C600.65,251.049,599.439,243.93,594.852,240.764z"/>
		<path style="fill:none;stroke:#181E3D;stroke-width:0.5;stroke-miterlimit:10;" d="M534.445,204.291
			c-3.469,2.963-5.496,7.542-5.357,12.103c0.086,2.813,0.889,5.884-0.605,8.27c-1.446,2.31-4.562,3.083-6.143,5.304
			c-1.47,2.065-1.265,4.832-1.129,7.363c0.135,2.531,0.007,5.393-1.859,7.109"/>
		<path style="fill:none;stroke:#181E3D;stroke-width:0.5;stroke-miterlimit:10;" d="M560.511,199.364
			c3.187,1.433,5.415,4.408,7.036,7.505c1.621,3.096,2.783,6.432,4.626,9.401c1.844,2.969,4.561,5.636,7.985,6.337
			c2.361,0.483,5.112,0.09,6.904,1.701c2.014,1.81,1.6,5.021,0.97,7.655c-0.63,2.633-1.185,5.779,0.684,7.738"/>
		<path style="fill:none;stroke:#181E3D;stroke-width:0.5;stroke-miterlimit:10;" d="M552.944,225.326
			c-1.89,4.01-3.079,8.349-3.497,12.763c-0.358,3.78-0.107,7.77,1.773,11.069c2.674,4.691,8.017,7.058,13.006,9.122"/>
		<path style="fill:none;stroke:#181E3D;stroke-width:0.5;stroke-miterlimit:10;" d="M533.907,204.212
			c-0.607,2.557-0.529,5.376,0.769,7.661c1.535,2.702,4.571,4.28,7.635,4.801c3.064,0.521,6.2,0.129,9.283-0.263"/>
	</g>
	<path style="fill:#212951;" d="M305.528,290.585h-65.046c-1.025,0-1.864-0.839-1.864-1.864l0,0c0-1.025,0.839-1.864,1.864-1.864
		h65.046c1.025,0,1.864,0.839,1.864,1.864l0,0C307.392,289.746,306.553,290.585,305.528,290.585z"/>
	<path style="fill:#212951;" d="M303.858,290.477L303.858,290.477c0.866,0.179,1.72-0.384,1.899-1.249l12.578-60.962
		c0.179-0.866-0.384-1.72-1.249-1.899l0,0c-0.866-0.179-1.72,0.384-1.899,1.249l-12.578,60.962
		C302.43,289.444,302.992,290.298,303.858,290.477z"/>
	<g>
		<g>
			<path style="fill:#FFD444;" d="M176.484,143.682c0,0-0.474-0.006-0.477-0.006c-0.003,0-0.472,0.006-0.472,0.006
				c-13.556,0.763-8.667,15.539-5.127,19.548c3.541,4.011,3.246,6.518,3.246,6.518l2.346,0.249v0.002l0.008-0.001l0.008,0.001
				v-0.002l2.346-0.249c0,0-0.295-2.507,3.246-6.518C185.147,159.22,190.04,144.444,176.484,143.682z"/>
			<path style="fill:#62C3C8;" d="M178.412,172.941h-4.81c-0.476,0-0.866-0.39-0.866-0.866v-2.943c0-0.476,0.39-0.866,0.866-0.866
				h4.81c0.476,0,0.866,0.39,0.866,0.866v2.943C179.278,172.551,178.888,172.941,178.412,172.941z"/>
			<path style="fill:#62C3C8;" d="M177.894,174.242h-3.773c-0.285,0-0.518-0.233-0.518-0.519v-1.243
				c0-0.285,0.233-0.518,0.518-0.518h3.773c0.285,0,0.519,0.233,0.519,0.518v1.243C178.412,174.009,178.179,174.242,177.894,174.242
				z"/>
			<path style="fill:none;stroke:#FFFFFF;stroke-width:0.8762;stroke-miterlimit:10;" d="M175.071,167.399
				c0.373-5.264-0.03-10.582-1.192-15.73c-0.102-0.45-0.216-0.913-0.495-1.28c-0.279-0.367-0.769-0.614-1.208-0.473
				c-0.557,0.179-0.774,0.914-0.57,1.463c0.203,0.548,0.701,0.931,1.208,1.223c2.039,1.171,4.642,1.3,6.787,0.338
				c0.62-0.278,1.247-0.697,1.447-1.347c0.2-0.65-0.297-1.506-0.971-1.411c-0.587,0.082-0.874,0.747-1.042,1.315
				c-1.532,5.19-2.25,10.619-2.122,16.029"/>
		</g>
		
			<line style="fill:none;stroke:#FFD444;stroke-width:0.8762;stroke-miterlimit:10;" x1="176.592" y1="130.381" x2="176.592" y2="140.882"/>
		
			<line style="fill:none;stroke:#FFD444;stroke-width:0.8762;stroke-miterlimit:10;" x1="166.831" y1="131.721" x2="170.058" y2="141.714"/>
		
			<line style="fill:none;stroke:#FFD444;stroke-width:0.8762;stroke-miterlimit:10;" x1="157.939" y1="138.776" x2="166.277" y2="145.16"/>
		
			<line style="fill:none;stroke:#FFD444;stroke-width:0.8762;stroke-miterlimit:10;" x1="153.803" y1="149.8" x2="164.257" y2="150.793"/>
		
			<line style="fill:none;stroke:#FFD444;stroke-width:0.8762;stroke-miterlimit:10;" x1="154.423" y1="159.28" x2="164.724" y2="157.244"/>
		
			<line style="fill:none;stroke:#FFD444;stroke-width:0.8762;stroke-miterlimit:10;" x1="185.814" y1="131.721" x2="182.587" y2="141.714"/>
		
			<line style="fill:none;stroke:#FFD444;stroke-width:0.8762;stroke-miterlimit:10;" x1="194.706" y1="138.776" x2="186.368" y2="145.16"/>
		
			<line style="fill:none;stroke:#FFD444;stroke-width:0.8762;stroke-miterlimit:10;" x1="198.842" y1="149.8" x2="188.388" y2="150.793"/>
		
			<line style="fill:none;stroke:#FFD444;stroke-width:0.8762;stroke-miterlimit:10;" x1="198.223" y1="159.28" x2="187.921" y2="157.244"/>
	</g>
	<g>
		<g>
			<path style="fill:#FFD444;" d="M551.219,146.752c0,0-0.474-0.006-0.477-0.006c-0.003,0-0.472,0.006-0.472,0.006
				c-13.556,0.763-8.667,15.539-5.127,19.548c3.542,4.011,3.246,6.518,3.246,6.518l2.346,0.249v0.002l0.008-0.001l0.007,0.001
				v-0.002l2.346-0.249c0,0-0.295-2.507,3.246-6.518C559.882,162.29,564.776,147.514,551.219,146.752z"/>
			<path style="fill:#62C3C8;" d="M553.147,176.011h-4.81c-0.476,0-0.866-0.39-0.866-0.866v-2.943c0-0.476,0.39-0.866,0.866-0.866
				h4.81c0.476,0,0.866,0.39,0.866,0.866v2.943C554.013,175.621,553.624,176.011,553.147,176.011z"/>
			<path style="fill:#62C3C8;" d="M552.629,177.312h-3.773c-0.285,0-0.518-0.233-0.518-0.519v-1.243
				c0-0.285,0.233-0.518,0.518-0.518h3.773c0.285,0,0.518,0.233,0.518,0.518v1.243C553.147,177.079,552.914,177.312,552.629,177.312
				z"/>
			<path style="fill:none;stroke:#FFFFFF;stroke-width:0.8762;stroke-miterlimit:10;" d="M549.806,170.469
				c0.374-5.264-0.029-10.582-1.192-15.73c-0.102-0.45-0.216-0.913-0.495-1.28c-0.279-0.367-0.769-0.614-1.208-0.473
				c-0.557,0.179-0.774,0.914-0.57,1.463c0.203,0.548,0.701,0.931,1.208,1.223c2.039,1.171,4.641,1.3,6.786,0.338
				c0.62-0.278,1.247-0.697,1.447-1.347c0.2-0.65-0.297-1.506-0.971-1.411c-0.587,0.082-0.874,0.747-1.042,1.315
				c-1.532,5.19-2.25,10.619-2.122,16.029"/>
		</g>
		
			<line style="fill:none;stroke:#FFD444;stroke-width:0.8762;stroke-miterlimit:10;" x1="551.327" y1="133.451" x2="551.327" y2="143.952"/>
		
			<line style="fill:none;stroke:#FFD444;stroke-width:0.8762;stroke-miterlimit:10;" x1="541.567" y1="134.792" x2="544.793" y2="144.784"/>
		
			<line style="fill:none;stroke:#FFD444;stroke-width:0.8762;stroke-miterlimit:10;" x1="532.674" y1="141.846" x2="541.012" y2="148.23"/>
		
			<line style="fill:none;stroke:#FFD444;stroke-width:0.8762;stroke-miterlimit:10;" x1="528.539" y1="152.87" x2="538.992" y2="153.863"/>
		
			<line style="fill:none;stroke:#FFD444;stroke-width:0.8762;stroke-miterlimit:10;" x1="529.158" y1="162.351" x2="539.459" y2="160.314"/>
		
			<line style="fill:none;stroke:#FFD444;stroke-width:0.8762;stroke-miterlimit:10;" x1="560.549" y1="134.792" x2="557.323" y2="144.784"/>
		
			<line style="fill:none;stroke:#FFD444;stroke-width:0.8762;stroke-miterlimit:10;" x1="569.441" y1="141.846" x2="561.104" y2="148.23"/>
		
			<line style="fill:none;stroke:#FFD444;stroke-width:0.8762;stroke-miterlimit:10;" x1="573.577" y1="152.87" x2="563.123" y2="153.863"/>
		
			<line style="fill:none;stroke:#FFD444;stroke-width:0.8762;stroke-miterlimit:10;" x1="572.958" y1="162.351" x2="562.656" y2="160.314"/>
	</g>
	<g>
		<path style="fill:#E5A67C;" d="M392.376,173.253c0,0-7.643-1.365-9.409-1.953c-1.765-0.589-14.417,2.06-14.417,2.06
			s2.942,17.065,15.006,14.712C395.619,185.717,392.376,173.253,392.376,173.253z"/>
		
			<rect x="348.898" y="409.159" transform="matrix(1 0.0022 -0.0022 1 0.9192 -0.7845)" style="fill:#E5A67C;" width="11.054" height="10.348"/>
		
			<rect x="389.173" y="407.451" transform="matrix(1 0.0022 -0.0022 1 0.9155 -0.8738)" style="fill:#E5A67C;" width="11.054" height="10.348"/>
		<path style="fill:#212951;" d="M354.018,269.285c0,0-2.791,41.173-3.489,60.014c-0.698,18.842-5.583,79.554-5.583,79.554
			s11.165,2.791,17.446,0c0,0,8.374-39.079,11.165-53.734c2.791-14.655,8.374-50.942,8.374-50.942l4.187,105.374
			c0,0,10.468,2.094,17.446,0c0,0,6.281-64.899,6.978-73.971c0.698-9.072-0.698-66.295-0.698-66.295H354.018z"/>
		<path style="fill:#212951;" d="M361.167,417.357c0,0-6.36,3.499-12.025-0.108c0,0,0.633-2.908-0.336-2.984
			c-0.969-0.076-1.847,2.107-2.732,2.675c-0.885,0.569-7.639,6.087-11.263,7.717c-3.624,1.63-0.456,6.216-0.456,6.216l27.517-0.285
			C361.871,430.589,366.03,422.177,361.167,417.357z"/>
		<path style="fill:#212951;" d="M389.456,415.909c-0.623,0-1.19,0.349-1.476,0.902c-0.542,1.049-1.34,2.769-1.34,3.805
			c0,1.569-3.661,7.846-1.831,9.154c1.831,1.308,16.999,1.569,19.876,1.046c2.877-0.523-1.046-8.107-1.308-9.938
			s-1.544-4.597-2.329-4.858c-0.784-0.262-2.138-0.191-2.138-0.191s0.381-3.094-0.67-3.414c-2.017-0.614-7.112-0.678-7.417,0.357
			c-0.496,1.685,0,3.138,0,3.138H389.456z"/>
		<path style="fill:#FFD444;" d="M372.283,172.775c0,0-12.275-0.558-16.181,2.79c-3.906,3.348-16.739,33.477-16.739,33.477
			s0.21,0.209,11.717,3.348c6.138,1.674,6.138,1.674,6.138,1.674s-5.022,45.753-4.464,59.144c0,0,42.963,2.79,58.586,0.558
			l1.116-57.47l15.477-3.27c0,0-5.992-29.092-11.014-34.113c-5.022-5.022-24.543-5.659-24.543-5.659s-2.239,12.355-10.608,11.239
			C373.399,183.376,372.283,172.775,372.283,172.775z"/>
		<path style="fill:#E5A67C;" d="M427.051,213.32l-0.759,65.675c0,0,5.285,3.171,9.249,2.907c3.964-0.264,5.814,3.171-1.057,3.171
			c-6.871,0-12.42,2.114-14.534-1.057c-2.114-3.171-7.494-67.721-7.494-67.721L427.051,213.32z"/>
		<path style="fill:#D3946A;" d="M339.364,209.042c0,0-9.521,28.076,1.404,28.407c10.924,0.331,17.481-23.859,17.481-23.859
			L339.364,209.042z"/>
		<path style="fill:#E5A67C;" d="M383.568,166.546l-0.3,0.019c-8.323,0.527-15.564-5.85-16.091-14.173l-0.456-7.201
			c-0.527-8.323,5.85-15.564,14.173-16.091l0.3-0.019c8.323-0.527,15.564,5.85,16.091,14.173l0.456,7.201
			C398.268,158.778,391.891,166.019,383.568,166.546z"/>
		<rect x="376.343" y="159.686" style="fill:#E5A67C;" width="11.553" height="19.713"/>
		<path style="fill:#E5A67C;" d="M363.786,173.288c0,0-33.392,58.193-26.489,62.853c6.903,4.66,11.594,1.474,14.701-3.128
			c3.107-4.602,20.587-59.156,20.587-59.156s3.291,0.258,3.702-1.89c0.411-2.148,3.095-8.99,2.858-11.633
			c-0.237-2.643-5.902-1.568-7.539-0.767C369.967,160.367,363.786,173.288,363.786,173.288z"/>
		<path style="fill:none;stroke:#D3946A;stroke-miterlimit:10;" d="M370.218,160.437c1.502-1.266,3.442-2.002,5.406-2.05
			c1.238-0.03,2.63,0.304,3.27,1.365c0.581,0.964,0.354,2.191,0.088,3.285c-0.715,2.941-1.579,5.846-2.586,8.7
			c-0.204,0.578-0.426,1.173-0.855,1.61c-0.43,0.437-1.127,0.673-1.671,0.392"/>
		<path style="fill:#212951;" d="M398.514,148.11c-0.185-4.295-0.432-8.801-2.683-12.463c-3.305-5.376-10.327-7.566-16.583-6.732
			c-6.256,0.833-11.888,4.15-17.081,7.737c-0.954,0.659-1.943,1.381-2.416,2.44c-0.827,1.853,0.232,4.027,1.635,5.493
			c3.852,4.027,10.588,4.895,15.336,1.975c2.409-1.482,4.254-3.757,6.677-5.215c2.423-1.458,5.952-1.829,7.783,0.326l-0.311,0.306
			c0.043,2.051,0.291,4.109,0.46,6.265c0.236-0.078,0.492-0.1,0.767-0.035c1.583,0.373,2.035,2.733,1.873,4.078
			c-0.101,0.836-0.456,1.673-1.19,2.141c-0.445,0.284-0.944,0.389-1.451,0.387c-0.326,3.156-1.241,6.626-3.393,10.623
			c5.251-0.463,9.281-6.745,10.042-9.322C398.738,153.537,398.629,150.794,398.514,148.11z"/>
	</g>
	<g>
		<path style="fill:#212951;" d="M415.5,84.813h-53.828c-4.672,0-8.494,3.822-8.494,8.494v22.599c0,4.672,3.822,8.494,8.494,8.494
			h49.821c0.432,4.519-0.507,9.171-2.755,13.119c5.853-2.181,10.041-7.97,10.758-14.127c2.67-1.436,4.497-4.257,4.497-7.486V93.307
			C423.994,88.635,420.171,84.813,415.5,84.813z"/>
		<path style="fill:#FFFFFF;" d="M379.076,104.874c0,1.742-1.412,3.155-3.155,3.155s-3.155-1.412-3.155-3.155
			c0-1.742,1.412-3.155,3.155-3.155S379.076,103.131,379.076,104.874z"/>
		<path style="fill:#FFFFFF;" d="M390.794,104.874c0,1.742-1.412,3.155-3.155,3.155s-3.155-1.412-3.155-3.155
			c0-1.742,1.412-3.155,3.155-3.155S390.794,103.131,390.794,104.874z"/>
		<circle style="fill:#FFFFFF;" cx="399.867" cy="104.874" r="3.155"/>
	</g>
	<path style="fill:#62C3C8;" d="M557.475,290.503H239.322c-0.735,0-1.337,0.602-1.337,1.337l0,0c0,0.735,0.602,1.337,1.337,1.337
		h318.153c0.735,0,1.337-0.602,1.337-1.337l0,0C558.812,291.105,558.21,290.503,557.475,290.503z"/>
</g>
<g id="DESIGNED_BY_FREEPIK">
	<g>
		<g id="XMLID_319_">
			<g id="XMLID_338_">
				<path id="XMLID_346_" style="fill:#3D3F3F;" d="M385.104,473.743c-0.432,0.443-0.803,0.931-1.108,1.453l-0.465-0.241
					c-0.067-0.298-0.349-0.503-0.659-0.466c-0.331,0.039-0.568,0.339-0.529,0.67c0.039,0.331,0.339,0.568,0.67,0.529
					c0.066-0.008,0.127-0.026,0.184-0.052l0.451,0.234c-0.251,0.554-0.433,1.139-0.539,1.744l0.746,0.132
					c0.23-1.306,0.85-2.507,1.792-3.473L385.104,473.743z"/>
				<path id="XMLID_345_" style="fill:#3D3F3F;" d="M390.592,471.441c-0.171,0-0.341,0.006-0.51,0.017l-0.074-0.626
					c0.188-0.149,0.296-0.389,0.266-0.645c-0.046-0.393-0.402-0.674-0.795-0.628c-0.393,0.046-0.674,0.402-0.628,0.795
					c0.03,0.254,0.189,0.461,0.404,0.564l0.074,0.624c-0.714,0.116-1.403,0.332-2.06,0.646l0.327,0.684
					c0.934-0.447,1.942-0.673,2.995-0.673c0.496,0,0.993,0.053,1.475,0.158l0.161-0.741
					C391.692,471.5,391.142,471.441,390.592,471.441z"/>
				<path id="XMLID_344_" style="fill:#3D3F3F;" d="M397.194,473.988c0.331-0.041,0.566-0.342,0.526-0.672
					c-0.04-0.331-0.341-0.566-0.672-0.526c-0.309,0.038-0.535,0.304-0.53,0.609l-0.416,0.363c-0.418-0.43-0.889-0.813-1.408-1.139
					l-0.404,0.641c1.134,0.715,2.021,1.726,2.563,2.925l0.69-0.313c-0.251-0.554-0.567-1.072-0.942-1.545l0.402-0.351
					C397.065,473.993,397.129,473.996,397.194,473.988z"/>
				<path id="XMLID_343_" style="fill:#3D3F3F;" d="M390.044,481.649c-0.386,0.023-0.775,0.035-1.157,0.035
					c-0.88,0-1.733-0.061-2.478-0.179c-0.39-0.062-0.846-0.155-1.27-0.292c1.046,1.861,3.069,3.125,5.388,3.125
					c2.855,0,5.262-1.916,5.95-4.504c-0.682,0.449-1.505,0.825-2.459,1.123C392.839,481.324,391.463,481.564,390.044,481.649z"/>
				<path id="XMLID_339_" style="fill:#3D3F3F;" d="M390.592,472.957c-3.352,0-6.08,2.666-6.08,5.944
					c0,0.426,0.046,0.849,0.137,1.261c0.673,0.483,2.706,0.89,5.348,0.731c2.879-0.173,5.297-0.957,6.672-2.159
					c-0.006-0.195-0.021-0.39-0.045-0.582C396.244,475.19,393.65,472.957,390.592,472.957z M388.432,479.472
					c-1.02,0-1.85-0.83-1.85-1.85c0-1.02,0.83-1.85,1.85-1.85c1.02,0,1.85,0.83,1.85,1.85
					C390.282,478.642,389.452,479.472,388.432,479.472z M393.17,478.563c-0.75,0-1.36-0.61-1.36-1.36c0-0.75,0.61-1.36,1.36-1.36
					c0.75,0,1.361,0.61,1.361,1.36C394.53,477.953,393.92,478.563,393.17,478.563z"/>
			</g>
			<path id="XMLID_336_" style="fill:#3D3F3F;" d="M406.595,474.824c-0.295-0.116-0.805-0.309-1.382-0.237
				c-0.551,0.069-0.844,0.34-0.844,1.007v0.866h2.228v1.717h-2.228v5.455h-1.932v-5.455h-1.34v-1.717h1.34v-0.888
				c0-1.68,0.896-2.783,2.568-2.783c0.643,0,1.157,0.122,1.59,0.308L406.595,474.824z"/>
			<path id="XMLID_334_" style="fill:#3D3F3F;" d="M411.298,478.156c-0.177-0.03-0.358-0.046-0.526-0.046
				c-0.895,0-1.51,0.548-1.51,1.613v3.908h-1.932v-7.172h1.873v0.785c0.451-0.673,1.14-0.977,2.021-0.977
				c0.414,0,0.848,0.127,1.094,0.337L411.298,478.156z"/>
			<path id="XMLID_331_" style="fill:#3D3F3F;" d="M418.965,480.034c0,0.222-0.015,0.489-0.037,0.651h-5.085
				c0.207,1.036,0.933,1.488,1.843,1.488c0.622,0,1.295-0.252,1.813-0.688l1.133,1.243c-0.814,0.748-1.85,1.088-3.057,1.088
				c-2.198,0-3.723-1.495-3.723-3.753c0-2.258,1.48-3.797,3.627-3.797C417.544,476.267,418.958,477.799,418.965,480.034z
				 M413.851,479.368h3.175c-0.177-0.918-0.733-1.436-1.562-1.436C414.554,477.932,414.021,478.48,413.851,479.368z"/>
			<path id="XMLID_328_" style="fill:#3D3F3F;" d="M426.618,480.034c0,0.222-0.015,0.489-0.037,0.651h-5.085
				c0.207,1.036,0.932,1.488,1.843,1.488c0.622,0,1.295-0.252,1.814-0.688l1.132,1.243c-0.814,0.748-1.85,1.088-3.057,1.088
				c-2.198,0-3.723-1.495-3.723-3.753c0-2.258,1.48-3.797,3.627-3.797C425.197,476.267,426.611,477.799,426.618,480.034z
				 M421.504,479.368h3.175c-0.178-0.918-0.733-1.436-1.562-1.436C422.207,477.932,421.674,478.48,421.504,479.368z"/>
			<path id="XMLID_325_" style="fill:#3D3F3F;" d="M434.964,480.042c0,2.154-1.495,3.775-3.471,3.775
				c-0.962,0-1.643-0.378-2.109-0.933v3.708h-1.924v-10.133h1.887v0.792c0.466-0.585,1.155-0.984,2.139-0.984
				C433.469,476.267,434.964,477.888,434.964,480.042z M429.287,480.042c0,1.132,0.747,1.976,1.843,1.976
				c1.14,0,1.85-0.881,1.85-1.976c0-1.095-0.711-1.976-1.85-1.976C430.035,478.065,429.287,478.909,429.287,480.042z"/>
			<path id="XMLID_322_" style="fill:#3D3F3F;" d="M438.067,474.113c0,0.696-0.54,1.229-1.236,1.229
				c-0.696,0-1.229-0.533-1.229-1.229c0-0.696,0.533-1.243,1.229-1.243C437.527,472.87,438.067,473.417,438.067,474.113z
				 M437.809,483.631h-1.932v-7.172h1.932V483.631z"/>
			<path id="XMLID_320_" style="fill:#3D3F3F;" d="M441.032,479.013l2.702-2.554h2.368l-3.479,3.375l3.501,3.797h-2.376
				l-2.716-2.901v2.901H439.1v-10.658h1.932V479.013z"/>
		</g>
		<g>
			<path style="fill:#3D3F3F;" d="M309.412,483.566v-1.055c-0.527,0.718-1.391,1.23-2.387,1.23c-1.846,0-3.149-1.406-3.149-3.706
				c0-2.256,1.289-3.721,3.149-3.721c0.952,0,1.816,0.469,2.387,1.245v-3.765h1.099v9.77H309.412z M309.412,481.647v-3.208
				c-0.395-0.615-1.245-1.143-2.124-1.143c-1.421,0-2.27,1.172-2.27,2.739c0,1.567,0.85,2.724,2.27,2.724
				C308.168,482.761,309.017,482.263,309.412,481.647z"/>
			<path style="fill:#3D3F3F;" d="M311.932,480.022c0-2.051,1.465-3.706,3.486-3.706c2.139,0,3.398,1.67,3.398,3.794v0.279h-5.727
				c0.088,1.333,1.026,2.446,2.549,2.446c0.806,0,1.626-0.322,2.182-0.893l0.527,0.718c-0.703,0.703-1.655,1.084-2.812,1.084
				C313.44,483.742,311.932,482.233,311.932,480.022z M315.404,477.224c-1.509,0-2.256,1.274-2.315,2.358h4.643
				C317.718,478.527,317.015,477.224,315.404,477.224z"/>
			<path style="fill:#3D3F3F;" d="M319.607,482.629l0.571-0.791c0.469,0.542,1.362,1.011,2.329,1.011c1.084,0,1.67-0.513,1.67-1.216
				c0-1.714-4.38-0.659-4.38-3.281c0-1.098,0.952-2.036,2.636-2.036c1.201,0,2.051,0.454,2.622,1.025l-0.513,0.762
				c-0.424-0.513-1.201-0.894-2.109-0.894c-0.967,0-1.567,0.483-1.567,1.113c0,1.553,4.38,0.527,4.38,3.281
				c0,1.187-0.952,2.139-2.783,2.139C321.306,483.742,320.325,483.391,319.607,482.629z"/>
			<path style="fill:#3D3F3F;" d="M326.477,474.748c0-0.41,0.337-0.747,0.732-0.747c0.41,0,0.747,0.337,0.747,0.747
				c0,0.41-0.337,0.732-0.747,0.732C326.814,475.48,326.477,475.159,326.477,474.748z M326.667,483.566v-7.075h1.099v7.075H326.667z
				"/>
			<path style="fill:#3D3F3F;" d="M329.582,485.383l0.556-0.82c0.586,0.703,1.289,0.967,2.3,0.967c1.172,0,2.27-0.571,2.27-2.124
				v-1.011c-0.513,0.718-1.377,1.26-2.373,1.26c-1.845,0-3.149-1.377-3.149-3.662c0-2.27,1.289-3.676,3.149-3.676
				c0.952,0,1.802,0.469,2.373,1.245v-1.069h1.099v6.87c0,2.344-1.641,3.076-3.369,3.076
				C331.237,486.437,330.417,486.203,329.582,485.383z M334.709,481.53v-3.091c-0.381-0.615-1.23-1.143-2.109-1.143
				c-1.421,0-2.27,1.128-2.27,2.695c0,1.553,0.849,2.695,2.27,2.695C333.478,482.687,334.328,482.146,334.709,481.53z"/>
			<path style="fill:#3D3F3F;" d="M342.413,483.566v-4.629c0-1.245-0.63-1.641-1.582-1.641c-0.865,0-1.685,0.527-2.095,1.099v5.17
				h-1.099v-7.075h1.099v1.025c0.498-0.586,1.465-1.201,2.519-1.201c1.48,0,2.256,0.747,2.256,2.285v4.966H342.413z"/>
			<path style="fill:#3D3F3F;" d="M344.932,480.022c0-2.051,1.465-3.706,3.486-3.706c2.138,0,3.398,1.67,3.398,3.794v0.279h-5.727
				c0.088,1.333,1.025,2.446,2.549,2.446c0.806,0,1.626-0.322,2.183-0.893l0.527,0.718c-0.703,0.703-1.655,1.084-2.812,1.084
				C346.441,483.742,344.932,482.233,344.932,480.022z M348.404,477.224c-1.509,0-2.256,1.274-2.314,2.358h4.643
				C350.718,478.527,350.015,477.224,348.404,477.224z"/>
			<path style="fill:#3D3F3F;" d="M358.35,483.566v-1.055c-0.527,0.718-1.392,1.23-2.388,1.23c-1.846,0-3.149-1.406-3.149-3.706
				c0-2.256,1.289-3.721,3.149-3.721c0.952,0,1.817,0.469,2.388,1.245v-3.765h1.098v9.77H358.35z M358.35,481.647v-3.208
				c-0.396-0.615-1.245-1.143-2.124-1.143c-1.421,0-2.27,1.172-2.27,2.739c0,1.567,0.849,2.724,2.27,2.724
				C357.105,482.761,357.954,482.263,358.35,481.647z"/>
			<path style="fill:#3D3F3F;" d="M364.692,483.566v-9.77h1.099v3.765c0.572-0.776,1.421-1.245,2.388-1.245
				c1.845,0,3.149,1.465,3.149,3.721c0,2.299-1.304,3.706-3.149,3.706c-0.996,0-1.86-0.513-2.388-1.23v1.055H364.692z
				 M367.9,482.761c1.436,0,2.286-1.157,2.286-2.724c0-1.567-0.85-2.739-2.286-2.739c-0.864,0-1.728,0.527-2.109,1.143v3.208
				C366.171,482.263,367.036,482.761,367.9,482.761z"/>
			<path style="fill:#3D3F3F;" d="M372.529,485.339c0.161,0.073,0.425,0.117,0.601,0.117c0.483,0,0.806-0.161,1.055-0.747
				l0.469-1.069l-2.959-7.148h1.187l2.358,5.801l2.344-5.801h1.201l-3.545,8.51c-0.425,1.025-1.143,1.421-2.08,1.435
				c-0.234,0-0.601-0.044-0.806-0.103L372.529,485.339z"/>
		</g>
	</g>
</g>
</svg>
