<?xml version="1.0" encoding="utf-8"?>
<!-- Generator: Adobe Illustrator 27.5.0, SVG Export Plug-In . SVG Version: 6.00 Build 0)  -->
<svg version="1.1" id="college_outside" xmlns="http://www.w3.org/2000/svg" xmlns:xlink="http://www.w3.org/1999/xlink" x="0px"
	 y="0px" viewBox="0 0 799.9 400" style="enable-background:new 0 0 799.9 400;" xml:space="preserve">
<g>
	<linearGradient id="SVGID_1_" gradientUnits="userSpaceOnUse" x1="399.95" y1="261.625" x2="399.95" y2="-9.094947e-13">
		<stop  offset="0" style="stop-color:#FFFFCC"/>
		<stop  offset="1" style="stop-color:#FFC25C"/>
	</linearGradient>
	<polygon style="fill:url(#SVGID_1_);" points="0,249.991 0,0 799.9,0 799.9,261.625 	"/>
	<path style="opacity:0.5;fill:#FFFFFF;" d="M332.417,110.623H79.877c0,0,16.174-16.243,42.61-12.443
		c26.436,3.799,26.436,3.799,26.436,3.799s-15.258-32.25,9.867-42.993c25.124-10.743,28.623,24.372,28.623,24.372
		s27.743-40.453,57.735-35.909c29.992,4.544,23.744,40.588,23.744,40.588s28.118-2.311,42.489,3.942
		C325.752,98.23,332.417,110.623,332.417,110.623z"/>
	<path style="opacity:0.5;fill:#FFFFFF;" d="M799.9,187.306c0,0-85.95,2.281-132.95,1.238c-47-1.043-94.507-0.794-94.503-5.419
		c0.003-4.625,50.837-3.791,57.837-2.458c7,1.333,70.95-7.694,89.142-5.847c18.192,1.847,32.858,3.271,49.525,3.059
		c16.667-0.212,30.95,0,30.95,0V187.306z"/>
	<path style="opacity:0.5;fill:#FFFFFF;" d="M290.142,210.725c0,0-85.95,2.281-132.95,1.238s-97.654-2.034-94.503-5.419
		c0.942-1.012,50.732-1.908,57.837-2.458c21.962-1.7,71.682-13.235,89.874-11.388c18.192,1.847,32.126,8.811,48.793,8.599
		c16.667-0.212,30.95,0,30.95,0V210.725z"/>
	<path style="opacity:0.5;fill:#FFFFFF;" d="M0,195.685c0,0,235.925,2.592,248.714-2.894c12.79-5.486-36.456-0.679-49.153-2.716
		c-12.697-2.038-20.594-13.937-51.602-15.506C116.95,173,91.45,185.089,87.45,186.295s-22-5.116-47.5-8.705
		C14.45,174,0,181.693,0,181.693V195.685z"/>
	<path style="opacity:0.5;fill:#FFFFFF;" d="M480.547,74.729h258.268c0,0-14.583-7.713-29.083-6.963s-14.5,0.75-14.5,0.75
		s6-30.25-15.75-33.75s-17,17.26-17,17.26s-12.25-29.26-45-24.76s-30.75,27-30.75,27s-21.5-22-48.75-21s-23.191,24.44-23.191,24.44
		s-21.321,0.81-24.065,5.31c-2.744,4.5-2.744,4.5-2.744,4.5S477.112,68.441,480.547,74.729z"/>
	<polygon style="fill:#F39C34;" points="799.9,227.947 0,235.047 0,249.991 799.9,261.625 	"/>
	
		<linearGradient id="SVGID_00000109747555397909892670000000169665606853662118_" gradientUnits="userSpaceOnUse" x1="9.094947e-13" y1="271.8085" x2="799.9" y2="271.8085">
		<stop  offset="0" style="stop-color:#A2C039"/>
		<stop  offset="1" style="stop-color:#F6DB00"/>
	</linearGradient>
	<polygon style="fill:url(#SVGID_00000109747555397909892670000000169665606853662118_);" points="799.9,261.625 0,249.991 
		0,293.626 799.9,274.996 	"/>
	
		<linearGradient id="SVGID_00000029755744777935606290000005042609232944250550_" gradientUnits="userSpaceOnUse" x1="9.094947e-13" y1="314.98" x2="799.9" y2="314.98">
		<stop  offset="0" style="stop-color:#4B7000"/>
		<stop  offset="1" style="stop-color:#7FB039"/>
	</linearGradient>
	<polygon style="fill:url(#SVGID_00000029755744777935606290000005042609232944250550_);" points="799.9,354.964 0,354.964 
		0,293.626 799.9,274.996 	"/>
	<rect x="0" y="354.964" style="fill:#C0967C;" width="799.9" height="45.036"/>
	<polygon style="fill:#F39C34;" points="0,130.813 43.617,146.152 55.617,224.596 73.979,224.596 88.45,167.904 125.408,171.228 
		125.408,188.816 166.254,201.614 676.95,208.837 674.95,174.429 719.425,164.634 728.374,100.985 762.579,91.846 768.95,130.813 
		799.9,142.901 799.9,227.947 0,235.047 	"/>
	<polygon style="fill:#D6B79D;" points="290.729,400 89.617,385 366.221,373 799.9,377.482 799.9,400 	"/>
	<polygon style="opacity:0.4;fill:#8DFF7A;" points="799.9,298.508 638.95,303.435 683.617,346.626 799.9,346.133 	"/>
	<polygon style="opacity:0.58;fill:#1D4F00;" points="84.283,291.663 0,326.972 0,354.964 142.95,354.333 147.958,290.18 	"/>
	<g>
		<polygon style="fill:#66011B;" points="652.461,314.872 653.216,329.639 656.557,329.639 658.292,311.973 		"/>
		<path style="fill:#66011B;" d="M655.376,320.806c0,0,11.724-9.584,12.232-10.219s2.794-4.318,2.794-4.318h2.54
			c0,0-4.953,5.646-6.732,7.269c-1.778,1.622-9.022,9.674-9.022,9.674L655.376,320.806z"/>
		<g>
			
				<linearGradient id="SVGID_00000023276420473408224770000014271345397123287940_" gradientUnits="userSpaceOnUse" x1="653.2158" y1="318.8259" x2="653.2158" y2="227.3354">
				<stop  offset="0" style="stop-color:#498C00"/>
				<stop  offset="1" style="stop-color:#A9D139"/>
			</linearGradient>
			<path style="fill:url(#SVGID_00000023276420473408224770000014271345397123287940_);" d="M697.344,282.337
				c0,0,3.879,12.087-7.43,20.493c-4.009,2.98-8.246,4.405-12.056,4.992c-6.927,1.082-12.414-0.579-12.414-0.579
				s-8.063,6.623-19.113,9.854c-2.584,0.754-5.327,1.326-8.17,1.577c-2.324,0.213-4.717,0.213-7.141-0.069
				c-9.221-1.067-11.104-6.241-10.73-11.043c0.152-2.042,0.716-4.016,1.296-5.586c0.716-1.951,1.456-3.262,1.456-3.262
				s-2.286-0.213-5.571-0.884c-5.716-1.158-14.449-3.704-19.349-8.947c-2.241-2.385-3.681-5.327-3.681-8.947
				c0-5.67,2.462-9.054,5.647-11.058c4.824-3.033,11.309-2.911,13.489-2.766h0.038l0.305,0.023l0.229,0.023l0.183,0.015
				c0,0-5.281-32.534,15.608-37.838c20.897-5.304,30.385,12.224,30.385,12.224s1.715-2.355,4.687-5.03l0.122-0.107
				c0.823-0.739,1.745-1.509,2.751-2.248c4.527-3.338,10.768-6.272,17.825-4.908c14.388,2.774,7.651,21.377,7.651,21.377
				l0.046,0.008c0.008,0,0.031,0.008,0.053,0.008c0.678,0.153,4.717,1.082,8.855,3.308c3.986,2.134,8.071,5.479,9.374,10.456
				C714.469,274.091,697.344,282.337,697.344,282.337z"/>
			<path style="opacity:0.3;fill:#1D4F00;" d="M697.344,282.337c0,0,3.879,12.087-7.43,20.493c-4.009,2.98-8.246,4.405-12.056,4.992
				c-6.927,1.082-12.414-0.579-12.414-0.579s-8.063,6.623-19.113,9.854c-2.584,0.754-5.327,1.326-8.17,1.577
				c-2.324,0.213-4.717,0.213-7.141-0.069c-9.221-1.067-11.104-6.241-10.73-11.043l1.296-5.586c0.716-1.951,1.456-3.262,1.456-3.262
				s-2.286-0.213-5.571-0.884c-5.716-1.158-14.449-3.704-19.349-8.947c-2.241-2.385-3.681-5.327-3.681-8.947
				c0-5.67,2.462-9.054,5.647-11.058c4.824-3.033,11.309-2.911,13.489-2.766h0.038l0.305,0.023l0.229,0.023l0.183,0.015
				c0,0,3.734,11.249,18.976,14.929c15.242,3.681,24.006-6.226,24.006-6.226s17.175,3.73,22.107-13.51
				c6.291-21.989-14.41-25.837-14.41-25.837l0.122-0.107l2.751-2.248c4.527-3.338,10.768-6.272,17.825-4.908
				c14.388,2.774,7.651,21.377,7.651,21.377l0.046,0.008c0.008,0,0.031,0.008,0.053,0.008c0.678,0.153,4.717,1.082,8.855,3.308
				c3.986,2.134,8.071,5.479,9.374,10.456C714.469,274.091,697.344,282.337,697.344,282.337z"/>
			<path style="opacity:0.3;fill:#1D4F00;" d="M697.344,282.337c0,0,3.879,12.087-7.43,20.493
				c-11.302,8.406-24.471,4.413-24.471,4.413s-16.385,13.451-34.424,11.363c-18.039-2.096-7.979-19.891-7.979-19.891
				s-28.601-2.637-28.601-18.778c0-5.67,2.462-9.054,5.647-11.058c-0.038,0.396-1.189,14.282,17.086,18.054
				c18.549,3.818,22.611,1.509,22.611,1.509s-2.286,10.326,5.464,16.103c7.743,5.769,16.987-5.586,16.987-5.586
				s16.667,4.504,25.05-1.974c8.383-6.485,3.925-20.584,3.925-20.584s7.339-7.126,7.743-14.358
				c0.404-7.232-5.594-12.399-5.594-12.399l0.046,0.008c0.915,0.198,15.592,3.445,18.283,13.771
				C714.469,274.091,697.344,282.337,697.344,282.337z"/>
		</g>
	</g>
	<g>
		
			<linearGradient id="SVGID_00000065039744336747631910000005119762943335293841_" gradientUnits="userSpaceOnUse" x1="138.7263" y1="279.7562" x2="138.7263" y2="36.0781">
			<stop  offset="0" style="stop-color:#498C00"/>
			<stop  offset="1" style="stop-color:#A9D139"/>
		</linearGradient>
		<path style="fill:url(#SVGID_00000065039744336747631910000005119762943335293841_);" d="M239.561,146.296
			c0.1,16.98-86.58,133.46-86.58,133.46l-56.6-12.37c0,0-35.93,6.04-51.6-10.9c-4.84-5.23-5.99-9.96-5.27-13.99
			c1.61-9.04,12.6-14.61,12.6-14.61s-26.33-38.14-7.33-55.57s38.67-7.03,38.67-7.03s-0.48-15.57,19.59-18.15
			c14.65-1.88,18.64-0.62,19.73,0.2c-3.74-5.01-31.71-43.73-19.73-67.26c12.84-25.19,47.98-7.46,47.98-7.46s8.23-35.83,34-36.53
			c25.76-0.7,18.84,43.99,18.84,43.99l0.01,0.02c0.47,0.65,15.62,21.67,26.03,40.81c0,0,0,0,0,0.01l0.01,0.03
			c5.4,9.92,9.51,19.33,9.64,25.13C239.561,146.156,239.561,146.226,239.561,146.296z"/>
		<path style="opacity:0.3;fill:#1D4F00;" d="M239.561,146.296c0.1,16.98-86.58,133.46-86.58,133.46l-56.6-12.37
			c0,0-35.93,6.04-51.6-10.9c-4.84-5.23-5.99-9.96-5.27-13.99c1.61-9.04,12.6-14.61,12.6-14.61s26.29,8.49,47.98-8.59
			c21.69-17.08,15.85-44.88,15.85-44.88s18.76,0.42,24.3-22.22s-0.8-32.57-0.8-32.57s29.48-1.51,45.58-18.62
			c16.09-17.12,18.84-20.93,18.84-20.93l0.01,0.02c0.47,0.65,15.62,21.67,26.03,40.81c0,0,0,0,0,0.01l0.01,0.03
			c5.4,9.92,9.51,19.33,9.64,25.13C239.561,146.156,239.561,146.226,239.561,146.296z"/>
		<path style="opacity:0.3;fill:#1D4F00;" d="M239.561,146.296c0.1,16.98-86.58,133.46-86.58,133.46l-56.6-12.37
			c0,0-35.93,6.04-51.6-10.9c-4.84-5.23-5.99-9.96-5.27-13.99c0,0,33.84,20.26,69.05,9.57c35.22-10.68,24.47-51.73,24.47-51.73
			s30.152,10.75,43.139-4.809c19.374-23.212-29.78-54.571-29.78-54.571s43,5.76,61.94-3.15c18.65-8.78,21.48-16.65,21.57-16.89
			l0.01,0.03l9.64,25.13C239.561,146.156,239.561,146.226,239.561,146.296z"/>
	</g>
	<g>
		
			<linearGradient id="SVGID_00000092445256512888350770000011056494331245744546_" gradientUnits="userSpaceOnUse" x1="209.51" y1="363.7689" x2="209.51" y2="118.2433">
			<stop  offset="0" style="stop-color:#FFB361"/>
			<stop  offset="1" style="stop-color:#FF6B54"/>
		</linearGradient>
		<polygon style="fill:url(#SVGID_00000092445256512888350770000011056494331245744546_);" points="276.577,363.769 
			142.443,361.704 159.876,135.624 264.65,118.243 		"/>
		
			<linearGradient id="SVGID_00000023998363669314062390000011468991691419732904_" gradientUnits="userSpaceOnUse" x1="552.9423" y1="363.7689" x2="552.9423" y2="111.3089">
			<stop  offset="0" style="stop-color:#FFB361"/>
			<stop  offset="1" style="stop-color:#FF6B54"/>
		</linearGradient>
		<polygon style="fill:url(#SVGID_00000023998363669314062390000011468991691419732904_);" points="505.241,111.309 
			606.665,139.917 625.174,363.769 480.711,363.769 		"/>
		<path style="fill:#5E132D;" d="M138.726,139.917l60.915-93.461c0,0,138.792,3.09,197.861,5.931
			c66.942,3.221,176.741,6.432,176.741,6.432l50.93,81.097H138.726z"/>
		<polygon style="fill:#9A134A;" points="618.312,128.99 224.696,124.57 215.834,55.395 576.836,62.947 		"/>
		<polygon style="fill:#771332;" points="144.693,332.529 622.258,328.498 625.174,363.769 142.443,361.704 		"/>
		<path style="fill:#FFD3CF;" d="M142.488,139.917l8.762,12.47c0,0,182.146-5.52,247.212-6.235s218.562,2.516,218.562,2.516
			l6.008-8.751H142.488z"/>
		<path style="fill:#FFA19D;" d="M151.25,152.387l7.689,4.94l451.107-4.874l6.979-3.785c0,0-193.928-5.292-268.971-2.516
			C273.01,148.929,151.25,152.387,151.25,152.387z"/>
		
			<linearGradient id="SVGID_00000128467483687899791030000006118900035299977128_" gradientUnits="userSpaceOnUse" x1="377.2867" y1="363.7689" x2="377.2867" y2="111.2595">
			<stop  offset="0" style="stop-color:#FFB361"/>
			<stop  offset="1" style="stop-color:#FF8B59"/>
		</linearGradient>
		<polygon style="fill:url(#SVGID_00000128467483687899791030000006118900035299977128_);" points="283.963,363.769 264.1,111.259 
			490.473,113.807 467.403,363.769 		"/>
		<polygon style="opacity:0.2;fill:#9F011B;" points="488.433,135.907 283.963,190.215 299.668,363.769 283.963,363.769 
			264.1,111.259 490.473,113.807 		"/>
		<polygon style="opacity:0.4;fill:#F9E07A;" points="458.324,363.769 467.403,200.043 310.841,195.429 306.371,363.769 		"/>
		<polygon style="fill:#771332;" points="229.34,106.79 250.693,107.349 379.621,46.456 500.967,111.259 529.901,111.259 
			529.901,104.137 503.388,105.301 379.621,38.198 250.879,103.066 229.34,100.316 		"/>
		<polygon style="fill:#FFBFBB;" points="250.693,107.349 264.1,111.259 490.473,113.807 500.967,111.259 379.621,46.456 		"/>
		<polygon style="opacity:0.32;fill:#9F011B;" points="490.473,110.673 357.022,67.685 279.556,106.79 250.693,107.349 
			379.621,46.456 500.967,111.259 		"/>
		<polygon style="opacity:0.2;fill:#9F011B;" points="485.853,163.866 268.556,167.904 264.65,118.243 489.731,121.843 		"/>
		<polygon style="fill:#FFBFBB;" points="350.801,363.769 345.26,267.141 422.65,268.19 414.081,363.769 425.287,363.769 
			434.845,253.085 333.334,253.085 340.914,363.769 		"/>
		<polygon style="fill:#901341;" points="350.801,363.769 345.26,267.141 422.65,268.19 414.081,363.769 		"/>
		<polygon style="fill:#66011B;" points="405.182,363.769 417.047,273.464 354.097,284.01 357.393,363.769 350.801,363.769 
			345.26,267.141 422.65,268.19 414.081,363.769 		"/>
		<polygon style="fill:#FFD3CF;" points="327.401,260.28 327.401,248.086 437.646,249.898 437.646,260.28 		"/>
		<polygon style="opacity:0.2;fill:#95011B;" points="432.651,278.487 337.715,317.052 340.914,363.769 319.162,363.769 
			326.537,260.219 327.401,248.086 327.401,260.28 434.223,260.28 		"/>
		<polygon style="fill:#66011B;" points="380.858,363.769 382.524,273.268 383.955,275.223 382.524,363.769 		"/>
		<polygon style="fill:#0C5771;" points="412.511,281.089 411.45,290.374 408.6,315.457 388.679,315.457 388.679,281.089 		"/>
		<polygon style="fill:#0C5771;" points="377.283,281.558 377.283,315.457 358.512,315.457 355.864,289.267 355.16,282.307 		"/>
		
			<linearGradient id="SVGID_00000008113453146385824620000000405260091991358085_" gradientUnits="userSpaceOnUse" x1="367.4728" y1="314.1888" x2="367.4728" y2="296.731">
			<stop  offset="0" style="stop-color:#B0FF98"/>
			<stop  offset="1" style="stop-color:#7FFFF2"/>
		</linearGradient>
		<polygon style="opacity:0.5;fill:url(#SVGID_00000008113453146385824620000000405260091991358085_);" points="376.493,314.189 
			375.551,298.214 358.452,296.731 359.722,314.189 		"/>
		
			<linearGradient id="SVGID_00000043417790028820096410000013248736396822585220_" gradientUnits="userSpaceOnUse" x1="399.7124" y1="314.1888" x2="399.7124" y2="300.0829">
			<stop  offset="0" style="stop-color:#B0FF98"/>
			<stop  offset="1" style="stop-color:#7FFFF2"/>
		</linearGradient>
		<polygon style="opacity:0.5;fill:url(#SVGID_00000043417790028820096410000013248736396822585220_);" points="391.658,314.189 
			390.914,300.083 408.511,301.2 405.904,314.189 		"/>
		
			<linearGradient id="SVGID_00000095340118972130734170000015188048312218453663_" gradientUnits="userSpaceOnUse" x1="366.2213" y1="289.692" x2="366.2213" y2="281.5581">
			<stop  offset="0" style="stop-color:#B0FF98"/>
			<stop  offset="1" style="stop-color:#7FFFF2"/>
		</linearGradient>
		<polygon style="opacity:0.2;fill:url(#SVGID_00000095340118972130734170000015188048312218453663_);" points="355.16,282.307 
			377.283,281.558 377.283,289.692 355.864,289.267 		"/>
		
			<linearGradient id="SVGID_00000150795839015492694410000017142177313452831128_" gradientUnits="userSpaceOnUse" x1="400.5951" y1="290.3736" x2="400.5951" y2="281.0888">
			<stop  offset="0" style="stop-color:#B0FF98"/>
			<stop  offset="1" style="stop-color:#7FFFF2"/>
		</linearGradient>
		<polygon style="opacity:0.2;fill:url(#SVGID_00000150795839015492694410000017142177313452831128_);" points="412.511,281.089 
			411.45,290.374 388.679,289.927 388.679,281.089 		"/>
		<polygon style="opacity:0.49;fill:#66011B;" points="351.529,337.512 419.023,287.901 420.66,272.037 351.529,279.599 		"/>
		<polygon style="fill:#FFD3CF;" points="333.334,248.086 384.089,227.179 433.825,249.836 		"/>
		<polygon style="opacity:0.32;fill:#9F011B;" points="424.804,249.678 382.407,231.555 345.26,248.379 361.119,248.873 
			386.887,236.025 420.66,249.836 		"/>
		<polygon style="fill:#FFBFBB;" points="487.772,143.074 280.876,139.917 276.391,114.907 489.731,121.843 		"/>
		<path style="fill:#FFD3CF;" d="M229.34,106.79l3.29,11.918c0,0,98.322-1.862,159.029,0s133.671,4.316,133.671,4.316l4.572-11.765
			L229.34,106.79z"/>
		<polygon style="fill:#FFDBCF;" points="321.102,103.117 381.068,61.261 446.478,103.117 		"/>
		<polygon style="fill:#0C4F71;" points="437.646,100.985 379.621,66.94 330.207,99.342 		"/>
		<polygon style="fill:#FFDBCF;" points="381.068,100.985 377.287,65.823 381.068,65.823 383.061,100.985 		"/>
		
			<linearGradient id="SVGID_00000040572849215373303410000001677943963506425231_" gradientUnits="userSpaceOnUse" x1="358.5218" y1="98.5968" x2="358.5218" y2="80.1315">
			<stop  offset="0" style="stop-color:#B0FF98"/>
			<stop  offset="1" style="stop-color:#7FFFF2"/>
		</linearGradient>
		<polygon style="opacity:0.5;fill:url(#SVGID_00000040572849215373303410000001677943963506425231_);" points="379.621,98.597 
			377.287,83.963 364.098,80.132 337.423,97.433 		"/>
		
			<linearGradient id="SVGID_00000116933595833161205620000002880586788353581983_" gradientUnits="userSpaceOnUse" x1="397.0569" y1="97.2933" x2="397.0569" y2="86.3997">
			<stop  offset="0" style="stop-color:#B0FF98"/>
			<stop  offset="1" style="stop-color:#7FFFF2"/>
		</linearGradient>
		<polygon style="opacity:0.5;fill:url(#SVGID_00000116933595833161205620000002880586788353581983_);" points="383.927,86.4 
			410.187,97.293 385.188,97.293 		"/>
		<polygon style="opacity:0.32;fill:#9F011B;" points="381.068,61.261 371.541,64.519 303.034,107.886 424.614,109.694 
			446.478,103.117 321.102,103.117 		"/>
		<polygon style="opacity:0.4;fill:#42012F;" points="209.51,362.737 264.1,305.927 252.192,207.786 153.261,221.41 
			158.202,157.327 256.727,156.216 276.577,363.769 		"/>
		<polygon style="opacity:0.4;fill:#75011B;" points="609.742,177.132 512.397,215.168 492.424,345.897 622.424,330.51 
			625.174,363.769 485.512,363.769 508.947,153.371 607.685,152.257 		"/>
		<g>
			<polygon style="fill:#66011B;" points="304.04,218.52 300.205,155.207 336.747,155.207 333.535,218.52 			"/>
			<polygon style="fill:#0C5771;" points="305.22,215.168 304.689,157.421 332.466,158.658 332.208,215.168 			"/>
			
				<linearGradient id="SVGID_00000172432584523074404360000006874862163422254755_" gradientUnits="userSpaceOnUse" x1="318.4041" y1="213.4923" x2="318.4041" y2="177.8784">
				<stop  offset="0" style="stop-color:#B0FF98"/>
				<stop  offset="1" style="stop-color:#7FFFF2"/>
			</linearGradient>
			<polygon style="opacity:0.5;fill:url(#SVGID_00000172432584523074404360000006874862163422254755_);" points="306.362,213.492 
				306.149,179.352 330.659,177.878 330.033,213.492 			"/>
			<polygon style="fill:#66011B;" points="302.576,184.024 334.42,185.001 334.42,186.863 302.576,186.248 			"/>
			<polygon style="fill:#FFD3CF;" points="300.205,218.52 301.238,222.617 336.018,222.617 336.747,218.52 			"/>
			<polygon style="fill:#FFD3CF;" points="296.518,149.248 297.698,155.207 338.605,155.207 338.673,151.341 			"/>
			<polygon style="opacity:0.2;fill:#9F011B;" points="334.42,222.617 331.028,227.179 294.527,227.179 294.527,222.617 
				300.205,218.52 301.238,222.617 			"/>
			<polygon style="opacity:0.2;fill:#9F011B;" points="296.518,149.248 292.831,159.303 292.831,165.392 336.548,159.14 
				336.747,155.207 297.698,155.207 			"/>
		</g>
		<g>
			<polygon style="fill:#66011B;" points="172.941,230.717 169.107,167.404 205.648,167.404 202.437,230.717 			"/>
			<polygon style="fill:#0C5771;" points="174.121,227.365 173.59,169.618 201.367,170.855 201.109,227.365 			"/>
			
				<linearGradient id="SVGID_00000132771829625753674270000016933214565840282770_" gradientUnits="userSpaceOnUse" x1="187.3056" y1="225.6895" x2="187.3056" y2="190.0756">
				<stop  offset="0" style="stop-color:#B0FF98"/>
				<stop  offset="1" style="stop-color:#7FFFF2"/>
			</linearGradient>
			<polygon style="opacity:0.5;fill:url(#SVGID_00000132771829625753674270000016933214565840282770_);" points="175.264,225.689 
				175.05,191.549 199.561,190.076 198.934,225.689 			"/>
			<polygon style="fill:#66011B;" points="171.478,196.221 203.321,197.198 203.321,199.061 171.478,198.445 			"/>
			<polygon style="fill:#FFD3CF;" points="169.107,230.717 170.139,234.814 204.919,234.814 205.648,230.717 			"/>
			<polygon style="fill:#FFD3CF;" points="165.42,161.445 166.6,167.404 207.506,167.404 207.574,163.538 			"/>
			<polygon style="opacity:0.2;fill:#9F011B;" points="203.321,234.814 199.929,239.376 163.429,239.376 163.429,234.814 
				169.107,230.717 170.139,234.814 			"/>
			<polygon style="opacity:0.2;fill:#9F011B;" points="165.42,161.445 161.733,171.501 161.733,177.589 205.449,171.337 
				205.648,167.404 166.6,167.404 			"/>
		</g>
		<g>
			<polygon style="fill:#66011B;" points="233.421,227.947 231.05,164.634 267.591,164.634 264.38,227.947 			"/>
			<polygon style="fill:#0C5771;" points="236.064,224.596 235.533,166.848 263.31,168.085 263.052,224.596 			"/>
			
				<linearGradient id="SVGID_00000155828818025588812210000002041921524532917144_" gradientUnits="userSpaceOnUse" x1="249.2486" y1="222.9195" x2="249.2486" y2="187.3056">
				<stop  offset="0" style="stop-color:#B0FF98"/>
				<stop  offset="1" style="stop-color:#7FFFF2"/>
			</linearGradient>
			<polygon style="opacity:0.5;fill:url(#SVGID_00000155828818025588812210000002041921524532917144_);" points="237.207,222.919 
				236.993,188.779 261.504,187.306 260.877,222.919 			"/>
			<polygon style="fill:#66011B;" points="233.421,193.451 265.264,194.428 265.264,196.291 233.421,195.675 			"/>
			<polygon style="fill:#FFD3CF;" points="231.05,227.947 232.082,232.044 266.862,232.044 267.591,227.947 			"/>
			<polygon style="fill:#FFD3CF;" points="227.911,161.445 228.543,164.634 269.449,164.634 269.517,160.768 			"/>
			<polygon style="opacity:0.2;fill:#9F011B;" points="265.264,232.044 261.872,236.606 225.372,236.606 225.372,232.044 
				231.05,227.947 232.082,232.044 			"/>
			<polygon style="opacity:0.2;fill:#9F011B;" points="227.911,161.445 223.676,168.731 223.676,174.82 267.392,168.567 
				267.591,164.634 228.543,164.634 			"/>
		</g>
		<g>
			<polygon style="fill:#66011B;" points="369.371,217.621 366.822,154.308 400.615,154.308 399.705,217.621 			"/>
			<polygon style="fill:#0C5771;" points="370.585,214.269 370.039,156.522 398.605,157.759 398.34,214.269 			"/>
			
				<linearGradient id="SVGID_00000018933582491392649350000002083459891529424013_" gradientUnits="userSpaceOnUse" x1="384.3666" y1="212.5933" x2="384.3666" y2="164.4933">
				<stop  offset="0" style="stop-color:#B0FF98"/>
				<stop  offset="1" style="stop-color:#7FFFF2"/>
			</linearGradient>
			<polygon style="opacity:0.5;fill:url(#SVGID_00000018933582491392649350000002083459891529424013_);" points="371.76,212.593 
				372.696,174.201 396.973,164.493 396.103,212.593 			"/>
			<polygon style="fill:#66011B;" points="368.755,183.151 399.616,184.072 399.479,185.943 368.892,185.368 			"/>
			<polygon style="fill:#FFD3CF;" points="365.428,217.621 365.428,220.568 402.258,221.718 403.008,217.621 			"/>
			<polygon style="fill:#FFD3CF;" points="362.246,151.341 362.85,154.308 404.918,154.308 405.904,149.248 			"/>
			<polygon style="opacity:0.2;fill:#9F011B;" points="400.615,221.718 397.126,226.28 359.589,226.28 359.589,221.718 
				365.428,217.621 365.428,220.568 			"/>
			<polygon style="opacity:0.2;fill:#9F011B;" points="362.246,151.341 357.845,158.404 357.845,164.493 402.803,158.241 
				403.008,154.308 362.85,154.308 			"/>
		</g>
		<g>
			<polygon style="fill:#66011B;" points="427.924,217.621 426.861,154.308 464.441,154.308 461.138,217.621 			"/>
			<polygon style="fill:#0C5771;" points="432.018,214.269 431.472,156.522 460.038,157.759 459.773,214.269 			"/>
			
				<linearGradient id="SVGID_00000010295081956049514660000015427510632429533101_" gradientUnits="userSpaceOnUse" x1="445.6867" y1="212.5933" x2="445.6867" y2="163.8657">
				<stop  offset="0" style="stop-color:#B0FF98"/>
				<stop  offset="1" style="stop-color:#7FFFF2"/>
			</linearGradient>
			<polygon style="opacity:0.5;fill:url(#SVGID_00000010295081956049514660000015427510632429533101_);" points="433.193,212.593 
				433.836,163.866 458.18,176.979 457.536,212.593 			"/>
			<polygon style="fill:#66011B;" points="429.299,183.125 462.048,184.102 462.048,185.964 429.299,185.349 			"/>
			<polygon style="fill:#FFD3CF;" points="426.861,217.621 427.923,221.718 464.066,219.669 464.441,217.621 			"/>
			<polygon style="fill:#FFD3CF;" points="425.177,149.992 424.283,154.308 466.351,154.308 466.421,150.442 			"/>
			<polygon style="opacity:0.2;fill:#9F011B;" points="464.066,219.669 458.559,226.28 421.022,226.28 421.022,221.718 
				426.861,217.621 427.923,221.718 			"/>
			<polygon style="opacity:0.2;fill:#9F011B;" points="425.177,149.992 419.278,158.404 419.278,164.493 464.236,158.241 
				464.441,154.308 424.283,154.308 			"/>
		</g>
		<polygon style="opacity:0.2;fill:#9F011B;" points="534.708,212.593 534.708,217.621 580.296,215.168 580.296,208.837 		"/>
		<polygon style="opacity:0.4;fill:#F9E07A;" points="504.04,221.951 555.343,217.621 554.713,227.205 505.716,226.28 		"/>
		<polygon style="opacity:0.28;fill:#9F011B;" points="193.64,302.746 193.412,309.131 238.066,309.002 239.938,301.101 		"/>
		<polygon style="opacity:0.28;fill:#9F011B;" points="419.831,236.606 420.66,240.307 462.048,240.307 464.066,234.833 		"/>
		<polygon style="opacity:0.2;fill:#9F011B;" points="215.636,311.96 215.456,316.984 261.103,316.16 261.329,309.833 		"/>
		<polygon style="opacity:0.2;fill:#9F011B;" points="445.935,241.966 445.755,246.99 491.401,246.166 491.627,239.839 		"/>
		<polygon style="opacity:0.4;fill:#F9E07A;" points="184.654,320.216 236.078,317.721 235.107,327.276 186.174,324.603 		"/>
		<polygon style="opacity:0.2;fill:#9F011B;" points="609.345,308.427 609.345,315.457 564.281,315.457 564.281,311.942 		"/>
		<polygon style="opacity:0.2;fill:#9F011B;" points="329.839,291.229 329.839,296.023 299.109,296.023 299.109,293.626 		"/>
		<polygon style="opacity:0.4;fill:#F9E07A;" points="551.246,303.435 551.246,308.427 590.351,308.427 592.027,303.435 		"/>
		<polygon style="opacity:0.4;fill:#F9E07A;" points="278.718,283.957 278.718,292.87 314.474,290.293 314.474,285.318 		"/>
		<g>
			<polygon style="fill:#66011B;" points="175.766,318.313 171.932,255 208.474,255 205.262,318.313 			"/>
			<polygon style="fill:#0C5771;" points="176.946,314.961 176.416,257.214 204.193,258.451 203.935,314.961 			"/>
			
				<linearGradient id="SVGID_00000141417857529839001770000002416839784875746999_" gradientUnits="userSpaceOnUse" x1="190.1308" y1="313.2854" x2="190.1308" y2="277.6715">
				<stop  offset="0" style="stop-color:#B0FF98"/>
				<stop  offset="1" style="stop-color:#7FFFF2"/>
			</linearGradient>
			<polygon style="opacity:0.5;fill:url(#SVGID_00000141417857529839001770000002416839784875746999_);" points="178.089,313.285 
				177.876,279.145 202.386,277.672 201.759,313.285 			"/>
			<polygon style="fill:#66011B;" points="174.303,283.817 206.147,281.874 206.147,284.265 174.303,286.041 			"/>
			<polygon style="fill:#FFD3CF;" points="171.932,318.313 172.964,322.41 207.745,322.41 208.474,318.313 			"/>
			<polygon style="fill:#FFD3CF;" points="168.835,252.02 169.425,255 210.331,255 210.399,251.134 			"/>
			<polygon style="opacity:0.2;fill:#9F011B;" points="206.147,322.41 202.755,326.972 166.254,326.972 166.254,322.41 
				171.932,318.313 172.964,322.41 			"/>
			<polygon style="opacity:0.2;fill:#9F011B;" points="168.835,252.02 164.558,259.096 164.558,265.185 208.274,258.933 
				208.474,255 169.425,255 			"/>
		</g>
		<g>
			<polygon style="fill:#66011B;" points="237.536,318.952 234.981,255.639 269.582,255.639 267.032,318.952 			"/>
			<polygon style="fill:#0C5771;" points="238.716,315.6 238.185,257.853 265.962,259.09 265.704,315.6 			"/>
			
				<linearGradient id="SVGID_00000011004835185700338030000003932314446367802035_" gradientUnits="userSpaceOnUse" x1="252.0073" y1="313.9242" x2="252.0073" y2="271.4987">
				<stop  offset="0" style="stop-color:#B0FF98"/>
				<stop  offset="1" style="stop-color:#7FFFF2"/>
			</linearGradient>
			<polygon style="opacity:0.5;fill:url(#SVGID_00000011004835185700338030000003932314446367802035_);" points="239.859,313.924 
				239.938,271.499 264.156,278.31 263.529,313.924 			"/>
			<polygon style="fill:#66011B;" points="237.468,284.434 267.917,283.957 267.917,286.656 236.866,286.679 			"/>
			<polygon style="fill:#FFD3CF;" points="233.702,318.952 234.218,321 269.514,323.049 270.243,318.952 			"/>
			<polygon style="fill:#FFD3CF;" points="230.605,252.659 231.195,255.639 272.101,255.639 272.169,251.773 			"/>
			<polygon style="opacity:0.2;fill:#9F011B;" points="267.917,323.049 264.525,327.611 228.024,327.611 228.024,323.049 
				233.702,318.952 234.218,321 			"/>
			<polygon style="opacity:0.2;fill:#9F011B;" points="230.605,252.659 226.328,259.735 226.328,265.824 270.044,259.572 
				270.243,255.639 231.195,255.639 			"/>
		</g>
		<g>
			<polygon style="fill:#FFD3CF;" points="253.115,118.447 276.577,363.769 290.729,363.769 283.963,116.846 			"/>
			<polygon style="opacity:0.32;fill:#9F011B;" points="257.032,118.243 279.044,363.769 280.72,363.769 264.65,118.243 			"/>
			<polygon style="opacity:0.32;fill:#9F011B;" points="271.922,118.243 285.469,363.769 287.424,363.769 278.533,118.099 			"/>
			<polygon style="opacity:0.32;fill:#9F011B;" points="261.967,211.008 285.919,188.23 283.997,118.099 253.115,118.447 			"/>
		</g>
		<polygon style="opacity:0.4;fill:#59013E;" points="156.213,183.125 252.074,198.492 270.243,363.769 276.577,363.769 
			256.727,156.216 158.202,157.327 		"/>
		<g>
			<polygon style="fill:#66011B;" points="497.589,310.144 493.755,246.831 530.297,246.831 527.085,310.144 			"/>
			<polygon style="fill:#0C5771;" points="498.769,306.792 498.239,249.045 526.016,250.282 525.758,306.792 			"/>
			
				<linearGradient id="SVGID_00000106143746154384009300000008385876199163813284_" gradientUnits="userSpaceOnUse" x1="511.9537" y1="305.1164" x2="511.9537" y2="269.5025">
				<stop  offset="0" style="stop-color:#B0FF98"/>
				<stop  offset="1" style="stop-color:#7FFFF2"/>
			</linearGradient>
			<polygon style="opacity:0.5;fill:url(#SVGID_00000106143746154384009300000008385876199163813284_);" points="499.912,305.116 
				499.698,270.975 524.209,269.503 523.582,305.116 			"/>
			<polygon style="fill:#66011B;" points="496.126,275.648 527.97,276.625 527.97,278.487 496.126,277.872 			"/>
			<polygon style="fill:#FFD3CF;" points="493.755,310.144 494.787,314.241 529.568,314.241 530.297,310.144 			"/>
			<polygon style="fill:#FFD3CF;" points="491.75,243.415 491.248,246.831 532.154,246.831 532.222,242.965 			"/>
			<polygon style="opacity:0.2;fill:#9F011B;" points="527.97,314.241 524.578,318.803 488.077,318.803 488.077,314.241 
				493.755,310.144 494.787,314.241 			"/>
			<polygon style="opacity:0.2;fill:#9F011B;" points="491.75,243.415 486.381,250.927 486.381,257.016 530.097,250.764 
				530.297,246.831 491.248,246.831 			"/>
		</g>
		<g>
			<polygon style="fill:#66011B;" points="561.716,309.695 559.167,246.381 592.959,246.381 592.049,309.695 			"/>
			<polygon style="fill:#0C5771;" points="562.93,306.343 562.384,248.596 590.95,249.832 590.685,306.343 			"/>
			
				<linearGradient id="SVGID_00000116198981318081401020000013501009463951284139_" gradientUnits="userSpaceOnUse" x1="576.6563" y1="304.6669" x2="576.6563" y2="262.6783">
				<stop  offset="0" style="stop-color:#B0FF98"/>
				<stop  offset="1" style="stop-color:#7FFFF2"/>
			</linearGradient>
			<polygon style="opacity:0.5;fill:url(#SVGID_00000116198981318081401020000013501009463951284139_);" points="564.105,304.667 
				565.041,266.274 589.207,262.678 588.448,304.667 			"/>
			<polygon style="fill:#66011B;" points="561.1,275.225 591.961,276.146 591.824,278.017 561.237,277.441 			"/>
			<polygon style="fill:#FFD3CF;" points="557.773,309.695 557.773,312.642 594.603,313.792 595.353,309.695 			"/>
			<polygon style="fill:#FFD3CF;" points="554.591,243.415 555.195,246.381 597.263,246.381 598.249,241.321 			"/>
			<polygon style="opacity:0.2;fill:#9F011B;" points="592.959,313.792 589.471,318.354 551.934,318.354 551.934,313.792 
				557.773,309.695 557.773,312.642 			"/>
			<polygon style="opacity:0.2;fill:#9F011B;" points="554.591,243.415 550.19,250.478 550.19,256.567 595.147,250.315 
				595.353,246.381 555.195,246.381 			"/>
		</g>
		<polygon style="opacity:0.28;fill:#9F011B;" points="512.397,201.761 512.397,210.559 557.019,208.837 555.343,205.299 		"/>
		<g>
			<polygon style="fill:#66011B;" points="497.697,224.355 499.072,161.042 534.214,161.042 530.911,224.355 			"/>
			<polygon style="fill:#0C5771;" points="501.791,221.004 501.245,163.256 529.811,164.493 529.546,221.004 			"/>
			
				<linearGradient id="SVGID_00000094575710125629662330000010705180860646136721_" gradientUnits="userSpaceOnUse" x1="515.4598" y1="219.3276" x2="515.4598" y2="170.6">
				<stop  offset="0" style="stop-color:#B0FF98"/>
				<stop  offset="1" style="stop-color:#7FFFF2"/>
			</linearGradient>
			<polygon style="opacity:0.5;fill:url(#SVGID_00000094575710125629662330000010705180860646136721_);" points="502.966,219.328 
				503.61,170.6 527.953,183.714 527.309,219.328 			"/>
			<polygon style="fill:#66011B;" points="499.072,189.859 531.821,190.837 531.821,192.699 499.072,192.083 			"/>
			<polygon style="fill:#FFD3CF;" points="496.634,224.355 497.696,228.452 533.839,226.404 534.214,224.355 			"/>
			<polygon style="fill:#FFD3CF;" points="494.951,156.727 494.056,161.042 536.124,161.042 536.194,157.176 			"/>
			<polygon style="opacity:0.2;fill:#9F011B;" points="533.839,226.404 528.333,233.014 490.795,233.014 490.795,228.452 
				496.634,224.355 497.696,228.452 			"/>
			<polygon style="opacity:0.2;fill:#9F011B;" points="494.951,156.727 489.051,165.139 489.051,171.228 534.009,164.975 
				534.214,161.042 494.056,161.042 			"/>
		</g>
		<g>
			<polygon style="fill:#66011B;" points="559.181,224.449 555.648,161.135 593.228,161.135 589.925,224.449 			"/>
			<polygon style="fill:#0C5771;" points="560.824,223.172 560.259,163.349 588.825,164.586 588.554,222.413 			"/>
			
				<linearGradient id="SVGID_00000047046720675198601560000016877344230586669199_" gradientUnits="userSpaceOnUse" x1="574.4738" y1="219.4207" x2="574.4738" y2="183.8068">
				<stop  offset="0" style="stop-color:#B0FF98"/>
				<stop  offset="1" style="stop-color:#7FFFF2"/>
			</linearGradient>
			<polygon style="opacity:0.5;fill:url(#SVGID_00000047046720675198601560000016877344230586669199_);" points="561.98,219.421 
				562.441,184.544 586.967,183.807 586.323,219.421 			"/>
			<polygon style="fill:#66011B;" points="558.086,189.952 590.835,190.93 590.835,192.792 558.086,192.176 			"/>
			<polygon style="fill:#FFD3CF;" points="555.648,224.449 556.71,228.545 592.653,227.458 593.228,224.449 			"/>
			<polygon style="fill:#FFD3CF;" points="553.965,156.82 553.07,161.135 595.138,161.135 595.208,157.269 			"/>
			<polygon style="opacity:0.2;fill:#9F011B;" points="592.653,227.458 587.346,233.108 549.809,233.108 549.809,228.545 
				555.648,224.449 556.71,228.545 			"/>
			<polygon style="opacity:0.2;fill:#9F011B;" points="553.965,156.82 548.065,165.232 548.065,171.321 593.023,165.068 
				593.228,161.135 553.07,161.135 			"/>
		</g>
		<g>
			<polygon style="fill:#FFD3CF;" points="512.397,122.391 485.512,363.769 467.403,363.769 487.751,121.739 			"/>
			<polygon style="opacity:0.32;fill:#9F011B;" points="472.104,363.769 489.731,121.843 495.452,121.943 472.849,363.769 			"/>
			<polygon style="opacity:0.32;fill:#9F011B;" points="477.69,363.769 505.165,122.352 509.35,122.491 479.599,363.769 			"/>
			<polygon style="opacity:0.32;fill:#9F011B;" points="512.397,122.391 487.751,121.739 481.852,191.897 506.999,170.857 			"/>
		</g>
		<polygon style="opacity:0.4;fill:#59013E;" points="608.228,166.938 512.397,187.274 489.9,363.769 485.512,363.769 
			508.947,153.371 607.685,152.257 		"/>
		<polygon style="fill:#FFD3CF;" points="240.824,118.569 245.318,126.715 290.729,126.715 298.737,116.846 		"/>
		<polygon style="fill:#FFD3CF;" points="478.808,120.757 481.852,128.99 518.746,129.918 522.381,121.749 		"/>
		<polygon style="opacity:0.32;fill:#9F011B;" points="472.104,142.835 453.482,127.181 321.102,125.653 314.789,140.434 
			284.597,139.974 284.597,126.715 290.729,126.715 298.737,116.846 478.808,120.757 481.852,128.99 487.13,129.123 
			485.957,143.074 		"/>
		<polygon style="opacity:0.32;fill:#9F011B;" points="240.824,118.569 298.737,116.846 294.733,121.781 247.48,123.024 
			248.714,126.715 245.318,126.715 		"/>
		<polygon style="opacity:0.32;fill:#9F011B;" points="521.865,122.908 478.808,120.757 481.852,128.99 491.659,129.237 
			489.051,123.736 520.784,125.337 		"/>
		<polygon style="fill:#D6A59D;" points="267.917,347.754 496.126,346.133 493.755,363.795 267.917,362.241 		"/>
		<polygon style="fill:#D6A59D;" points="632.25,360.417 133.097,357.438 138.726,368.238 628.898,365.445 		"/>
		<path style="fill:#FFD3CF;" d="M268.876,351.33c0,0,97.178-0.149,122.038,0c24.86,0.149,105.212-2.086,105.212-2.086v-3.111
			l-228.209,1.621L268.876,351.33z"/>
		<path style="fill:#FFD3CF;" d="M133.097,357.438l2.814,5.4c0,0,431.761-1.21,459.441,0c27.68,1.21,35.283,0,35.283,0l1.614-2.421
			L133.097,357.438z"/>
		<polygon style="opacity:0.2;fill:#81011B;" points="454.972,346.133 475.934,142.901 485.957,143.074 469.013,346.326 		"/>
		<polygon style="fill:#FFD3CF;" points="272.169,347.724 271.922,326.972 290.915,326.972 292.733,347.578 		"/>
		<polygon style="fill:#FFD3CF;" points="467.403,346.304 469.105,315.775 492.178,318.151 491.248,346.133 		"/>
		<polygon style="opacity:0.27;fill:#9F011B;" points="468.814,321 488.077,321 483.778,346.133 467.403,346.304 		"/>
		<polygon style="opacity:0.27;fill:#9F011B;" points="271.922,329.691 286.586,331.088 287.424,347.724 272.169,347.724 		"/>
		<polygon style="fill:#CC524C;" points="329.269,260.187 332.145,279.135 432.288,277.672 436.828,260.187 		"/>
		<polygon style="fill:#F9E07A;" points="334.145,277.652 332.417,261.783 433.934,263.267 431.493,275.601 		"/>
		<polygon style="fill:#FFDDCF;" points="422.583,346.626 431.472,281.558 432.427,281.089 426.767,346.626 		"/>
		<polygon style="opacity:0.2;fill:#95011B;" points="435.102,266.833 354.094,268.56 333.604,279.135 332.145,279.135 
			329.269,260.187 436.828,260.187 		"/>
	</g>
	<polygon style="fill:#F39C34;" points="696.283,171.321 698.283,118.243 699.95,118.243 698.117,171.321 	"/>
	<polygon style="fill:#F39C34;" points="682.45,132.5 713.95,126.25 713.95,127.375 685.2,132.5 	"/>
	<polygon style="fill:#F39C34;" points="686.173,134.125 713.95,130.813 713.95,132.469 686.173,135.5 	"/>
	<polygon style="fill:#F39C34;" points="687.45,137.875 713.95,134.25 712.7,135.5 687.45,138.75 	"/>
	<polygon style="fill:#F39C34;" points="741.7,99.5 744.95,57.75 745.95,57.75 744.825,99.5 	"/>
	<polygon style="opacity:0.3;fill:#1D4F00;" points="653.177,328.873 622.424,330.51 623.685,345.767 656.557,329.639 
		653.216,329.639 	"/>
	<g>
		<path style="fill:#5E132D;" d="M350.919,269.955l-4.22,0.045c-0.03-0.08-0.088-0.204-0.174-0.371
			c-0.086-0.166-0.21-0.333-0.372-0.5c-0.162-0.166-0.367-0.311-0.615-0.432c-0.248-0.121-0.544-0.182-0.888-0.182
			c-0.375,0-0.698,0.061-0.971,0.182c-0.273,0.121-0.501,0.277-0.683,0.47c-0.182,0.192-0.316,0.409-0.402,0.651
			c-0.086,0.242-0.129,0.485-0.129,0.728c0,0.252,0.038,0.515,0.114,0.788c0.076,0.272,0.192,0.519,0.349,0.742
			c0.157,0.222,0.362,0.406,0.615,0.553c0.253,0.146,0.561,0.22,0.926,0.22c0.374,0,0.688-0.05,0.941-0.15
			c0.253-0.1,0.465-0.223,0.638-0.368c0.172-0.145,0.309-0.298,0.41-0.458c0.101-0.16,0.182-0.305,0.243-0.436l4.038-0.075
			l-0.167,2.808l-1.806,0.016l-0.167-1.473c-0.212,0.304-0.478,0.566-0.797,0.789c-0.319,0.223-0.665,0.405-1.039,0.547
			c-0.375,0.142-0.762,0.247-1.161,0.318c-0.4,0.07-0.792,0.106-1.176,0.106c-0.395,0-0.805-0.036-1.229-0.106
			c-0.425-0.071-0.845-0.188-1.26-0.349c-0.415-0.162-0.81-0.372-1.184-0.63c-0.374-0.259-0.706-0.577-0.994-0.957
			c-0.289-0.379-0.516-0.824-0.683-1.335s-0.251-1.101-0.251-1.769c0-0.647,0.081-1.222,0.243-1.723
			c0.162-0.501,0.375-0.934,0.638-1.298c0.263-0.364,0.562-0.67,0.896-0.918c0.334-0.248,0.673-0.448,1.017-0.6
			c0.344-0.151,0.676-0.261,0.994-0.326c0.319-0.065,0.6-0.099,0.842-0.099c0.739,0,1.341,0.081,1.806,0.243
			c0.465,0.161,0.83,0.339,1.093,0.531c0.304,0.223,0.526,0.476,0.668,0.759v-1.427l4.356-0.03L350.919,269.955z"/>
		<path style="fill:#5E132D;" d="M364.867,269.16c0,0.698-0.104,1.315-0.311,1.852c-0.208,0.537-0.483,1.005-0.827,1.404
			c-0.344,0.399-0.739,0.733-1.184,1.002c-0.445,0.267-0.905,0.483-1.381,0.645c-0.476,0.162-0.954,0.278-1.435,0.35
			c-0.48,0.07-0.923,0.105-1.328,0.105c-0.405,0-0.84-0.032-1.306-0.099c-0.465-0.065-0.926-0.177-1.381-0.333
			c-0.456-0.157-0.896-0.367-1.321-0.63c-0.425-0.264-0.799-0.598-1.123-1.002c-0.324-0.405-0.582-0.886-0.774-1.442
			c-0.192-0.556-0.289-1.204-0.289-1.942c0-0.738,0.106-1.371,0.319-1.897c0.212-0.525,0.491-0.972,0.835-1.336
			c0.344-0.364,0.733-0.654,1.169-0.872c0.435-0.218,0.88-0.388,1.335-0.509c0.456-0.121,0.898-0.199,1.328-0.235
			c0.43-0.035,0.807-0.053,1.131-0.053c0.364,0,0.776,0.025,1.237,0.076c0.461,0.051,0.934,0.143,1.419,0.28
			c0.485,0.137,0.961,0.324,1.427,0.562c0.465,0.238,0.88,0.542,1.245,0.911c0.364,0.369,0.657,0.814,0.88,1.335
			C364.756,267.853,364.867,268.462,364.867,269.16z M361.164,270.42c0-0.708-0.233-1.252-0.698-1.632
			c-0.465-0.379-1.133-0.568-2.003-0.568c-0.415,0-0.782,0.061-1.101,0.182c-0.319,0.121-0.587,0.286-0.804,0.493
			c-0.218,0.208-0.385,0.448-0.501,0.721c-0.116,0.273-0.174,0.557-0.174,0.851c0,0.304,0.063,0.6,0.19,0.888
			c0.126,0.288,0.306,0.546,0.539,0.774c0.232,0.228,0.508,0.412,0.827,0.554c0.318,0.142,0.675,0.212,1.07,0.212
			c0.384,0,0.739-0.061,1.063-0.182c0.324-0.121,0.604-0.293,0.842-0.516c0.238-0.223,0.422-0.486,0.554-0.79
			C361.098,271.103,361.164,270.774,361.164,270.42z"/>
		<path style="fill:#5E132D;" d="M376.553,274.336l-11.08-0.106v-1.502l1.654-0.076l-0.076-4.099l-1.579-0.045l-0.228-4.022
			l7.24-0.061l-0.349,4.189l-1.579,0.045l0.076,3.825l2.398-0.046l0.759-3.339l3.021-0.106L376.553,274.336z"/>
		<path style="fill:#5E132D;" d="M388.423,274.336l-11.08-0.106v-1.502l1.654-0.076l-0.076-4.099l-1.579-0.045l-0.228-4.022
			l7.24-0.061l-0.349,4.189l-1.579,0.045l0.076,3.825l2.398-0.046l0.759-3.339l3.021-0.106L388.423,274.336z"/>
		<path style="fill:#5E132D;" d="M400.807,269.965h-2.671l-0.091-1.427l-3.901,0.046v1.365l2.125-0.03l-0.03,1.518l-2.186,0.092
			l0.03,1.274l3.901-0.045l0.121-1.427l2.52-0.137v2.929l-11.277,0.076l-0.03-1.503h1.411l-0.197-4.112h-1.26l-0.136-4.174
			l11.869-0.046L400.807,269.965z"/>
		<path style="fill:#5E132D;" d="M413.51,268.508c-0.85-0.03-1.643-0.065-2.383-0.106c-0.313-0.01-0.632-0.022-0.956-0.038
			c-0.323-0.015-0.632-0.03-0.926-0.045c-0.293-0.016-0.561-0.025-0.805-0.031c-0.242-0.005-0.435-0.007-0.576-0.007
			c-0.294,0-0.574,0.04-0.843,0.121c-0.268,0.081-0.508,0.205-0.721,0.372c-0.213,0.167-0.382,0.382-0.509,0.645
			c-0.126,0.264-0.189,0.572-0.189,0.926c0,0.364,0.059,0.696,0.175,0.994c0.116,0.299,0.275,0.552,0.478,0.76
			c0.203,0.207,0.44,0.369,0.714,0.485c0.274,0.116,0.566,0.175,0.88,0.175s0.609-0.046,0.889-0.137
			c0.277-0.092,0.521-0.205,0.728-0.342c0.207-0.137,0.371-0.286,0.493-0.447c0.121-0.162,0.187-0.314,0.197-0.456l-2.11,0.06
			l-0.015-1.518l5.768-0.258l-0.213,4.675c-0.404,0-0.768-0.005-1.093-0.016c-0.273-0.01-0.523-0.02-0.751-0.03
			c-0.228-0.01-0.342-0.025-0.342-0.045c0-0.02,0.003-0.14,0.008-0.357c0.005-0.217,0.013-0.452,0.022-0.705l0.03-1.002
			c-0.151,0.253-0.344,0.504-0.576,0.751c-0.233,0.248-0.514,0.469-0.843,0.66c-0.329,0.192-0.719,0.347-1.169,0.463
			c-0.45,0.116-0.969,0.175-1.556,0.175c-0.799,0-1.523-0.116-2.17-0.349c-0.647-0.233-1.199-0.569-1.654-1.01
			c-0.455-0.44-0.808-0.974-1.055-1.602c-0.248-0.627-0.372-1.34-0.372-2.14c0-0.799,0.139-1.503,0.417-2.109
			c0.278-0.607,0.663-1.116,1.153-1.525c0.491-0.41,1.067-0.721,1.731-0.934c0.663-0.213,1.374-0.318,2.133-0.318l6.314-0.031
			L413.51,268.508z"/>
		<path style="fill:#5E132D;" d="M426.549,269.965h-2.672l-0.091-1.427l-3.9,0.046v1.365l2.125-0.03l-0.031,1.518l-2.185,0.092
			l0.031,1.274l3.9-0.045l0.121-1.427l2.52-0.137v2.929l-11.277,0.076l-0.03-1.503h1.412l-0.197-4.112h-1.26l-0.137-4.174
			l11.869-0.046L426.549,269.965z"/>
	</g>
</g>
</svg>
