<?xml version="1.0" encoding="utf-8"?>
<!-- Generator: Adobe Illustrator 27.5.0, SVG Export Plug-In . SVG Version: 6.00 Build 0)  -->
<svg version="1.1" id="Layer_1" xmlns="http://www.w3.org/2000/svg" xmlns:xlink="http://www.w3.org/1999/xlink" x="0px" y="0px"
	 viewBox="0 0 2600 2000" style="enable-background:new 0 0 2600 2000;" xml:space="preserve">
<rect x="0" y="0" style="fill:#FFFFFF;" width="2600" height="2000"/>
<g>
	<g>
		<g>
			<g>
				<path style="fill:#355389;" d="M1502.888,1780.878c0,0,186.113-91.767,218.119-139.629
					c32.006-47.861-15.043-50.573-15.043-50.573s83.053-80.774,71.368-114.78c-11.685-34.004-54.708-2.817-54.708-2.817
					s53.402-118.878,28.223-130.828c-46.901-22.259-112.696,105.646-112.696,105.646s14.14-55.564-18.157-53.759
					c-48.706,2.724-46.694,128.413-46.694,128.413s-5.501-48.192-34.857-32.538
					C1485.771,1518.101,1502.888,1780.878,1502.888,1780.878z"/>
			</g>
			<path style="fill:#466EB6;" d="M1527.844,1470.571c22.924-12.721,45.756,24.46,45.756,24.46s-2.313-98.17,46.394-100.894
				c32.297-1.806,18.157,53.758,18.157,53.758s65.795-127.904,112.696-105.646l-248.174,436.586
				C1500.92,1748.347,1482.432,1495.771,1527.844,1470.571z"/>
		</g>
		<g>
			<g>
				<path style="fill:#355389;" d="M1507.697,1782.015c0,0,152.216,18.905,191.627,2.058c39.411-16.847,11.167-37.657,11.167-37.657
					s84.626-16.634,91.154-42.592c6.529-25.958-32.508-23.89-32.508-23.89s81.145-52.547,70.295-70.232
					c-20.209-32.941-113.221,20.102-113.221,20.102s31.396-28.911,10.52-40.908c-31.487-18.093-81.305,61.122-81.305,61.122
					s3.094-19.524-21.578-21.689C1589.582,1624.444,1507.697,1782.015,1507.697,1782.015z"/>
			</g>
			<path style="fill:#466EB6;" d="M1632.851,1614.14c24.671,2.164,22.576,35.877,22.576,35.877s50.718-93.9,82.205-75.807
				c20.878,11.996-3.824,51.398-3.824,51.398s85.416-48.849,105.625-15.907l-332.197,171.47
				C1518.53,1761.442,1591.502,1610.512,1632.851,1614.14z"/>
		</g>
	</g>
	<g>
		<g>
			<g>
				<path style="fill:#355389;" d="M1109.813,1776.079c0,0-186.112-91.766-218.119-139.627
					c-32.006-47.862,15.043-50.573,15.043-50.573s-83.054-80.775-71.369-114.78c11.686-34.005,55.289-1.512,55.289-1.512
					s-53.983-120.184-28.802-132.135c46.901-22.259,112.695,105.646,112.695,105.646s-14.14-55.564,18.157-53.758
					c48.707,2.723,46.694,128.413,46.694,128.413s5.501-48.192,34.857-32.538
					C1126.931,1513.303,1109.813,1776.079,1109.813,1776.079z"/>
			</g>
			<path style="fill:#466EB6;" d="M1084.857,1465.774c-22.924-12.721-45.756,24.46-45.756,24.46s2.313-98.171-46.394-100.894
				c-32.297-1.807-18.157,53.758-18.157,53.758s-65.794-127.905-112.695-105.646l248.172,436.585
				C1111.781,1743.548,1130.27,1490.974,1084.857,1465.774z"/>
		</g>
		<g>
			<g>
				<path style="fill:#355389;" d="M1105.004,1777.218c0,0-152.215,18.904-191.627,2.058
					c-39.412-16.849-11.167-37.658-11.167-37.658s-84.626-16.634-91.155-42.592c-6.529-25.958,33.871-23.409,33.871-23.409
					s-82.507-53.027-71.657-70.713c20.209-32.941,113.221,20.103,113.221,20.103s-31.397-28.911-10.519-40.909
					c31.486-18.093,81.305,61.122,81.305,61.122s-3.095-19.524,21.577-21.688
					C1023.119,1619.646,1105.004,1777.218,1105.004,1777.218z"/>
			</g>
			<path style="fill:#466EB6;" d="M976.255,1597.084c-24.672,2.165-24.286,26.131-24.286,26.131s-45.413-71.896-76.899-53.803
				c-20.879,11.997,3.823,51.399,3.823,51.399s-85.415-48.85-105.625-15.908l332.198,171.471
				C1094.171,1756.645,1017.604,1593.456,976.255,1597.084z"/>
		</g>
	</g>
	<g>
		<path style="fill:#13375B;" d="M1993.822,1330.133c4.579-11.021,9.237-22.063,21.117-27.644c9.615-4.516,19.66-2.816,28.203,3.608
			c24.206,18.203,3.114,38.259,30.67,72.776c8.562,10.726,18.925,19.386,24.056,31.954c7.181,17.593-1.372,26.042-15.08,34.468
			c-65.588,40.314-99.97-42.461-98.734-61.395C1984.972,1369.814,1990.875,1337.226,1993.822,1330.133z"/>
		<path style="fill:#F7A491;" d="M1954.334,1697.196c3.234,14.627,8.324,27.424,9.011,28.926c0.33,0.722,3.345,3.299,3.705,4.037
			c-0.947,18.009-12.021,29.068-22.5,37.043c2.017-9.135,6.846-19.702,6.107-21.692c-1.178-3.169-5.835-17.656-15.314-35.751
			C1944.249,1708.442,1947.243,1702.899,1954.334,1697.196z"/>
		<path style="fill:#355389;" d="M1994.814,1483.308l55.835,42.41c0,0-27.646,26.598-38.018,36.484
			c-10.373,9.886-74.355,55.921-75.26,58.184c-0.67,1.68,14.558,54.603,24.379,82.853c-5.9,6.034-18.898,11.945-26.595,13.896
			c-19.356-36.943-43.145-99.979-43.145-108.539C1892.012,1594.654,1994.814,1483.308,1994.814,1483.308z"/>
		<path style="fill:#F7A491;" d="M2151.444,1567.916c-1.826,1.779-13.948,25.391-18.56,38.03
			c-6.752-4.251-10.835-9.316-18.378-12.177c5.95-8.612,17.557-29.335,18.51-34.267c2.264-11.701,4.92-13.426,4.92-13.426
			s39.227,13.271,41.84,16.99S2158.777,1560.766,2151.444,1567.916z"/>
		<path style="fill:#3C8F7C;" d="M2132.56,1562.1c-3.043,0.008,0.263-13.747,0.961-16.915c0.785-3.564,2.85-4.633,3.363-4.76
			c1.391-0.344,44.986,14.405,52.353,19.702c0.497,0.358,1.394,1.493,1.53,1.749c4.034,7.526-31.906,8.957-37.078,5.668
			C2149.089,1564.618,2146.249,1562.063,2132.56,1562.1z"/>
		<path style="fill:#466EB6;" d="M1982.886,1495.83c0,0,48.732-19.689,48.74-19.693c-0.194,0.086,0.295,1.982,0.332,2.13
			c4.574,17.797,28.964,10.934,39.027,41.842c7.111,21.84,17.526,103.522,17.526,103.522s7.382-14.042,30.312-39.877
			c1.777-2.001,24.369,13.515,24.369,13.515c-16.8,44.537-58.057,80.731-63.642,78.169
			c-37.738-17.314-83.069-153.929-83.011-153.918C1992.25,1513.163,1982.886,1495.83,1982.886,1495.83z"/>
		<path style="fill:#F7A491;" d="M1981.086,1352.061c0,0-22.856-36.19-26.833-48.226c-3.976-12.033-0.032-69.377,0.345-73.451
			c0.377-4.075,14.194-15.215,12.016-18.418c-2.177-3.203-21.247-5.814-24.448-5.189c-3.199,0.625-9.425,0.054-11.967,2.633
			c-0.332,0.336,6.068,15.435,5.936,17.772c-0.91,15.977-9.983,66.847-7.014,80.604c3.416,15.816,37.359,66.363,37.359,66.363
			L1981.086,1352.061z"/>
		<path style="fill:#F7A491;" d="M2064.097,1373.139c0,0,61.149,1.522,74.576,2.624c13.426,1.102,62.141-2.953,64.028-3.172
			c1.887-0.219,14.366-21.354,16.44-19.084c2.073,2.269-6.944,10.479-4.155,12.609c2.789,2.131,32.751-2.641,32.354-0.425
			c-0.744,4.145-18.225,3.616-18.206,5.617c0.018,2.001,18.295-1.122,19.535,2.199c1.238,3.322-17.583,1.355-18.334,2.837
			c-0.751,1.482,17.456,4.197,15.594,7.286c-1.012,1.678-16.133-2.802-16.059-0.515c0.073,2.286,11.105,7.49,9.752,9.312
			s-8.658-5.591-15.059-5.683c-6.402-0.092-10.985-3.432-21.202-0.629c-10.218,2.803-45.046,16.847-66.847,15.814
			s-69.976-3.185-69.976-3.185L2064.097,1373.139z"/>
		<path style="fill:#50BFA5;" d="M1974.345,1436.995c-0.832-10.086-2.24-37.301-1.787-40.648
			c-3.051-10.476-14.182-26.006-16.516-30.398c0,0,15.1-17.105,26.295-16.962c0,0,11.912,15.042,20.753,19.652
			c0.129-0.033,3.128,1.336,4.446,1.327c8.535-0.061,38.361-0.965,43.928,0.696l-3.153,46.089
			c-1.604,2.643-3.55,55.637-6.851,59.998c-3.299,4.361-51.309,24.217-59.266,19.096
			C1981.878,1495.642,1976.028,1457.384,1974.345,1436.995z"/>
		<path style="fill:#50BFA5;" d="M2035.93,1371.731c5.501-2.629,45.693-2.543,45.693-2.543s5.563,27.725,1.069,34.387
			c0,0-35.598,5.297-34.586,8.218L2035.93,1371.731z"/>
		<path style="fill:#F7A491;" d="M2026.992,1352.993c0,0-3.091,15.988-2.472,22.296c0.618,6.307-2.357,26.633-15.707,26.7
			c-13.35,0.066-2.535-25.843-1.277-32.023c1.257-6.18,1.555-25.312,1.555-25.312L2026.992,1352.993z"/>
		<path style="fill:#F47458;" d="M2008.815,1354.253c0.207-5.233,0.275-9.599,0.275-9.599l17.901,8.339c0,0-0.632,3.27-1.268,7.436
			C2017.89,1362.003,2012.21,1359.103,2008.815,1354.253z"/>
		<path style="fill:#F7A491;" d="M2033.536,1308.866c0,0,6.897,3.827,9.42,12.121c2.521,8.295-0.349,29.697-18.168,34.862
			s-25.539-11.783-21.869-25.033S2014.573,1300.786,2033.536,1308.866z"/>
		<path style="fill:#F7A491;" d="M2000.69,1325.681c0.35,3.559,2.313,6.278,4.386,6.075s3.472-3.253,3.122-6.812
			s-2.313-6.279-4.386-6.075C2001.739,1319.072,2000.342,1322.122,2000.69,1325.681z"/>
		<path style="fill:#3C8F7C;" d="M1963.497,1726.557c1.027-2.864,12.695,5.749,15.438,7.482c3.085,1.95,3.388,4.255,3.332,4.782
			c-0.146,1.39-27.816,37.98-36.098,43.19c-0.782,0.492-2.461,0.563-2.963,0.389c-4.756-1.646,1.879-31.033,7.844-36.997
			C1954.904,1741.548,1958.877,1739.442,1963.497,1726.557z"/>
		<g>
			<path style="fill:#F7CC7F;" d="M2065.021,1179.818l-49.092,17.452c-2.5,0.889-4.402,2.955-5.088,5.526l-13.436,50.471
				c-1.724,6.475-10.105,8.146-14.184,2.827l-31.788-41.453c-1.619-2.111-4.17-3.291-6.82-3.152l-52.035,2.71
				c-6.675,0.348-10.861-7.132-7.084-12.657l29.445-43.071c1.499-2.194,1.826-4.989,0.872-7.476l-18.723-48.795
				c-2.401-6.26,3.393-12.553,9.805-10.65l49.986,14.834c2.547,0.756,5.299,0.207,7.36-1.467l40.463-32.869
				c5.19-4.216,12.958-0.625,13.144,6.076l1.448,52.24c0.074,2.66,1.449,5.117,3.677,6.567l43.73,28.482
				C2072.312,1169.067,2071.318,1177.58,2065.021,1179.818z"/>
		</g>
		<path style="fill:#F7A491;" d="M1966.282,1212.473c1.828,2.688-8.092,11.207-10.842,15.913l-6.229-8.485
			C1952.28,1219.302,1964.192,1209.399,1966.282,1212.473z"/>
		<path style="fill:#13375B;" d="M2031.445,1307.785c0,0,3.231,23.876,10.951,28.185s4.487,14.9,4.487,14.9
			s7.002-24.595,0.898-32.493C2041.679,1310.478,2031.445,1307.785,2031.445,1307.785z"/>
		<path style="fill:#F7A491;" d="M2037.825,1339.396c-2.094,3.11-2.086,6.779,0.016,8.194c2.104,1.414,5.505,0.04,7.598-3.07
			c2.094-3.111,2.086-6.779-0.017-8.194S2039.917,1336.286,2037.825,1339.396z"/>
		<path style="fill:#F47257;" d="M1951.289,1214.475c0.046,0.058,0.099,0.108,0.145,0.167l2.259,2.944
			c-1.664-0.45-4.825-1.344-7.91,0.761C1945.782,1218.347,1946.798,1216.168,1951.289,1214.475z"/>
	</g>
	<g>
		<g>
			<path style="fill:#F7A491;" d="M609.742,1479.764c0.601,0.25-7.952,11.273-16.283,19.068
				c-6.718,8.429-13.019,18.409-15.186,29.29c-3.297,16.544-0.555,98.28-3.425,104.099c-24.652,24.101-42.504,84.587-47.516,103.042
				c-0.977,3.596-2.955,6.838-5.699,9.36l0,0l1.097,20.854l12.249,11.283c0,0-2.725-16.993,2.72-29.597
				c0,0,62.069-94.001,65.754-101.186c7.04-20.462,32.674-125.3,32.674-125.3l5.95-24.097
				C642.078,1496.581,609.793,1479.784,609.742,1479.764z"/>
			<path style="fill:#F47458;" d="M508.215,1751.332c0,0,7.752,11.946,8.415,16.604c0.663,4.655,4.792,15.217,9.359,15.885
				c1.037,0.151,18.799,1.455,18.67-0.765c-0.099-1.697-6.528-4.119-9.514-6.182c-5.161-3.563-13.17-32.592-13.17-32.592
				S508.55,1747.611,508.215,1751.332z"/>
		</g>
		<path style="fill:#F7A491;" d="M662.794,1515.989c0,0,39.979,85.48,40.234,100.509c0.218,12.883-6.988,85.163-4.976,145.354
			c0.072,2.173,2.825,5.062,6.831,6.896c2.255,1.033,13.142,5.896,13.142,5.896l1.496,3.895l-37.495-2.67l-0.534-10.235
			c0,0-14.923-90.043-13.401-115.509c0.239-4,2.184-27.951,2.184-27.951l-45.087-87.052l28.357-37.263L662.794,1515.989z"/>
		<path style="fill:#355389;" d="M666.545,1324.126c-6.058-16.141-21.883-25.911-38.363-22.893
			c-5.057-8.162-13.489-14.221-22.661-16.186c-18.095-3.876-42.565,3.271-41.905,22.432c-7.019,12.871-7.29,31.271,3.452,41.063
			c-3.737,17.307,12.473,34.043,33.545,33.433c7.338,12.101,21.318,19.884,35.221,18.224c3.337-0.398,8.425-1.231,9.268-1.023
			c-1.059-0.195,22.332,17.737,42.153-9.84C707.482,1361.194,693.271,1327.128,666.545,1324.126z"/>
		<path style="fill:#F7A491;" d="M664.151,1227.321c0.976-2.314,2.182-4.523,3.6-6.595l1.56-2.279
			c0.192-0.403,0.343-0.743,0.42-0.972c0.683-2.018,0.16-8.511,0.16-8.511l-13.676,3.31l-3,7.892
			c-3.045-1.406-8.243-11.99-10.142-9.449c-2.243,3.004,6.205,16.014,6.874,19.536c0.668,3.523-7.265,58.216-9.555,69.077
			c-2.29,10.86-17.768,41.185-17.768,41.185l14.155,17.961c0,0,22.691-46.229,24.184-60.342c0.157-1.484,0.334-3.707,0.523-6.458
			L664.151,1227.321z"/>
		<path style="fill:#F7A491;" d="M569.877,1398.589l-16.808-14.25c0,0-13.608,22.689-24.51,41.192
			c-10.815-3.907-38.757-22.126-40.136-22.963c-1.383-0.839-4.445-21.429-6.812-20.334c-2.368,1.094,1.819,10.865-1.054,11.597
			c-2.872,0.73-24.387-13.646-24.829-11.727c-0.826,3.593,12.844,9.32,12.155,10.922c-0.69,1.602-13.742-7.34-15.821-5.105
			c-2.079,2.232,13.113,7.274,13.191,8.73c0.079,1.455-14.892-2.77-14.498,0.368c0.214,1.704,13.399,3.425,12.569,5.236
			c-0.829,1.812-11.102,2.112-10.674,4.054c0.429,1.939,8.572-1.448,13.544,0.73c4.972,2.179,9.638,1.107,16.577,6.955
			c6.934,5.842,41.022,39.216,51.645,36.354C543.691,1447.849,569.877,1398.589,569.877,1398.589z"/>
		<g>
			<path style="fill:#F47458;" d="M571.155,1618.673c0.007,0.015,0.012,0.014,0.016-0.003
				C571.169,1618.67,571.155,1618.673,571.155,1618.673z"/>
			<path style="fill:#F47458;" d="M628.341,1377.389c1.075-6.573,11.246-23.02,12.851-27.053c0,0-11.791-14.985-21.363-13.851
				c0,0-12.863,21.325-20.177,22.041c-7.313,0.717-33.037,1.833-37.546,4.568c-4.509,2.736-23.643,32.113-23.643,32.113
				s17.194,17.559,24.111,17.521c0,0,3.677-7.237,5.142-8.821c1.042,3.362,17.061,55.267,17.039,67.022l0.123,0.1
				c14.976,12.146,36.825,9.338,48.374-6.217l0,0c0,0-1.358-16.18-0.588-31.1C633.871,1410.339,638.602,1397.915,628.341,1377.389z"
				/>
			<path style="fill:#466EB6;" d="M711.721,1578.178l-78.468-113.364c-4.84,1.96-9.414,3.666-14.587,4.664
				c-11.251,2.173-22.518,1.822-33.91,1.453c-0.001,0.425-0.023,0.798-0.067,1.113c-1.31,9.346-13.706,23.816-16.261,52.177
				c-2.901,32.192-1.147,88.11-0.164,91.782C620.429,1609.661,696.917,1593.712,711.721,1578.178z"/>
		</g>
		<g>
			<path style="fill:#F47458;" d="M665.961,1218.801c0,0-4.931,3.304-9.12,2.237c-4.189-1.067-6.111-2.619-6.111-2.619
				s2.314,4.223,5.732,6.06C662.357,1227.645,665.961,1218.801,665.961,1218.801z"/>
			<path style="fill:#F7CC7F;" d="M568.663,1195.413l45.625-9.413c2.324-0.479,4.728,0.266,6.427,1.993l33.362,33.918
				c4.279,4.351,11.471,1.699,12.17-4.487l5.445-48.229c0.278-2.457,1.695-4.612,3.792-5.763l41.149-22.586
				c5.279-2.896,5.073-10.863-0.349-13.479l-42.26-20.394c-2.152-1.039-3.68-3.116-4.083-5.555l-7.93-47.878
				c-1.017-6.141-8.336-8.412-12.385-3.842l-31.564,35.625c-1.608,1.814-3.969,2.686-6.315,2.329l-46.05-7.003
				c-5.907-0.899-10.225,5.662-7.306,11.104l22.753,42.41c1.159,2.16,1.227,4.776,0.18,6.994l-20.53,43.55
				C558.16,1190.295,562.81,1196.621,568.663,1195.413z"/>
		</g>
		<path style="fill:#F7A491;" d="M586.419,1339.628c0,0,2.76,14.863,2.207,20.726c-0.552,5.862,2.105,24.757,14.022,24.819
			c11.918,0.063,2.263-24.022,1.14-29.768c-1.123-5.744-1.388-23.529-1.388-23.529L586.419,1339.628z"/>
		<path style="fill:#F47458;" d="M602.646,1340.799c-0.186-4.864-0.246-8.923-0.246-8.923l-15.982,7.752
			c0,0,0.565,3.039,1.132,6.911C594.546,1348.003,599.615,1345.308,602.646,1340.799z"/>
		<path style="fill:#F7A491;" d="M580.578,1298.608c0,0-6.158,3.558-8.409,11.268c-2.252,7.711,0.311,27.606,16.218,32.407
			c15.908,4.801,22.8-10.953,19.523-23.271C604.634,1306.696,597.507,1291.098,580.578,1298.608z"/>
		<path style="fill:#F7A491;" d="M609.899,1314.239c-0.312,3.308-2.064,5.836-3.915,5.647c-1.851-0.189-3.099-3.024-2.787-6.332
			c0.311-3.309,2.064-5.837,3.915-5.648C608.963,1308.096,610.211,1310.931,609.899,1314.239z"/>
		<path style="fill:#F7A491;" d="M576.748,1326.989c1.869,2.891,1.862,6.302-0.015,7.617c-1.877,1.314-4.914,0.037-6.782-2.854
			c-1.869-2.893-1.862-6.302,0.015-7.618C571.843,1322.819,574.88,1324.097,576.748,1326.989z"/>
		<path style="fill:#F7A491;" d="M668.276,1200.648c-3.085-0.598-16.142,9.65-16.026,11.181c0.121,1.586,12.861-4.965,13.222-3.922
			c0.283,0.82-14.263,4.631-13.502,6.092c0.52,0.997,13.569-1.752,13.915-1.113c0.544,1-10.888,1.427-10.149,2.531
			c0.854,1.279,11.741,0.758,11.741,0.758s2.189-3.529,2.415-4.846c0.097-0.563,0.103-1.352,0.05-2.255
			c-0.042-0.726,0.278-1.353,0.177-2.168C669.711,1203.607,669.981,1200.979,668.276,1200.648z"/>
		<path style="fill:#F7A491;" d="M650.875,1208.491l-4.861,6.008l-3.206-2.392c0,0-0.267-0.501,0.107-1.335
			C643.289,1209.938,650.768,1206.267,650.875,1208.491z"/>
		<path style="fill:#F47458;" d="M681.899,1783.007h47.367c1.751-0.156,2.179-1.57,1.571-2.441
			c-1.251-1.796-6.776-3.112-12.987-5.971c-10.895,1.133-34.617-6.311-36.337-8.809
			C680.521,1770.787,680.925,1782.794,681.899,1783.007z"/>
		<path style="fill:#F7A491;" d="M646.362,1214.079c0,0,6.428,3.93,9.089,8.516c2.662,4.586,1.433,8.395,1.433,8.395l-11.014-13.553
			L646.362,1214.079z"/>
	</g>
	<g>
		<path style="fill:#E0973F;" d="M1587.811,678.232c-1.146,5.374-2.184,10.934-4.979,15.436
			c-4.809,5.809-9.349,11.805-13.662,17.955c2.966-0.213,5.951-0.35,8.966-0.35c29.666,0,57.269,10.446,77.725,29.413
			c18.285,16.954,28.354,38.684,28.354,61.186c0,22.503-10.069,44.233-28.354,61.187c-20.456,18.967-48.059,29.413-77.725,29.413
			c-29.588,0-57.121-10.394-77.56-29.267c-1.489,4.405-2.972,8.783-4.453,13.182c-10.004,5.07-17.032,17.008-17.032,30.934
			c0,18.521,12.43,33.536,27.764,33.536c12.058,0,22.292-9.304,26.125-22.28c14.108,4.703,29.301,7.295,45.156,7.295
			c73.856,0,133.729-55.516,133.729-123.999C1711.865,736.41,1657.146,682.834,1587.811,678.232z"/>
		<path style="fill:#E0973F;" d="M988.086,678.232c1.145,5.374,2.184,10.934,4.979,15.436c4.809,5.809,9.349,11.805,13.663,17.955
			c-2.966-0.213-5.953-0.35-8.966-0.35c-29.666,0-57.27,10.446-77.725,29.413c-18.285,16.954-28.356,38.684-28.356,61.186
			c0,22.503,10.07,44.233,28.356,61.187c20.455,18.967,48.059,29.413,77.725,29.413c29.587,0,57.12-10.394,77.56-29.267
			c1.489,4.405,2.972,8.783,4.453,13.182c10.004,5.07,17.032,17.008,17.032,30.934c0,18.521-12.43,33.536-27.763,33.536
			c-12.059,0-22.292-9.304-26.126-22.28c-14.108,4.703-29.299,7.295-45.156,7.295c-73.856,0-133.729-55.516-133.729-123.999
			C864.032,736.41,918.752,682.834,988.086,678.232z"/>
		<path style="fill:#F7CC7F;" d="M1607.05,664.112v34.234c0,154.714-125.449,280.163-280.163,280.163
			c-71.261-0.946-120.151,6.42-187.808-23.534c-97.484-42.747-167.665-140.702-167.665-256.629v-34.234H1607.05z"/>
		<path style="fill:#FAE0B2;" d="M1139.079,954.976c0.071,0.031,0.142,0.063,0.213,0.094l100.708-290.957h-104.835l-80.722,233.253
			C1078.822,921.513,1107.52,941.137,1139.079,954.976z"/>
		<path style="fill:#FAE0B2;" d="M1204.598,974.607l106.268-310.495h-52.663l-101.922,297.843
			C1173.179,968.177,1189.041,972.123,1204.598,974.607z"/>
		<path style="fill:#FAE0B2;" d="M1044.226,886.705l79.474-222.593h-25.036l-71.904,201.399
			C1032.243,872.868,1038.075,879.94,1044.226,886.705z"/>
		<path style="fill:#F7CC7F;" d="M1579.298,644.708h-578.537c-21.115,0-38.326,11.75-39.54,26.557h657.618
			C1617.624,656.458,1600.413,644.708,1579.298,644.708z"/>
		<polygon style="fill:#F7CC7F;" points="1181.815,970.312 1214.549,1138.352 1357.688,1138.352 1398.243,970.312 		"/>
		<polygon style="fill:#B75742;" points="1398.25,970.324 1389.1,1008.242 1189.217,1008.242 1181.82,970.324 		"/>
		<polygon style="fill:#F7CC7F;" points="1398.25,1346.232 1181.82,1346.232 1198.046,1262.824 1214.535,1178.188 1357.7,1178.188 
			1378.136,1262.824 		"/>
		<polygon style="fill:#B75742;" points="1398.25,1346.232 1181.82,1346.232 1198.046,1262.824 1378.136,1262.824 		"/>
		<path style="fill:#FAE0B2;" d="M1382.799,1138.352h-193.361c-8.53,0-15.445,6.915-15.445,15.444v8.945
			c0,8.529,6.915,15.445,15.445,15.445h193.361c8.529,0,15.444-6.916,15.444-15.445v-8.945
			C1398.243,1145.267,1391.328,1138.352,1382.799,1138.352z"/>
		<g>
			<path style="fill:#F7CC7F;" d="M1414.2,1334.858h-255.638v-45.916c0-4.946,4.009-8.955,8.956-8.955h237.727
				c4.945,0,8.955,4.009,8.955,8.955V1334.858z"/>
			<path style="fill:#F7CC7F;" d="M1498.684,1367.662v16.693h-424.605v-16.693c0-19.236,11.74-34.849,26.207-34.849h372.192
				C1486.943,1332.813,1498.684,1348.426,1498.684,1367.662z"/>
			<polygon style="fill:#FAE0B2;" points="1174.046,1332.813 1160.613,1384.355 1142.893,1384.355 1156.326,1332.813 			"/>
			<polygon style="fill:#FAE0B2;" points="1148.675,1332.813 1135.242,1384.355 1117.5,1384.355 1130.955,1332.813 			"/>
			<polygon style="fill:#FAE0B2;" points="1196.603,1332.813 1183.17,1384.355 1165.428,1384.355 1178.883,1332.813 			"/>
		</g>
		<g>
			<path style="fill:#F7CC7F;" d="M1656.777,1765.706v16.693H945.269v-16.693c0-19.237,19.673-34.849,43.914-34.849h623.68
				C1637.104,1730.857,1656.777,1746.469,1656.777,1765.706z"/>
			<polygon style="fill:#FAE0B2;" points="1112.784,1730.857 1090.274,1782.399 1060.58,1782.399 1083.091,1730.857 			"/>
			<polygon style="fill:#FAE0B2;" points="1070.27,1730.857 1047.76,1782.399 1018.029,1782.399 1040.576,1730.857 			"/>
			<polygon style="fill:#FAE0B2;" points="1150.583,1730.857 1128.073,1782.399 1098.343,1782.399 1120.89,1730.857 			"/>
		</g>
		<path style="fill:#F7CC7F;" d="M1471.276,938.563v12.598c0,21.816-17.664,39.481-39.447,39.481h-285.024
			c-21.817,0-39.481-17.665-39.481-39.481v-12.598H1471.276z"/>
		<polygon style="fill:#3C8F7C;" points="1558.055,1730.857 1022.625,1730.857 1029.153,1384.364 1550.874,1384.364 		"/>
		<polygon style="fill:#50BFA5;" points="1430.727,1730.857 1149.954,1730.857 1153.377,1384.364 1426.961,1384.364 		"/>
	</g>
	<path style="fill:#184655;" d="M2136.546,1782.399H355.306c-2.227,0-4.032,1.805-4.032,4.031l0,0c0,2.228,1.805,4.032,4.032,4.032
		h1781.24c2.227,0,4.032-1.805,4.032-4.032l0,0C2140.578,1784.204,2138.772,1782.399,2136.546,1782.399z"/>
	<g>
		<g>
			<polygon style="fill:#B75742;" points="1376.464,1720.438 1334.008,1651.114 1271.61,1703.218 1335.812,1312.292 
				1440.666,1329.512 			"/>
			<polygon style="fill:#B75742;" points="1570.42,1703.022 1507.901,1651.063 1465.605,1720.484 1400.501,1329.708 
				1505.314,1312.246 			"/>
		</g>
		<path style="fill:#F47458;" d="M1656.777,1402.274c0,22.585-19.914,41.746-26.531,62.125c-6.858,21.12-2.246,48.28-15.04,65.859
			c-12.922,17.756-40.265,21.702-58.02,34.624c-17.58,12.794-29.713,37.651-50.833,44.51c-20.378,6.616-44.712-6.146-67.296-6.146
			c-22.583,0-46.918,12.763-67.296,6.146c-21.119-6.857-33.254-31.716-50.833-44.511c-17.755-12.921-45.099-16.868-58.02-34.624
			c-12.793-17.578-8.182-44.739-15.039-65.859c-6.617-20.377-26.531-39.539-26.531-62.123c0-22.583,19.915-41.746,26.531-62.124
			c6.857-21.12,2.246-48.28,15.04-65.86c12.922-17.755,40.265-21.701,58.021-34.623c17.579-12.794,29.713-37.652,50.832-44.51
			c20.378-6.617,44.712,6.146,67.295,6.146c22.584,0,46.919-12.762,67.297-6.145c21.12,6.856,33.254,31.716,50.833,44.51
			c17.755,12.922,45.099,16.869,58.021,34.624c12.793,17.579,8.182,44.74,15.038,65.859
			C1636.863,1360.529,1656.777,1379.691,1656.777,1402.274z"/>
		<path style="fill:#F7CC7F;" d="M1493.313,1595.496c-6.847,0-14.811-1.75-23.241-3.602c-9.954-2.187-20.249-4.447-31.014-4.447
			c-10.766,0-21.062,2.261-31.018,4.447c-8.431,1.852-16.395,3.599-23.241,3.599c-3.147,0-5.814-0.367-8.16-1.129
			c-8.705-2.826-16.515-11.694-24.782-21.084c-6.546-7.436-13.316-15.123-21.631-21.173c-8.429-6.134-17.912-10.26-27.084-14.247
			c-11.406-4.961-22.18-9.646-27.458-16.9c-5.19-7.131-6.332-18.772-7.542-31.097c-0.981-9.998-1.996-20.337-5.244-30.345
			c-3.123-9.611-8.28-18.313-13.27-26.729c-6.423-10.833-12.491-21.067-12.491-30.516c0-9.449,6.066-19.681,12.491-30.515
			c4.987-8.415,10.147-17.116,13.268-26.729c3.252-10.008,4.267-20.348,5.248-30.348c1.209-12.324,2.351-23.966,7.541-31.095
			c5.279-7.253,16.051-11.938,27.457-16.899c9.172-3.988,18.657-8.113,27.086-14.246c8.314-6.051,15.085-13.739,21.633-21.174
			c8.267-9.389,16.076-18.257,24.782-21.084c2.343-0.76,5.011-1.129,8.158-1.129c6.847,0,14.811,1.748,23.241,3.601
			c9.956,2.186,20.25,4.447,31.016,4.447c10.765,0,21.06-2.262,31.017-4.447c8.43-1.853,16.394-3.601,23.24-3.601
			c3.148,0,5.815,0.369,8.159,1.129c8.706,2.828,16.516,11.696,24.784,21.086c6.548,7.434,13.318,15.122,21.63,21.172
			c8.429,6.133,17.914,10.258,27.085,14.247c11.407,4.96,22.179,9.646,27.457,16.899c5.191,7.131,6.333,18.771,7.542,31.097
			c0.981,9.998,1.997,20.337,5.244,30.345c3.122,9.613,8.282,18.315,13.271,26.73c6.423,10.834,12.489,21.065,12.489,30.514
			c0,9.45-6.068,19.683-12.49,30.518c-4.99,8.413-10.148,17.115-13.268,26.727c-3.25,10.008-4.266,20.347-5.247,30.345
			c-1.209,12.324-2.351,23.966-7.542,31.097c-5.28,7.256-16.053,11.94-27.457,16.9c-9.172,3.987-18.656,8.113-27.086,14.247
			c-8.313,6.052-15.083,13.737-21.629,21.173c-8.269,9.39-16.078,18.258-24.784,21.084
			C1499.131,1595.126,1496.462,1595.496,1493.313,1595.496z"/>
		
			<ellipse transform="matrix(0.1385 -0.9904 0.9904 0.1385 -148.9796 2633.29)" style="fill:#F47458;" cx="1439.058" cy="1402.275" rx="158.595" ry="158.595"/>
		<circle style="fill:#FFFFFF;" cx="1439.059" cy="1402.275" r="150.695"/>
		
			<ellipse transform="matrix(0.0984 -0.9951 0.9951 0.0984 -98.0552 2696.3169)" style="fill:#F7CC7F;" cx="1439.058" cy="1402.275" rx="136.621" ry="136.62"/>
		<g>
			<path style="fill:#FFFFFF;" d="M1365.298,1459.949l5.084-38.337h-16.036v-11.54h17.798l3.716-28.36h-16.822v-11.539h18.583
				l5.085-37.359h11.345l-4.89,37.359h20.342l5.085-37.359h11.539l-4.889,37.359h16.039v11.539h-17.801l-3.519,28.36h16.819v11.54
				h-18.58l-5.088,38.337h-11.734l5.084-38.337h-20.341l-5.085,38.337H1365.298z M1404.22,1410.072l3.717-28.36h-20.342
				l-3.717,28.36H1404.22z"/>
			<path style="fill:#FFFFFF;" d="M1490.482,1348.853h-0.39l-22.103,11.931l-3.326-13.105l27.774-14.864h14.669v127.136h-16.625
				V1348.853z"/>
		</g>
	</g>
	<g>
		<g>
			<path style="fill:#F8A492;" d="M1597.756,439.79c-1.492,6.131-4.185,15.821-4.185,15.821c0.214,2.664,1,13.75,1.937,27.338
				l-19.972-7.993c0,0,0.239-22.14-0.651-23.495c-0.755-1.146-2.02,0.284-8.142-8.476c-1.768-2.529-2.098-7.047-2.098-7.047
				s-0.364-5.561,0.885-6.078c1.248-0.518,2.681,0.313,3.133,1.273c0.452,0.961,0.336,3.2,0.788,4.16
				c0.452,0.961,3.341,2.12,4.558,2.059c1.216-0.06-0.152-16.449-0.152-16.449s-0.679-4.648-1.023-6.168
				c-0.294-1.297-1.475-5.099-1.475-5.099s-1.385-5.515,0.327-5.937c1.011-0.248,3.583,4.233,5.347,8.989
				c1.899,5.122,2.977,10.554,3.519,10.48c1.275-0.171,0.6-9.157,0.6-9.157s-1.271-4.116-1.238-6.059
				c-1.2-2.38-1.996-6.795,0.116-7.161c0.39-0.067,3.175,5.542,3.175,5.542s1.095,3.949,1.733,5.794
				c1.124,3.255,1.295,8.396,1.881,10.663c0.489,1.886,0.931,1.11,1.132,1.19c0.155,0.061-0.116-2.54-0.429-6.115
				c-0.156-1.8,0.051-3.877-0.453-5.928c-0.467-1.899-0.733-4.617-0.854-6.259c-0.343-4.648,2.584-4.172,3.596,0.077
				c0.385,1.619,0.79,3.386,1.194,5.177c1.572,6.967,1.527,13.68,2.279,13.735c0.975,0.073,0.332-12.148,0.332-12.148
				s1.497-6.765,2.983-0.487c1.726,7.285,1.546,13.225,1.522,13.488C1597.962,427.3,1599.248,433.659,1597.756,439.79z"/>
			<path style="fill:#3C8F7C;" d="M1596.456,466.568c0,0-22.503-5.386-22.719-3.579c-4.728,39.586-6.852,53.904-7.652,54.315
				c-2.728,1.402-38.88-31.655-45.326-33.895c-3.082-1.071-6.438-0.893-9.654-0.798c-7.668,0.226-9.181,0.254-9.181,0.254
				c-0.22,0.014-0.28,0.019-0.28,0.019l0.041,7.212c8.639,7.773,28.416,125.507,30.082,125.429
				c1.861-0.087,40.951,9.751,40.263,6.457c-0.112-0.535-26.502-22.13-33.986-53.296c-2.513-10.462-3.754-21.729-5.115-31.588
				c8.685,4.355,42.608,21.049,47.983,18.843C1597.636,549.081,1596.456,466.568,1596.456,466.568z"/>
			<path style="fill:#F7A491;" d="M1663.774,675.611c0,0,36.37,28.489,37.582,33.54c1.749,7.275,35.053-2.289,27.021-3.769
				c-1.848-0.341-7.762-1.841-8.248-2.101c-2.6-1.39-34.961-40.387-34.961-40.387L1663.774,675.611z"/>
			<path style="fill:#B75742;" d="M1743.995,705.381l-23.221-1.891c0,0-6.637,5.494-19.394,5.75c0,0-2.039,5.827-1.069,12.639
				c0.166,1.175,0.363,4.726,1.548,4.646c4.291-0.292,15.721-3.136,28.744-5.74c0,0,17.503-3.707,27.612-9.755
				C1768.325,704.982,1743.995,705.381,1743.995,705.381z"/>
			<path style="fill:#13375B;" d="M1500.815,604.148c0,0,26.634,4.476,56.089-2.415c34.083-7.974,71.772-15.345,82.813-8.925
				c8.889,5.167,64.394,89.037,64.394,89.037l-21.435,15.642l-61.115-68.436c0,0-77.973,28.77-95.484,25.581
				C1486.193,647.371,1485.626,615.519,1500.815,604.148z"/>
			<polygon style="fill:#13375B;" points="1529.933,587.225 1556.581,618.893 1507.146,633.955 1500.815,604.148 			"/>
			<path style="fill:#F7A491;" d="M1584.089,731.879c0,0-1.621,43.987-2.625,51.437c-0.999,7.415,18.667,29.755,16.154,21.984
				c-0.578-1.787-2.067-7.703-2.07-8.255c-0.012-2.948,7.293-53.128,7.293-53.128L1584.089,731.879z"/>
			<path style="fill:#B75742;" d="M1610.194,821.326l-14.524-23.614c0,0-7.987-3.23-14.275-14.332c0,0-6.095,0.974-11.628,5.064
				c-0.955,0.705-7.46,5.462-7.007,6.56c1.668,4.039,10.526,12.692,20.212,22.143c0,0,13.729,11.073,23.853,17.095
				C1616.949,840.262,1610.194,821.326,1610.194,821.326z"/>
			<path style="fill:#355389;" d="M1627.256,645.155c-9.313-12.418-84.476-24.214-84.476-24.214l-20.958-40.282l-46.345,28.579
				c0,0,4.633,36.878,8.11,46.731c4.634,13.131,35.779,13.799,54.803,13.604c17.502-0.18,49.473,3.389,49.473,3.389l-10.813,95.393
				c0,0,21.255,4.837,27.228,4.056C1604.952,772.321,1638.843,660.604,1627.256,645.155z"/>
			<path style="fill:#9BC1F9;" d="M1501.9,482.949l-26.146,1.46c0,0-0.601,0.184-0.783,0.218
				c-2.13,0.395-0.195,76.592,1.705,105.051c1.9,28.459,5.753,40.415,5.753,40.415s35.462-6.296,46.345-10.521
				c4.517-1.754,15.447-15.419,15.447-15.419s-11.167-15.014-16.793-39.402c-4.338-18.81-9.688-52.152-12.751-59.112
				C1507.646,489.654,1501.9,482.949,1501.9,482.949z"/>
		</g>
		<path style="fill:#F7A491;" d="M1476.498,461.324l-0.743,23.086c0,0,16.926,29.165,25.616,25.101
			c7.292-3.41,0.818-25.595,0.818-25.595s-1.262-5.087-3.013-10.93c-1.225-4.083-2.241-8.507-2.166-11.753
			C1497.194,453.342,1476.498,461.324,1476.498,461.324z"/>
		<path style="fill:#F47458;" d="M1497.011,461.232c0.184-7.89-20.513,0.092-20.513,0.092l-0.073,2.255
			c0.698,1.051,1.466,1.941,2.312,2.628c5.563,4.517,13.61,6.551,20.153,5.801C1497.798,468.207,1496.941,464.221,1497.011,461.232z
			"/>
		<g>
			<path style="fill:#184655;" d="M1496.719,408.669c0,0,8.626,13.002,9.27,23.944c0.644,10.943-1.674,18.409-1.674,18.409
				l-27.678-33.085L1496.719,408.669z"/>
			<path style="fill:#F48C7F;" d="M1508.854,430.375c0.391,3.831-1.099,7.121-3.326,7.349c-2.227,0.227-4.349-2.695-4.739-6.526
				c-0.389-3.832,1.101-7.122,3.327-7.349C1506.343,423.621,1508.464,426.543,1508.854,430.375z"/>
			<path style="fill:#F7A491;" d="M1467.681,423.238c-0.635-0.135-0.572,31.716,8.659,39.212c9.232,7.496,25.302,8.153,29.993,0.604
				c5.19-8.351,0.254-41.913-13.478-49.041S1467.681,423.238,1467.681,423.238z"/>
			<path style="fill:#184655;" d="M1465.34,403.488c-7.048,6.179-10.46,10.693-15.229,21.68
				c-5.864,13.508,5.77,27.504,15.524,33.066s10.566,12.286,10.566,12.286l0.402-4.145c0.192-1.517,0.137-2.747-0.126-3.814
				c-0.308-1.253-0.883-2.286-1.387-3.364c-0.831-1.775-3.497-7.857-4.538-9.462c-2.745-4.233-3.286-5.15-1.932-9.172
				c1.043-3.097-0.164-9.925,1.448-15.029l13.132-2.832c0,0,8.217-1.975,12.366-6.762
				C1507.482,402.193,1483.927,386.867,1465.34,403.488z"/>
			<path style="fill:#F7A491;" d="M1471.745,444.049c1.618,3.495,1.282,7.091-0.75,8.031c-2.031,0.94-4.989-1.13-6.605-4.626
				c-1.617-3.495-1.282-7.091,0.749-8.031C1467.171,438.482,1470.128,440.553,1471.745,444.049z"/>
		</g>
		<path style="fill:#F8A492;" d="M1382.271,356.184c1.492,6.131,4.185,15.822,4.185,15.822c-0.214,2.664-1,13.75-1.937,27.337
			l19.972-7.993c0,0-0.239-22.14,0.651-23.495c0.754-1.146,2.02,0.284,8.142-8.476c1.768-2.529,2.098-7.046,2.098-7.046
			s0.364-5.561-0.885-6.078c-1.248-0.519-2.681,0.312-3.133,1.273c-0.452,0.961-0.336,3.199-0.788,4.16
			c-0.452,0.961-3.341,2.119-4.558,2.059c-1.216-0.06,0.152-16.449,0.152-16.449s0.679-4.647,1.023-6.168
			c0.294-1.297,1.474-5.098,1.474-5.098s1.386-5.516-0.326-5.938c-1.011-0.249-3.583,4.233-5.347,8.989
			c-1.899,5.122-2.977,10.554-3.519,10.481c-1.275-0.171-0.601-9.157-0.601-9.157s1.271-4.116,1.239-6.059
			c1.2-2.38,1.996-6.795-0.116-7.161c-0.39-0.067-3.175,5.541-3.175,5.541s-1.095,3.949-1.733,5.795
			c-1.124,3.255-1.295,8.395-1.881,10.663c-0.489,1.885-0.931,1.11-1.132,1.189c-0.155,0.061,0.116-2.54,0.429-6.115
			c0.156-1.801-0.051-3.878,0.453-5.929c0.467-1.898,0.733-4.617,0.854-6.258c0.343-4.648-2.584-4.172-3.596,0.077
			c-0.385,1.619-0.79,3.385-1.194,5.177c-1.572,6.968-1.527,13.68-2.279,13.736c-0.975,0.073-0.332-12.149-0.332-12.149
			s-1.497-6.765-2.983-0.487c-1.726,7.286-1.546,13.225-1.522,13.488C1382.065,343.694,1380.779,350.053,1382.271,356.184z"/>
		<path style="fill:#3C8F7C;" d="M1475.755,484.409c0,0-25.923-1.208-32.611-4.233c-4.055-1.835-37.364-28.674-37.364-28.674
			l0.374-71.863l-23.426-1.782c0,0-12.146,79.432-7.939,88.126c4.345,8.979,53.102,45.943,62.853,61.983
			c5.617,9.241,17.332,134.916,19.106,136.048c12.615,6.566,51.574,13.123,50.656,9.14
			C1482.043,563.086,1475.755,484.409,1475.755,484.409z"/>
	</g>
	<g>
		<path style="fill:#F8A492;" d="M1010.61,807.463c1.492,6.131,4.183,15.822,4.183,15.822c-0.213,2.663-1,13.75-1.936,27.337
			l19.971-7.993c0,0-0.239-22.14,0.652-23.495c0.754-1.146,2.02,0.284,8.142-8.477c1.767-2.528,2.098-7.046,2.098-7.046
			s0.364-5.561-0.885-6.079c-1.249-0.518-2.681,0.313-3.133,1.273c-0.453,0.962-0.336,3.199-0.789,4.16
			c-0.452,0.961-3.34,2.119-4.557,2.059c-1.217-0.06,0.151-16.449,0.151-16.449s0.68-4.648,1.024-6.169
			c0.294-1.297,1.474-5.099,1.474-5.099s1.385-5.516-0.327-5.937c-1.01-0.249-3.583,4.233-5.346,8.989
			c-1.899,5.122-2.976,10.554-3.519,10.481c-1.275-0.172-0.6-9.157-0.6-9.157s1.271-4.117,1.239-6.059
			c1.2-2.38,1.996-6.795-0.116-7.161c-0.39-0.067-3.175,5.542-3.175,5.542s-1.095,3.949-1.732,5.794
			c-1.125,3.255-1.295,8.396-1.882,10.663c-0.489,1.885-0.93,1.11-1.131,1.189c-0.156,0.061,0.117-2.54,0.428-6.115
			c0.157-1.801-0.05-3.878,0.454-5.929c0.466-1.899,0.734-4.617,0.855-6.258c0.342-4.648-2.584-4.173-3.596,0.077
			c-0.386,1.619-0.791,3.385-1.195,5.177c-1.571,6.967-1.527,13.68-2.278,13.735c-0.975,0.073-0.333-12.149-0.333-12.149
			s-1.497-6.765-2.983-0.486c-1.725,7.285-1.545,13.225-1.521,13.488C1010.403,794.973,1009.118,801.333,1010.61,807.463z"/>
		<path style="fill:#F8A492;" d="M1222.588,791.312c-1.492,6.132-4.184,15.822-4.184,15.822c0.213,2.664,1,13.75,1.937,27.337
			l-19.972-7.992c0,0,0.239-22.141-0.652-23.495c-0.753-1.146-2.02,0.284-8.141-8.477c-1.767-2.529-2.098-7.046-2.098-7.046
			s-0.364-5.561,0.885-6.079c1.249-0.518,2.681,0.313,3.133,1.273c0.452,0.961,0.335,3.199,0.788,4.16
			c0.452,0.961,3.341,2.119,4.557,2.059c1.217-0.06-0.152-16.449-0.152-16.449s-0.679-4.647-1.023-6.168
			c-0.294-1.296-1.474-5.099-1.474-5.099s-1.386-5.516,0.327-5.937c1.01-0.248,3.583,4.233,5.346,8.989
			c1.899,5.122,2.976,10.554,3.519,10.48c1.275-0.171,0.6-9.157,0.6-9.157s-1.271-4.116-1.239-6.058
			c-1.2-2.38-1.997-6.795,0.116-7.161c0.39-0.067,3.175,5.542,3.175,5.542s1.095,3.949,1.733,5.794
			c1.125,3.255,1.295,8.396,1.882,10.663c0.489,1.885,0.93,1.11,1.131,1.189c0.156,0.061-0.117-2.539-0.429-6.115
			c-0.157-1.801,0.051-3.877-0.454-5.929c-0.466-1.898-0.733-4.617-0.854-6.259c-0.342-4.648,2.584-4.172,3.596,0.078
			c0.386,1.619,0.791,3.385,1.195,5.177c1.571,6.967,1.527,13.68,2.278,13.735c0.975,0.072,0.333-12.149,0.333-12.149
			s1.497-6.765,2.983-0.486c1.725,7.285,1.545,13.226,1.521,13.488C1222.794,778.821,1224.08,785.181,1222.588,791.312z"/>
		<path style="fill:#07345A;" d="M1097.963,863.269c0,0,10.165-10.717,18.34,2.32c0,0,6.298-3.535,10.717,2.763
			c0,0,11.38-3.425,14.143,13.59c0,0,5.856-1.104,6.629,5.855c0.773,6.961-2.762,11.602-2.762,11.602s3.29,2.467,1.795,8.866
			c-1.271,5.442-5.773,6.271-5.773,6.271s-1.215,9.171-5.193,11.933c-3.977,2.762-9.391,1.437-9.391,1.437s-1.436,4.972-6.077,4.53
			s-10.386-4.861-15.579-2.873c-5.193,1.989-18.672-0.11-18.672-0.11s-15.137-6.74-10.607-22.208c0,0-7.955-7.182-0.995-15.8
			c0,0-5.082-13.479,4.972-21.435C1089.566,862.054,1097.963,863.269,1097.963,863.269z"/>
		<path style="fill:#F7A491;" d="M1167.959,1312.246c0,0,11.074,13.729,13.833,15.418c2.76,1.688-1.231,21.636-8.745,22.945
			c-4.235,0.737-6.589-3.925-6.589-3.925l1.215-5.745l-15.821-16.3L1167.959,1312.246z"/>
		<path style="fill:#F7A491;" d="M1110.912,1315.637c0,0,9.229,15.032,11.75,17.06c2.521,2.026-3.986,21.302-11.605,21.639
			c-4.295,0.191-6.034-4.733-6.034-4.733l1.939-5.542l-13.609-18.188L1110.912,1315.637z"/>
		<path style="fill:#07345A;" d="M1122.107,1332.106c0,0-5.301,6.76-8.194,9.45c-3.733,3.474-8.516,6.868-8.516,6.868
			s-5.416,9.83-6.896,13.261c-3.295,7.636-6.997,16.145-6.463,20.419c0.171,1.372,3.255,2.826,5.823,2.035
			c10.697-3.288,38.046-28.307,41.5-35.022C1143.344,1341.371,1122.107,1332.106,1122.107,1332.106z"/>
		<path style="fill:#B75742;" d="M1044.04,1103.157c0.993-2.781,1.946-5.353,2.866-7.771c11.377,2.483,24.228,5.215,37.446,8.031
			l1.61,48.452c-0.008-3.741-9.938,77.279-9.938,77.279s25.687,56.87,43.254,90.016c-7.211,8.996-10.594,11.897-21.035,18.03
			c-27.271-32.692-62.961-92.514-64.443-102.463C1032.949,1229.009,1032.181,1136.52,1044.04,1103.157z"/>
		<path style="fill:#F47458;" d="M1145.583,1117.169c-3.477,37.754-11.204,109.931-10.558,115.735
			c1.94,7.237,36.32,74.027,42.507,83.75c-4.914,7.398-12.524,15.397-20.7,17.608c-1.614,0.436-58.349-80.302-61.443-86.71
			c-3.497-7.243-9.322-46.761-9.426-95.684l-1.61-48.452C1106.376,1108.112,1126.627,1112.717,1145.583,1117.169z"/>
		<path style="fill:#96D9C9;" d="M1073.257,945.072l25.925,3.559c0,0,20.783,0.508,23.354,0.508
			c2.571,0,18.854,94.57,23.568,130.161c4.714,35.591,1.062,41.893,1.062,41.893s-32.87,7.393-57.188,5.238
			c-25.287-2.241-53.738-15.894-53.738-15.894s21.615-68.395,25.9-89.749C1066.424,999.435,1073.257,945.072,1073.257,945.072z"/>
		<path style="fill:#13375B;" d="M1010.395,830.51c0,0-1.664,70.511,0.995,75.904c3.867,7.845,47.399,63.476,47.399,63.476
			s-20.796,87.025-29.538,117.078c-0.881,3.026-4.778,22.575-4.778,24.481c0,4.227,18.397,9.591,20.581,9.272
			c1.955-0.285,18.006-83.066,28.253-123.574c3.473-13.727,9.429-26.698,17.578-38.276l7.126-10.125l-54.69-54.817
			c0,0-6.74-61.016-6.74-66.071C1036.581,826.532,1013.047,825.538,1010.395,830.51z"/>
		<path style="fill:#13375B;" d="M1121.595,949.012l68.2-69.489c0,0,9.502-65.711,10.177-68.186
			c0.663-2.431,17.6-3.746,24.425-4.411c2.19-0.213-1.146,69.989-4.41,81.757c-3.856,13.902-55.406,77.241-55.406,77.241
			s-9.24,34.307-7.014,59.471c3.697,41.796,13.659,99.289,11.874,101.094c-11.083,6.98-53.621,7.729-56.314,3.392
			C1083.396,1081.999,1121.595,949.012,1121.595,949.012z"/>
		<path style="fill:#F7A491;" d="M1099.68,936.03l-1.84,13.651c0,0-4.122,19.667,1.181,23.458
			c5.303,3.792,22.551-24.02,22.551-24.02l-1.822-34.59L1099.68,936.03z"/>
		<path style="fill:#F47458;" d="M1120.339,925.74c-4.38,11.798-14.813,19.051-22.219,21.863l1.56-11.573l20.071-21.5
			L1120.339,925.74z"/>
		<path style="fill:#07345A;" d="M1147.973,891.021c0,5.268-2.996,9.539-6.692,9.539s-6.692-4.271-6.692-9.539
			c0-5.268,2.996-9.539,6.692-9.539S1147.973,885.752,1147.973,891.021z"/>
		<ellipse style="fill:#07345A;" cx="1119.756" cy="870.517" rx="8.142" ry="5.482"/>
		<path style="fill:#F7A491;" d="M1107.496,878.188c-10.762-3.704-22.232,3.444-23.875,14.538
			c-0.714,4.822-1.359,10.885-1.48,17.514c-0.29,15.944,7.964,31.462,15.205,31.462s27.25-10.321,27.974-32.957
			C1125.766,894.771,1118.789,882.076,1107.496,878.188z"/>
		<path style="fill:#F7A491;" d="M1119.984,910.535c0,3.517,2.332,6.369,5.208,6.369s5.208-2.852,5.208-6.369
			s-2.332-6.368-5.208-6.368S1119.984,907.018,1119.984,910.535z"/>
		<path style="fill:#07345A;" d="M1076.129,870.255c-7.479,5.924-10.099,14.926-5.854,20.106c4.246,5.181,13.75,4.577,21.229-1.348
			c7.479-5.925,10.1-14.926,5.854-20.106C1093.112,863.727,1083.608,864.331,1076.129,870.255z"/>
		<ellipse style="fill:#07345A;" cx="1102.626" cy="875.113" rx="6.943" ry="4.662"/>
		<path style="fill:#07345A;" d="M1075.021,894.926c0,3.31,2.654,5.994,5.928,5.994c3.273,0,5.927-2.684,5.927-5.994
			s-2.654-5.994-5.927-5.994C1077.675,888.933,1075.021,891.616,1075.021,894.926z"/>
		<path style="fill:#07345A;" d="M1181.166,1327.149c0,0-4.395,7.382-6.919,10.42c-3.26,3.923-7.568,7.9-7.568,7.9
			s-4.116,10.44-5.146,14.032c-2.293,7.995-4.883,17.644-3.808,21.815c0.345,1.339,3.291,3.897,5.722,2.314
			c9.377-6.107,34.438-34.713,37.004-41.815C1203.413,1333.626,1181.166,1327.149,1181.166,1327.149z"/>
	</g>
	<path style="fill:#FAE0B2;" d="M1669.339,1035.829c0,0-29.91,4.614-52,26.643c-22.091,22.029-35.285,57.414-35.285,57.414
		l45.235,13.191C1627.289,1133.077,1609.21,1090.893,1669.339,1035.829z"/>
	<path style="fill:#F7CC7F;" d="M1677.624,1057.53l-3.24-25.481l-22.828-11.774c-2.6-1.342-2.534-5.082,0.112-6.329l23.231-10.957
		l4.145-25.35c0.473-2.887,4.05-3.98,6.055-1.849l17.6,18.708l25.389-3.892c2.893-0.444,5.037,2.622,3.629,5.187l-12.354,22.519
		l11.547,22.943c1.314,2.613-0.938,5.601-3.812,5.055l-25.235-4.791l-18.253,18.072
		C1681.531,1061.651,1677.994,1060.432,1677.624,1057.53z"/>
	<path style="fill:#FAE0B2;" d="M882.379,1171.476c0,0,29.909,4.614,52,26.644c22.09,22.028,35.285,57.413,35.285,57.413
		l-45.235,13.191C924.429,1268.724,942.508,1226.539,882.379,1171.476z"/>
	<path style="fill:#F7CC7F;" d="M874.093,1193.177l3.242-25.481l22.828-11.774c2.6-1.342,2.534-5.081-0.112-6.329l-23.231-10.957
		l-4.145-25.35c-0.472-2.887-4.05-3.979-6.055-1.849l-17.6,18.709l-25.389-3.893c-2.892-0.443-5.037,2.622-3.629,5.188l12.355,22.52
		l-11.547,22.943c-1.315,2.613,0.937,5.601,3.811,5.055l25.235-4.791l18.253,18.072
		C870.187,1197.298,873.724,1196.079,874.093,1193.177z"/>
	<path style="fill:#466EB6;" d="M1871.673,1058.089l6.996-11.816l-5.769-12.461c-0.657-1.419,0.599-2.977,2.125-2.634l13.399,3.002
		l10.069-9.337c1.147-1.063,3.016-0.351,3.161,1.207l1.286,13.671l11.991,6.691c1.366,0.762,1.266,2.759-0.171,3.38l-12.604,5.447
		l-2.658,13.473c-0.302,1.534-2.232,2.056-3.267,0.882l-9.076-10.305l-13.634,1.636
		C1871.969,1061.11,1870.876,1059.435,1871.673,1058.089z"/>
	<path style="fill:#F79C8D;" d="M1196.615,523.53l8.827-14.91l-7.278-15.723c-0.829-1.791,0.755-3.755,2.681-3.324l16.907,3.788
		l12.705-11.781c1.447-1.342,3.805-0.441,3.99,1.523l1.623,17.25l15.13,8.442c1.723,0.962,1.596,3.482-0.215,4.265l-15.905,6.874
		l-3.354,16.999c-0.382,1.936-2.818,2.594-4.123,1.113l-11.452-13.002l-17.203,2.063
		C1196.988,527.342,1195.609,525.229,1196.615,523.53z"/>
	<polygon style="fill:#F48C7F;" points="1844.456,560.561 1821.15,576.115 1834.185,598.742 1811.901,615.078 1821.69,638.238 
		1807.015,653.19 1814.582,660.619 1834.212,640.623 1824.936,618.675 1848.115,601.68 1835.297,579.425 1856.417,565.331 	"/>
	<polygon style="fill:#F48C7F;" points="1880.257,935.44 1863.769,912.784 1841.689,926.726 1824.463,905.124 1801.719,915.845 
		1786.185,901.787 1779.067,909.651 1799.845,928.453 1821.398,918.293 1839.319,940.765 1861.036,927.053 1875.976,947.584 	"/>
	<polygon style="fill:#F48C7F;" points="1107.551,466.19 1113.147,438.736 1087.959,431.846 1092.278,404.557 1069.02,395.005 
		1068.912,374.054 1058.307,374.108 1058.449,402.129 1080.491,411.181 1075.999,439.57 1100.771,446.346 1095.7,471.226 	"/>
	<polygon style="fill:#F7CC7F;" points="889.673,502.706 900.34,522.625 923.346,521.337 933.721,544.512 957.802,535.583 
		970.692,561.273 993.881,555.787 1010.324,578.477 1001.736,584.7 989.441,567.735 964.973,573.525 952.582,548.83 
		928.098,557.907 916.648,532.334 894.182,533.592 884.295,515.13 869.715,519.042 866.966,508.797 	"/>
	<polygon style="fill:#50BFA5;" points="790.438,659.979 773.457,661.703 767.666,634.688 742.528,634.145 734.889,614.637 
		725.013,618.504 735.23,644.596 759.053,645.109 765.078,673.213 790.629,670.62 	"/>
	<polygon style="fill:#50BFA5;" points="759.893,952.877 753.537,968.717 726.92,961.308 714.773,983.323 693.947,981.034 
		692.789,991.576 720.642,994.638 732.154,973.774 759.844,981.482 769.406,957.646 	"/>
	<g>
		<path style="fill:#FFF3D9;" d="M805.008,775.7c18.842,18.072,19.466,47.997,1.394,66.839
			c-18.072,18.842-47.997,19.466-66.839,1.394c-18.842-18.072-19.467-47.997-1.394-66.839
			C756.241,758.252,786.166,757.628,805.008,775.7z"/>
		<path style="fill:#FED333;" d="M803.977,815.221l-20.115,6.183l-6.31,20.075c-0.51,1.622-2.658,1.955-3.635,0.564l-12.096-17.22
			l-21.043,0.203c-1.7,0.016-2.681-1.924-1.659-3.283l12.639-16.825l-6.695-19.95c-0.541-1.612,1.001-3.144,2.609-2.593
			l19.907,6.821l16.905-12.532c1.366-1.013,3.299-0.019,3.273,1.681l-0.336,21.041l17.143,12.205
			C805.949,812.575,805.602,814.722,803.977,815.221z"/>
	</g>
	<g>
		<path style="fill:#FFF3D9;" d="M2039.955,854.378c18.842,18.072,19.466,47.997,1.394,66.838
			c-18.071,18.842-47.996,19.467-66.838,1.395c-18.842-18.072-19.467-47.997-1.395-66.839S2021.114,836.306,2039.955,854.378z"/>
		<path style="fill:#FED333;" d="M2038.925,893.899l-20.115,6.183l-6.311,20.075c-0.51,1.622-2.658,1.955-3.635,0.564l-12.096-17.22
			l-21.043,0.203c-1.7,0.016-2.682-1.924-1.66-3.283l12.639-16.825l-6.694-19.95c-0.542-1.612,1.001-3.145,2.608-2.593l19.908,6.821
			l16.904-12.532c1.366-1.012,3.3-0.02,3.273,1.681l-0.336,21.041l17.143,12.205C2040.896,891.253,2040.55,893.399,2038.925,893.899
			z"/>
	</g>
	<path style="fill:#F47458;" d="M1826.618,795.074l8.264,13.728c0.895,1.487,3.106,1.303,3.742-0.313l5.869-14.91l15.609-3.617
		c1.691-0.392,2.199-2.552,0.859-3.656l-12.365-10.189l1.383-15.963c0.15-1.729-1.748-2.88-3.212-1.947l-13.511,8.612l-14.756-6.249
		c-1.598-0.677-3.278,0.773-2.844,2.453l4.016,15.512l-10.502,12.102c-1.138,1.311-0.279,3.357,1.454,3.463L1826.618,795.074z"/>
	<path style="fill:#50BFA5;" d="M1797.612,1109.524c0,5.288-4.288,9.576-9.576,9.576c-5.29,0-9.577-4.288-9.577-9.576
		c0-5.29,4.287-9.577,9.577-9.577C1793.324,1099.947,1797.612,1104.234,1797.612,1109.524z"/>
	<path style="fill:#50BFA5;" d="M676.778,819.221c0,5.289-4.645,9.577-10.374,9.577c-5.73,0-10.375-4.288-10.375-9.577
		s4.645-9.577,10.375-9.577C672.133,809.644,676.778,813.932,676.778,819.221z"/>
	<g>
		<path style="fill:#96D9C9;" d="M1219.284,361.107l12.572,2.483c0,0,18.377-8.584,19.779-12.721
			c1.4-4.137,0.757-13.673,3.448-14.27c2.692-0.597,8.068-0.365,10.127,5.96c1.495,4.591-3.705,19.044-2.449,20.358
			c0.785,0.822,7.97,2.456,13.239,3.564c3.464,0.729,6.225,3.355,7.173,6.818l0.003,0.01c0.641,2.341-0.421,4.831-2.546,5.971
			l-3.308,1.773l1.555,3.45c1.157,2.568,0.051,5.621-2.477,6.833l-2.576,1.235l1.131,2.078c1.457,2.677,0.294,6.063-2.493,7.264
			l-2.263,0.974l0.174,0.616c0.728,2.562-0.596,5.278-3.048,6.257l-2.256,0.901l-33.483-6.618c-3.137-0.621-6.111-1.887-8.741-3.722
			l-11.382-4.31c-1.224-0.463-1.923-1.769-1.644-3.071l6.359-29.748C1216.486,361.756,1217.869,360.827,1219.284,361.107z"/>
	</g>
</g>
</svg>
