<svg width="678" height="354" viewBox="0 0 678 354" fill="none" xmlns="http://www.w3.org/2000/svg">
<path d="M617.419 351.986H49.2976C38.0816 322.425 15.3116 251.494 34.5496 205.334C59.3766 145.779 112.065 209.617 128.786 162.499C145.507 115.381 126.25 34.3244 215.413 6.46342C304.586 -21.4076 329.911 49.0164 364.366 63.2004C398.812 77.3844 407.426 36.3534 470.748 37.8754C534.079 39.3874 535.347 86.7594 525.465 130.833C515.583 174.908 528.509 193.018 569.539 182.826C610.581 172.635 651.612 222.046 617.419 351.986Z" fill="#EBF7FC"/>
<path d="M159.294 353.179C159.294 353.179 152.413 211.361 90.4845 163.001C28.5565 114.641 48.4345 205.622 78.2515 243.849C108.069 282.076 152.413 353.179 152.413 353.179H159.294Z" fill="#E2BFCD"/>
<path d="M84.4565 185.373C84.4565 185.373 121.02 216.461 159.294 353.179H154.577C154.577 353.179 126.751 253.341 84.4565 185.373Z" fill="white"/>
<path d="M105.021 189.718C104.557 191.563 104.128 193.412 103.752 195.268C103.35 197.121 103.021 198.983 102.66 200.841C101.993 204.564 101.398 208.295 100.855 212.033L102.558 210.897C99.7815 210.114 97.0185 209.28 94.2245 208.562L90.0415 207.455L85.8385 206.419C83.0305 205.75 80.2165 205.103 77.3835 204.527C74.5525 203.943 71.7095 203.399 68.8315 202.984C71.5145 204.106 74.2325 205.098 76.9625 206.05C79.6895 207.011 82.4365 207.899 85.1895 208.767L89.3285 210.035L93.4865 211.232C96.2535 212.05 99.0515 212.753 101.837 213.506L103.376 213.922L103.54 212.37C103.938 208.614 104.284 204.851 104.559 201.079C104.669 199.19 104.81 197.304 104.878 195.41C104.972 193.518 105.015 191.62 105.021 189.718Z" fill="white"/>
<path d="M121.875 221.79C121.411 223.635 120.982 225.484 120.606 227.34C120.204 229.193 119.874 231.055 119.513 232.913C118.846 236.636 118.251 240.367 117.708 244.105L119.411 242.969C116.635 242.186 113.872 241.352 111.078 240.634L106.895 239.527L102.692 238.491C99.8836 237.822 97.0696 237.175 94.2366 236.599C91.4056 236.015 88.5626 235.471 85.6846 235.056C88.3676 236.178 91.0856 237.17 93.8156 238.122C96.5426 239.083 99.2896 239.971 102.043 240.839L106.182 242.107L110.34 243.304C113.107 244.122 115.905 244.825 118.69 245.578L120.229 245.994L120.393 244.442C120.791 240.686 121.137 236.923 121.411 233.151C121.521 231.262 121.662 229.376 121.731 227.482C121.827 225.59 121.869 223.692 121.875 221.79Z" fill="white"/>
<path d="M137.733 255.933C137.002 257.69 136.307 259.456 135.662 261.236C134.992 263.009 134.392 264.802 133.762 266.587C132.555 270.171 131.417 273.774 130.33 277.392L132.182 276.519C129.551 275.336 126.941 274.105 124.283 272.983L120.308 271.272L116.303 269.629C113.624 268.555 110.936 267.5 108.218 266.514C105.503 265.52 102.772 264.564 99.9856 263.73C102.475 265.234 105.018 266.615 107.577 267.959C110.133 269.31 112.72 270.594 115.315 271.857L119.222 273.72L123.159 275.516C125.775 276.732 128.44 277.839 131.083 278.993L132.544 279.631L132.935 278.12C133.881 274.463 134.777 270.792 135.603 267.101C135.989 265.248 136.406 263.404 136.753 261.54C137.126 259.685 137.447 257.814 137.733 255.933Z" fill="white"/>
<path d="M18.4596 296.188C41.5676 325.383 107.398 343.635 126.824 348.501C130.29 349.365 132.282 349.807 132.282 349.807H135.917C135.917 349.807 111.635 304.502 82.3926 280.99C53.1506 257.487 25.0546 244.872 11.8656 246.3C-1.32239 247.736 -8.78139 261.78 18.4596 296.188Z" fill="#E2BFCD"/>
<path d="M30.5496 264.87C66.0106 288.589 101.452 322.246 126.824 348.501C130.29 349.365 132.282 349.807 132.282 349.807H135.194C65.6626 274.968 30.5496 264.87 30.5496 264.87Z" fill="white"/>
<path d="M67.8095 274.38C69.0925 278.218 70.4985 282.001 71.9755 285.751C72.6925 287.636 73.4735 289.492 74.2245 291.362C74.9685 293.235 75.7805 295.077 76.5575 296.935L77.5325 295.13C73.8225 295.614 70.1305 296.208 66.4325 296.769C62.7435 297.383 59.0505 297.973 55.3735 298.666C53.5315 298.992 51.6935 299.339 49.8595 299.711C48.0225 300.069 46.1875 300.434 44.3575 300.834C40.6925 301.605 37.0385 302.442 33.4045 303.406C37.1585 303.203 40.8935 302.873 44.6165 302.477C46.4805 302.293 48.3395 302.076 50.1975 301.85C52.0575 301.638 53.9125 301.402 55.7655 301.144C59.4765 300.67 63.1725 300.094 66.8715 299.541C70.5625 298.935 74.2575 298.362 77.9365 297.679L79.6335 297.364L78.9125 295.874C78.0355 294.061 77.1935 292.233 76.2825 290.435C75.3795 288.634 74.5065 286.819 73.5695 285.033C71.7365 281.443 69.8355 277.884 67.8095 274.38Z" fill="white"/>
<path d="M89.5986 292.825C90.0006 294.619 90.4346 296.401 90.9196 298.165C91.3796 299.938 91.9076 301.687 92.4066 303.445L94.0226 308.679L95.7356 313.878L96.7456 312.094C93.9846 312.626 91.2136 313.101 88.4656 313.698L84.3376 314.561L80.2236 315.498C77.4856 316.144 74.7516 316.813 72.0326 317.555C69.3116 318.288 66.5996 319.063 63.9126 319.969C66.7416 319.784 69.5456 319.467 72.3406 319.109C75.1376 318.759 77.9196 318.337 80.6976 317.892L84.8576 317.192L89.0036 316.418C91.7716 315.923 94.5156 315.307 97.2706 314.748L98.8526 314.427L98.2806 312.964L96.2886 307.865L94.1996 302.801C93.4646 301.127 92.7566 299.443 91.9816 297.783C91.2316 296.114 90.4316 294.464 89.5986 292.825Z" fill="white"/>
<path d="M590.551 128.704C590.551 128.704 539.459 153.397 520.286 215.032C504.545 265.634 521.545 285.461 528.137 290.939C525.728 308.918 523.638 329.393 522.091 352.69L526.708 351.722C526.708 351.722 528.366 326.338 533.373 291.583C560.067 280.839 573.98 251.551 573.784 217.171C573.58 181.585 590.551 128.704 590.551 128.704Z" fill="#E2BFCD"/>
<path d="M547.456 235.109L551.28 233.084L555.07 230.993C557.586 229.579 560.093 228.145 562.565 226.645C565.041 225.153 567.497 223.624 569.893 221.975C567.161 222.972 564.492 224.088 561.841 225.24C559.186 226.385 556.564 227.596 553.953 228.827L550.052 230.704L546.186 232.646C545.291 233.088 544.408 233.552 543.522 234.013C546.046 224.32 548.977 213.728 552.343 202.479C553.316 201.914 554.287 201.343 555.246 200.746L558.301 198.88L561.326 196.948C563.333 195.639 565.331 194.31 567.299 192.914C569.27 191.526 571.224 190.1 573.124 188.554C570.924 189.44 568.779 190.447 566.651 191.49C564.52 192.526 562.419 193.63 560.328 194.753L557.206 196.469L554.113 198.251C553.911 198.365 553.714 198.489 553.512 198.605C557.756 184.652 562.658 169.755 568.281 154.348C568.281 154.348 558.549 169.161 548.643 200.076C547.728 197.403 546.798 194.736 545.828 192.084C545.16 190.322 544.515 188.552 543.815 186.802C543.135 185.045 542.415 183.303 541.667 181.571C542.063 183.435 542.487 185.289 542.951 187.128C543.395 188.974 543.895 190.799 544.37 192.634C545.363 196.287 546.411 199.919 547.5 203.536L547.529 203.631C544.734 212.697 541.952 223.044 539.401 234.713C538.412 232.072 537.404 229.438 536.346 226.821C535.612 225.077 534.907 223.322 534.133 221.591C533.384 219.852 532.586 218.129 531.753 216.419C532.15 218.28 532.581 220.128 533.061 221.96C533.517 223.8 534.041 225.617 534.536 227.443C535.579 231.078 536.69 234.69 537.851 238.285L538.33 239.77C536.443 248.929 534.708 258.853 533.216 269.553C531.939 267.257 530.645 264.969 529.312 262.702C528.33 261.085 527.374 259.453 526.354 257.855C525.357 256.245 524.315 254.659 523.24 253.09C523.906 254.872 524.604 256.637 525.349 258.378C526.07 260.131 526.857 261.851 527.616 263.584C529.182 267.027 530.812 270.436 532.488 273.821L532.608 274.063C531.831 280.028 531.128 286.217 530.52 292.649C530.52 292.649 531.596 286.076 533.971 274.657L534.479 274.295C536.829 272.623 539.21 270.992 541.521 269.265L545.005 266.7L548.448 264.074C550.729 262.305 552.996 260.518 555.221 258.671C557.45 256.831 559.657 254.957 561.784 252.974C559.229 254.362 556.752 255.858 554.299 257.388C551.841 258.911 549.427 260.495 547.025 262.096L543.443 264.526L539.904 267.016C538.181 268.21 536.494 269.454 534.807 270.696C536.703 261.825 539.273 250.589 542.595 237.613C544.223 236.797 545.851 235.974 547.456 235.109Z" fill="#A9A9A9"/>
<path d="M545.611 347.785C545.611 347.785 561.022 233.458 618.758 198.746C676.494 164.034 652.986 236.269 624.202 265.081C595.418 293.892 551.671 348.279 551.671 348.279L545.611 347.785Z" fill="#E2BFCD"/>
<path d="M622.592 217.292C622.592 217.292 588.337 239.84 545.611 347.785L549.765 348.123C549.765 348.123 580.858 269.287 622.592 217.292Z" fill="#A9A9A9"/>
<path d="M604.192 219.335C604.479 220.862 604.735 222.39 604.944 223.92C605.176 225.449 605.343 226.98 605.539 228.51C605.881 231.572 606.159 234.636 606.391 237.701L604.966 236.659C607.463 236.224 609.951 235.747 612.46 235.366L616.217 234.77L619.987 234.232C622.504 233.892 625.025 233.569 627.559 233.306C630.091 233.036 632.631 232.8 635.193 232.67C632.756 233.386 630.296 233.994 627.829 234.569C625.363 235.151 622.885 235.674 620.403 236.179L616.674 236.909L612.932 237.58C610.441 238.044 607.93 238.412 605.427 238.822L604.044 239.049L604.002 237.781C603.899 234.711 603.843 231.64 603.849 228.566C603.877 227.028 603.877 225.492 603.942 223.953C603.985 222.415 604.073 220.875 604.192 219.335Z" fill="#A9A9A9"/>
<path d="M587.233 244.092C587.52 245.619 587.775 247.147 587.984 248.677C588.216 250.206 588.383 251.737 588.579 253.267C588.921 256.329 589.199 259.393 589.431 262.458L588.006 261.416C590.503 260.981 592.991 260.504 595.5 260.123L599.258 259.526L603.028 258.988C605.545 258.648 608.066 258.326 610.6 258.063C613.132 257.793 615.672 257.557 618.234 257.427C615.797 258.143 613.337 258.751 610.87 259.326C608.405 259.908 605.926 260.431 603.444 260.936L599.715 261.666L595.973 262.337C593.482 262.801 590.971 263.169 588.468 263.579L587.085 263.806L587.042 262.538C586.939 259.468 586.883 256.397 586.889 253.323C586.917 251.785 586.917 250.249 586.981 248.71C587.025 247.172 587.113 245.633 587.233 244.092Z" fill="#A9A9A9"/>
<path d="M571.014 270.599C571.542 272.074 572.038 273.553 572.489 275.041C572.963 276.525 573.372 278.02 573.81 279.51C574.637 282.498 575.402 285.497 576.121 288.504L574.548 287.665C576.943 286.896 579.323 286.087 581.738 285.369L585.352 284.269L588.988 283.226C591.419 282.548 593.856 281.887 596.315 281.284C598.772 280.674 601.241 280.096 603.749 279.62C601.458 280.659 599.127 281.595 596.783 282.499C594.442 283.41 592.08 284.263 589.71 285.1L586.146 286.328L582.56 287.5C580.175 288.297 577.755 289.002 575.351 289.747L574.022 290.159L573.777 288.908C573.185 285.879 572.638 282.843 572.153 279.796C571.935 278.268 571.689 276.745 571.507 275.211C571.301 273.68 571.142 272.142 571.014 270.599Z" fill="#A9A9A9"/>
<path d="M654.856 329.79C630.628 348.128 575.626 348.766 559.507 348.541C556.632 348.498 554.992 348.429 554.992 348.429L552.172 347.663C552.172 347.663 580.789 316.767 608.547 304.239C636.303 291.718 660.82 287.61 670.742 291.524C680.662 295.445 683.415 308.18 654.856 329.79Z" fill="#E2BFCD"/>
<path d="M652.241 302.349C619.614 313.731 584.856 333.017 559.508 348.541C556.633 348.498 554.993 348.429 554.993 348.429L552.734 347.815C622.825 302.978 652.241 302.349 652.241 302.349Z" fill="#A9A9A9"/>
<path d="M621.286 302.058C619.462 304.839 617.555 307.549 615.599 310.219C614.636 311.566 613.629 312.877 612.643 314.205C611.662 315.537 610.634 316.83 609.63 318.143L609.263 316.503C612.036 317.669 614.772 318.92 617.519 320.145C620.248 321.41 622.985 322.658 625.688 323.983C627.046 324.63 628.397 325.293 629.74 325.975C631.087 326.646 632.432 327.324 633.765 328.027C636.441 329.412 639.095 330.847 641.705 332.379C638.837 331.427 636.011 330.378 633.209 329.278C631.803 328.739 630.408 328.175 629.016 327.604C627.619 327.044 626.231 326.465 624.85 325.87C622.073 324.711 619.332 323.475 616.582 322.255C613.85 320.996 611.107 319.762 608.401 318.444L607.153 317.836L608.034 316.803C609.106 315.547 610.154 314.271 611.248 313.033C612.338 311.792 613.407 310.533 614.519 309.311C616.715 306.845 618.958 304.416 621.286 302.058Z" fill="#A9A9A9"/>
<path d="M600.403 312.128C599.704 313.469 598.982 314.795 598.225 316.094C597.485 317.406 596.699 318.685 595.931 319.978L593.547 323.798L591.096 327.57L590.698 325.939C592.725 326.943 594.772 327.905 596.774 328.958L599.79 330.514L602.778 332.126C604.762 333.216 606.738 334.324 608.687 335.486C610.639 336.642 612.576 337.829 614.464 339.116C612.309 338.373 610.203 337.53 608.113 336.657C606.019 335.79 603.952 334.868 601.894 333.929L598.818 332.496L595.769 331.007C593.729 330.03 591.733 328.963 589.717 327.938L588.559 327.35L589.318 326.307L591.964 322.674L594.678 319.089C595.61 317.913 596.522 316.724 597.481 315.568C598.426 314.398 599.403 313.255 600.403 312.128Z" fill="#A9A9A9"/>
<path d="M558.882 28.5585V160.396C558.882 167.178 552.841 172.683 545.392 172.683H317.354C309.905 172.683 303.865 167.178 303.865 160.396V28.5585C303.865 28.4645 303.865 28.3705 303.874 28.2865C304.024 21.6265 310.008 16.2725 317.354 16.2725H545.392C552.738 16.2725 558.721 21.6265 558.872 28.2865C558.881 28.3715 558.882 28.4645 558.882 28.5585Z" fill="#DFDCF4"/>
<path d="M340.856 110.61H335.03V155.389H340.856V110.61Z" fill="#A5A3CC"/>
<path d="M488.976 44.1831V155.389H326.615V156.206H488.976H489.793V44.1831H488.976Z" fill="#A5A3CC"/>
<path d="M471.299 56.8975H465.473V155.389H471.299V56.8975Z" fill="#A5A3CC"/>
<path d="M445.211 70.3823H439.385V155.389H445.211V70.3823Z" fill="#A5A3CC"/>
<path d="M419.122 97.4385H413.296V155.389H419.122V97.4385Z" fill="#A5A3CC"/>
<path d="M393.034 82.6411H387.208V155.389H393.034V82.6411Z" fill="#A5A3CC"/>
<path d="M366.944 97.4385H361.118V155.389H366.944V97.4385Z" fill="#A5A3CC"/>
<path d="M338.457 98.2242L337.427 96.6522L390.148 62.1392L416.182 81.0192L467.801 39.8882L468.973 41.3582L416.236 83.3792L390.093 64.4212L338.457 98.2242Z" fill="#A5A3CC"/>
<path d="M463.053 38.8633L468.666 45.9953L472.315 37.4033L463.053 38.8633Z" fill="#A5A3CC"/>
<path d="M363.486 158.675H362.271V159.89H363.486V158.675Z" fill="#96B4D6"/>
<path d="M365.792 158.675H364.577V159.89H365.792V158.675Z" fill="#96B4D6"/>
<path d="M389.576 158.675H388.361V159.89H389.576V158.675Z" fill="#96B4D6"/>
<path d="M391.881 158.675H390.666V159.89H391.881V158.675Z" fill="#96B4D6"/>
<path d="M415.663 158.675H414.448V159.89H415.663V158.675Z" fill="#96B4D6"/>
<path d="M417.969 158.675H416.754V159.89H417.969V158.675Z" fill="#96B4D6"/>
<path d="M441.753 158.675H440.538V159.89H441.753V158.675Z" fill="#96B4D6"/>
<path d="M444.059 158.675H442.844V159.89H444.059V158.675Z" fill="#96B4D6"/>
<path d="M467.841 158.675H466.626V159.89H467.841V158.675Z" fill="#96B4D6"/>
<path d="M470.148 158.675H468.933V159.89H470.148V158.675Z" fill="#96B4D6"/>
<path d="M558.872 28.2865H303.875C304.025 21.6265 310.009 16.2725 317.355 16.2725H545.393C552.738 16.2725 558.722 21.6265 558.872 28.2865Z" fill="#A5A3CC"/>
<path d="M321.184 22.2795C321.184 23.5735 320.135 24.6225 318.841 24.6225C317.547 24.6225 316.498 23.5735 316.498 22.2795C316.498 20.9855 317.547 19.9365 318.841 19.9365C320.135 19.9365 321.184 20.9855 321.184 22.2795Z" fill="white"/>
<path d="M330.967 22.2795C330.967 23.5735 329.918 24.6225 328.624 24.6225C327.33 24.6225 326.281 23.5735 326.281 22.2795C326.281 20.9855 327.33 19.9365 328.624 19.9365C329.918 19.9365 330.967 20.9855 330.967 22.2795Z" fill="white"/>
<path d="M340.751 22.2795C340.751 23.5735 339.702 24.6225 338.408 24.6225C337.114 24.6225 336.065 23.5735 336.065 22.2795C336.065 20.9855 337.114 19.9365 338.408 19.9365C339.702 19.9365 340.751 20.9855 340.751 22.2795Z" fill="white"/>
<path d="M540.361 108.085C540.361 108.085 528.545 122.567 518.339 118.89C513.818 117.261 512.102 114.468 511.584 111.869C510.946 108.597 512.209 105.619 512.209 105.619L514.855 104.814L517.455 97.9117L530.022 89.8657C531.232 90.1647 532.768 90.5907 534.118 90.9697C534.251 92.8377 534.45 95.0857 534.723 96.7817C534.823 97.3797 534.929 97.9117 535.049 98.3377C535.86 101.229 540.361 108.085 540.361 108.085Z" fill="#EFACA5"/>
<path d="M534.723 96.7807C533.094 100.704 526.99 112.194 511.584 111.868C510.946 108.596 512.209 105.618 512.209 105.618L514.855 104.813L517.455 97.9108L530.022 89.8647C531.232 90.1637 532.768 90.5897 534.118 90.9688C534.251 92.8377 534.45 95.0857 534.723 96.7807Z" fill="#D98A88"/>
<path d="M509.148 84.1963C508.638 86.2383 505.888 87.3103 503.006 86.5903C500.124 85.8713 498.2 83.6323 498.71 81.5903C499.22 79.5483 501.97 78.4763 504.852 79.1963C507.735 79.9163 509.658 82.1543 509.148 84.1963Z" fill="#D98A88"/>
<path d="M537.334 81.5464C536.838 91.8304 527.452 100.128 518.115 100.08C508.778 100.032 503.465 91.6554 503.961 81.3714C504.457 71.0874 503.929 62.8374 521.325 62.8374C530.663 62.8374 537.83 71.2614 537.334 81.5464Z" fill="#EFACA5"/>
<path d="M511.969 81.4595C511.969 81.4595 510.858 84.3525 511.933 87.2215" stroke="#DD4B47" stroke-miterlimit="10" stroke-linecap="round"/>
<path d="M517.454 80.7955C517.454 81.3275 517.313 81.7595 517.14 81.7595C516.967 81.7595 516.826 81.3285 516.826 80.7955C516.826 80.2625 516.966 79.8315 517.14 79.8315C517.313 79.8315 517.454 80.2625 517.454 80.7955Z" stroke="#2C1106" stroke-miterlimit="10" stroke-linecap="round"/>
<path d="M506.79 79.8317C506.79 80.3637 506.649 80.7957 506.476 80.7957C506.303 80.7957 506.162 80.3637 506.162 79.8317C506.162 79.2997 506.303 78.8677 506.476 78.8677C506.65 78.8677 506.79 79.2997 506.79 79.8317Z" stroke="#2C1106" stroke-miterlimit="10" stroke-linecap="round"/>
<path d="M505.127 71.4624C505.127 71.4624 511.582 78.2764 529.154 73.2554C529.154 73.2554 529.716 78.7854 532.214 80.7944C534.712 82.8034 541.281 68.9234 532.214 66.7184C523.147 64.5144 516.019 64.6484 514.943 64.7824C513.867 64.9164 511.577 65.1854 510.235 65.7234C508.892 66.2614 504.331 69.8384 504.331 69.8384L505.127 71.4624Z" fill="#D98A88"/>
<path d="M502.975 67.6077C502.975 67.6077 500.672 78.4557 503.93 82.8937C503.93 82.8937 504.768 73.8837 506.202 69.3117C507.637 64.7387 502.975 67.6077 502.975 67.6077Z" fill="#2C1106"/>
<path d="M539.913 84.5595L534.573 86.4295C534.573 86.4295 531.013 80.8495 530.743 71.4395C530.743 71.4395 517.163 75.7495 507.753 71.7095C504.953 70.5095 503.053 69.0695 501.843 67.5195C501.803 67.4695 501.763 67.4095 501.723 67.3595C498.983 63.7095 499.973 59.4295 502.173 56.0395C506.473 49.3995 528.853 45.9795 535.823 58.8195C535.943 59.0395 536.053 59.2595 536.163 59.4795C536.663 60.4995 537.063 61.6195 537.353 62.8395C537.353 62.8395 548.433 66.7095 539.913 84.5595Z" fill="#2C1106"/>
<path d="M535.823 58.8195C530.963 55.8695 520.473 50.7195 511.463 54.4395C503.333 57.7895 501.823 63.7595 501.723 67.3595C498.983 63.7095 499.973 59.4295 502.173 56.0395C506.473 49.3995 528.853 45.9795 535.823 58.8195Z" fill="#683518"/>
<path d="M542.738 86.8144C542.738 88.9184 540.33 90.6244 537.359 90.6244C534.388 90.6244 531.979 88.9184 531.979 86.8144C531.979 84.7104 534.389 83.0044 537.359 83.0044C540.329 83.0044 542.738 84.7094 542.738 86.8144Z" fill="#EFACA5"/>
<path d="M505.294 75.8514C505.294 75.8514 508.04 74.1034 510.234 76.3894" stroke="#2C1106" stroke-miterlimit="10" stroke-linecap="round"/>
<path d="M516.301 76.4393C516.301 76.4393 519.166 74.6913 521.455 76.9773" stroke="#2C1106" stroke-miterlimit="10" stroke-linecap="round"/>
<path d="M535.601 82.2184L532.215 80.7944C532.215 80.7944 530.812 90.1134 523.01 94.3074C522.758 92.9854 521.34 88.1274 514.111 88.4014C508.161 88.6264 507.57 91.2254 507.723 92.7044C505.886 90.4054 504.58 87.1084 503.924 82.8954C503.924 82.8954 500.008 91.5464 503.233 98.5344C506.465 105.529 513.833 108.082 520.635 106.068C527.443 104.054 535.922 94.4784 535.601 82.2184Z" fill="#2C1106"/>
<path d="M510.912 90.8456C510.912 90.8456 514.409 90.9356 518.532 90.0386C518.532 90.0386 518.173 92.7286 515.305 93.8036C512.436 94.8796 511.091 92.4596 510.912 90.8456Z" fill="white"/>
<path d="M495.368 228.803C494.656 230.498 493.433 228.451 493.433 228.451C493.433 228.451 493.18 231.536 491.957 230.413C490.833 229.376 490.108 225.785 490.002 225.233C490.042 225.559 490.228 226.928 490.228 227.999C490.228 229.229 488.871 231.383 487.535 226.383C486.77 223.517 486.75 217.327 486.877 212.553C486.963 208.989 487.136 206.216 487.136 206.216L493.952 206.562L494.484 206.589C494.483 206.587 496.079 227.107 495.368 228.803Z" fill="#EFACA5"/>
<path d="M494.802 212.126L486.876 212.552C486.962 208.988 487.135 206.215 487.135 206.215L493.951 206.561C494.357 209.187 494.802 212.126 494.802 212.126Z" fill="#D88B87"/>
<path d="M501.959 111.62C501.959 111.62 501.807 111.757 501.538 112.054C499.828 113.943 493.4 122.299 491.277 143.096C488.82 167.168 484.672 206.033 484.672 206.033L495.251 209.44L501.959 111.62Z" fill="#3B95ED"/>
<path d="M483.808 205.958L484.009 200.583L498.745 201.158L494.753 209.846L483.808 205.958Z" fill="#52ACF7"/>
<path d="M538.88 332.399L539.417 339.123H557.034L555.958 331.592L538.88 332.399Z" fill="#EFACA5"/>
<path d="M575.012 351.987H535.655C535.642 350.963 535.695 349.939 535.801 348.942C536.373 343.396 538.434 338.629 538.434 338.629L557.033 338.855C557.033 338.855 565.152 340.245 570.351 343.47C572.951 345.086 574.113 347.22 574.632 348.942C575.145 350.664 575.012 351.987 575.012 351.987Z" fill="#021C3D"/>
<path d="M575.012 351.987H535.655C535.642 350.963 535.695 349.939 535.801 348.942H574.634C575.146 350.664 575.012 351.987 575.012 351.987Z" fill="#0F43A9"/>
<path d="M514.199 332.399L513.661 339.123H496.044L497.12 331.592L514.199 332.399Z" fill="#EFACA5"/>
<path d="M478.068 351.987H517.425C517.438 350.963 517.385 349.939 517.279 348.942C516.707 343.396 514.646 338.629 514.646 338.629L496.048 338.855C496.048 338.855 487.929 340.245 482.729 343.47C480.129 345.086 478.966 347.22 478.447 348.942C477.935 350.664 478.068 351.987 478.068 351.987Z" fill="#021C3D"/>
<path d="M478.068 351.987H517.425C517.438 350.963 517.385 349.939 517.279 348.942H478.447C477.935 350.664 478.068 351.987 478.068 351.987Z" fill="#0F43A9"/>
<path d="M560.475 334.237H534.297L522.117 237.773L519.477 289.703L517.704 334.417L493.314 334.058L493.425 174.658L547.756 178.401L548.275 185.542L560.475 334.237Z" fill="#0F43A9"/>
<path d="M548.276 185.542C512.363 195.084 493.426 182.955 493.426 182.955V174.657L547.757 178.401L548.276 185.542Z" fill="#0D339E"/>
<path d="M522.117 237.773L519.478 289.703L519.371 289.411L510.854 213.383H519.371L522.117 237.773Z" fill="#0D339E"/>
<path d="M512.489 186.567C512.489 186.567 514.41 210.634 518.432 216.114" stroke="#0B2A84" stroke-miterlimit="10" stroke-linecap="round" stroke-linejoin="round"/>
<path d="M508.117 186.567C508.117 186.567 508.547 200.095 513.927 199.975" stroke="#0B2A84" stroke-miterlimit="10" stroke-linecap="round" stroke-linejoin="round"/>
<path d="M542.707 185.541L557.034 330.038" stroke="#0B2A84" stroke-miterlimit="10" stroke-linecap="round" stroke-linejoin="round"/>
<path d="M543.881 197.379C543.881 197.379 538.364 197.756 535.741 186.566" stroke="#0B2A84" stroke-miterlimit="10" stroke-linecap="round" stroke-linejoin="round"/>
<path d="M534.34 330.038H558.9" stroke="#0B2A84" stroke-miterlimit="10" stroke-linecap="round" stroke-linejoin="round"/>
<path d="M516.928 330.038H494.118" stroke="#0B2A84" stroke-miterlimit="10" stroke-linecap="round" stroke-linejoin="round"/>
<path d="M538.567 105.227C538.567 105.227 546.413 106.384 551.793 111.875C557.172 117.366 547.49 169.544 549.103 182.992C549.103 182.992 505.531 190.67 491.276 179.374C491.276 179.374 493.131 139.128 497.178 120.344C498.351 114.901 502.049 110.328 507.15 108.096C508.623 107.451 510.254 106.821 511.97 106.296C511.97 106.296 511.112 114.744 518.778 115.752C526.443 116.761 536.774 108.993 538.567 105.227Z" fill="#2D79E9"/>
<path d="M516.537 167.26L512.085 168.287C512.085 168.287 509.844 163.177 507.154 162.101C504.464 161.025 499.085 158.515 497.472 158.246C495.858 157.977 495.589 159.591 497.472 161.025C499.355 162.459 502.313 164.611 502.313 164.611C502.313 164.611 498.01 164.402 494.423 163.251C490.837 162.1 486.713 159.142 486.041 158.918C485.369 158.694 483.71 158.425 483.979 160.173C484.248 161.921 490.838 166.763 494.513 167.793C494.513 167.793 490.927 167.928 488.82 167.165C486.713 166.403 484.248 164.386 483.396 164.7C482.544 165.014 482.41 166.583 483.082 167.21C483.082 167.21 482.006 168.555 483.486 170.348C483.486 170.348 483.127 171.469 485.055 173.172C486.983 174.875 492.338 177.879 499.119 178.237C505.9 178.596 515.582 178.237 515.582 178.237L516.537 167.26Z" fill="#EFACA5"/>
<path d="M493.346 170.888C487.496 170.821 483.082 167.212 483.082 167.212" stroke="#DD4B47" stroke-width="0.75" stroke-miterlimit="10" stroke-linecap="round"/>
<path d="M483.485 170.351C483.485 170.351 487.451 174.654 493.727 174.654" stroke="#DD4B47" stroke-width="0.75" stroke-miterlimit="10" stroke-linecap="round"/>
<path d="M539.821 118.307C543.586 106.742 549.772 109.566 552.462 112.659C555.152 115.752 562.638 133.952 562.458 168.02C562.458 168.02 562.548 172.772 560.934 174.789C559.32 176.806 548.831 179.227 541.3 179.361C533.769 179.496 514.673 178.554 514.673 178.554L515.768 166.991L539.82 161.879C539.82 161.879 536.056 129.873 539.821 118.307Z" fill="#3B95ED"/>
<path d="M515.769 166.991L521.03 165.873L524.074 180.302L514.673 178.554L515.769 166.991Z" fill="#52ACF7"/>
<path d="M538.567 105.227C538.567 105.227 534.369 116.803 523.82 120.568L516.884 115.301C516.884 115.301 530.667 112.416 538.567 105.227Z" fill="#52ACF7"/>
<path d="M516.333 115.076L510.13 118.994C510.13 118.994 506.023 109.933 511.97 106.295C511.97 106.295 512.308 113.044 516.333 115.076Z" fill="#52ACF7"/>
<path d="M515.388 121.468C516.089 121.468 516.658 120.899 516.658 120.198C516.658 119.496 516.089 118.928 515.388 118.928C514.686 118.928 514.118 119.496 514.118 120.198C514.118 120.899 514.686 121.468 515.388 121.468Z" fill="#52ACF7"/>
<path d="M514.722 127.956C515.423 127.956 515.992 127.387 515.992 126.686C515.992 125.984 515.423 125.416 514.722 125.416C514.02 125.416 513.452 125.984 513.452 126.686C513.452 127.387 514.02 127.956 514.722 127.956Z" fill="#52ACF7"/>
<path d="M129.975 284.904L119.896 352.369H113.108L123.393 284.904H129.975Z" fill="#FA8595"/>
<path d="M124.895 280.893H118.228L115.276 261.145L114.186 253.846H120.768L121.882 261.145L124.895 280.893Z" fill="#FA8595"/>
<path d="M155.588 280.893H148.928L145.977 261.145L144.885 253.846H151.469L152.581 261.145L155.588 280.893Z" fill="#FA8595"/>
<path d="M149.72 284.904L139.642 352.369H132.854L143.139 284.904H149.72Z" fill="#F15771"/>
<path d="M192.502 284.904L202.581 352.369H209.368L199.084 284.904H192.502Z" fill="#F15771"/>
<path d="M164.323 284.904L174.402 352.369H181.189L170.905 284.904H164.323Z" fill="#FA8595"/>
<path d="M120.768 253.846L121.882 261.145H115.276L114.186 253.846H120.768Z" fill="#F15771"/>
<path d="M152.581 261.145H145.977L144.885 253.846H151.469L152.581 261.145Z" fill="#F15771"/>
<path d="M145.574 211.634H99.4766L106.93 254.817H153.027L145.574 211.634Z" fill="#F15771"/>
<path d="M150.696 211.634H104.599L112.052 254.817H158.149L150.696 211.634Z" fill="#FA8595"/>
<path d="M203.198 287.578H113.519C110.793 287.578 108.583 285.368 108.583 282.642C108.583 279.916 110.793 277.706 113.519 277.706H203.198C205.924 277.706 208.134 279.916 208.134 282.642C208.134 285.368 205.924 287.578 203.198 287.578Z" fill="#FA8595"/>
<path d="M150.596 135.28C150.596 135.28 144.575 128.238 137.351 133.293C130.126 138.348 137.007 150.367 138.555 156.224C140.103 162.082 134.771 163.518 134.771 163.518C134.771 163.518 149.048 171.08 153.176 160.688C157.304 150.295 150.596 135.28 150.596 135.28Z" fill="#3A070C"/>
<path d="M160.621 117.99L157.483 116.477C157.483 116.477 148.59 117.15 145.921 127.478C142.881 139.238 146.474 155.077 162.714 158.611C182.055 162.82 190.932 144.695 185.642 129.085C185.237 127.891 184.871 128.087 184.871 128.087L160.621 117.99Z" fill="#58110D"/>
<path d="M170.644 182.231C176.188 179.206 177.036 172.149 177.036 172.149L175.856 168.616C175.856 168.616 175.731 168.433 175.532 168.067C174.751 166.604 172.831 162.24 173.504 155.499C174.344 147.096 159.889 152.814 159.889 152.814C159.889 152.814 159.29 156.555 158.559 160.436C158.002 163.387 157.37 166.42 156.863 167.942C155.683 171.476 165.1 185.257 170.644 182.231Z" fill="#F4AC96"/>
<path d="M158.559 160.437C161.078 163.579 166.372 168.283 175.532 168.067C174.751 166.604 172.831 162.24 173.504 155.499C174.344 147.096 159.889 152.814 159.889 152.814C159.889 152.814 159.29 156.556 158.559 160.437Z" fill="#DF776C"/>
<path d="M191.12 143.323C191.339 145.536 189.063 147.571 186.037 147.87C183.011 148.169 180.381 146.617 180.163 144.405C179.945 142.192 182.22 140.157 185.246 139.858C188.271 139.559 190.901 141.11 191.12 143.323Z" fill="#DF776C"/>
<path d="M174.281 163.064C178.861 162.731 184.355 156.481 186.059 147.404C186.342 145.908 186.516 144.445 186.583 143.04C186.583 143.04 186.583 143.032 186.591 143.032C186.707 140.655 186.541 138.444 186.117 136.515C185.286 132.675 183.465 129.982 180.963 129.425C169.143 126.807 161.962 128.27 157.706 131.761C154.714 134.213 153.168 137.662 152.461 141.411C150.758 150.488 162.486 163.928 174.281 163.064Z" fill="#F4AC96"/>
<path d="M155.595 143.04C156.626 137.213 165.162 135.559 173.399 135.393C181.636 135.219 183.648 134.047 183.648 134.047C184.604 134.596 185.435 135.535 186.117 136.516C185.286 132.676 183.465 129.983 180.963 129.426C169.143 126.808 161.962 128.271 157.706 131.762C154.149 138.427 154.905 146.972 155.595 143.04Z" fill="#DF776C"/>
<path d="M152.237 148.172L152.323 148.215C152.323 148.215 152.248 148.366 152.237 148.172Z" fill="#58110D"/>
<path d="M182.053 132.23C182.031 132.241 182.021 132.241 182.021 132.241C181.342 132.424 180.599 132.543 179.78 132.618C166.788 133.738 157.598 134.298 155.799 142.141C154.668 147.118 154.474 148.486 154.485 148.82L149.077 146.181C149.077 146.181 145.221 140.015 147.062 127.479C148.472 117.885 157.48 116.48 157.48 116.48L157.491 116.469C157.814 116.286 164.483 112.612 175.643 114.573C186.341 116.458 192.029 129.644 182.053 132.23Z" fill="#58110D"/>
<path d="M146.624 147.366C146.406 149.579 148.682 151.614 151.708 151.913C154.734 152.212 157.364 150.66 157.582 148.448C157.8 146.236 155.524 144.2 152.498 143.901C149.473 143.602 146.843 145.153 146.624 147.366Z" fill="#F4AC96"/>
<path d="M175.559 146.491C175.559 146.491 176.779 149.079 176.074 152.019" stroke="#BE494F" stroke-miterlimit="10" stroke-linecap="round"/>
<path d="M179.38 139.896C179.38 139.896 182.153 137.694 184.925 140.173" stroke="#58110D" stroke-miterlimit="10" stroke-linecap="round"/>
<path d="M165.132 139.896C165.132 139.896 167.905 137.694 170.677 140.173" stroke="#58110D" stroke-miterlimit="10" stroke-linecap="round"/>
<path d="M169.948 144.136C169.948 144.997 169.604 145.694 169.179 145.694C168.754 145.694 168.41 144.996 168.41 144.136C168.41 143.275 168.754 142.577 169.179 142.577C169.603 142.577 169.948 143.275 169.948 144.136Z" fill="#282D33"/>
<path d="M183.563 144.136C183.563 144.997 183.218 145.694 182.794 145.694C182.37 145.694 182.025 144.996 182.025 144.136C182.025 143.275 182.369 142.577 182.794 142.577C183.219 142.577 183.563 143.275 183.563 144.136Z" fill="#282D33"/>
<path d="M169.604 155.138C171.051 155.901 173.379 156.663 176.423 156.124" stroke="#BE494F" stroke-miterlimit="10" stroke-linecap="round"/>
<path d="M182.053 132.23C182.462 132.036 187.31 129.645 182.15 121.425C176.764 112.861 157.48 116.48 157.48 116.48L157.491 116.469C157.814 116.286 164.483 112.612 175.643 114.573C186.341 116.458 192.029 129.644 182.053 132.23Z" fill="#751A17"/>
<path d="M199.964 265.439L211.687 267.274L220.643 340.22L233.039 339.214L231.178 254.372C231.055 250.769 228.593 247.67 225.111 246.735L207.398 241.98L199.964 265.439Z" fill="#DF776C"/>
<path d="M232.717 336.579L233.075 339.516C233.075 339.516 252.086 342.778 252.727 352.369H229.954L227.415 350.676L226.569 352.369H218.67C218.67 352.369 218.528 345.63 220.855 342.174L220.537 339.356L232.717 336.579Z" fill="#DF776C"/>
<path d="M252.727 352.374H229.953L227.411 350.672L226.56 352.374H218.664C218.664 352.374 218.556 348.129 219.709 344.661C221.056 345.383 225.505 347.257 234.199 346.719C241.568 346.277 244.164 344.51 245.058 343.455C249 345.479 252.458 348.366 252.727 352.374Z" fill="#264066"/>
<path d="M192.525 279.133H195.2L199.275 340.468L211.688 339.515L218.665 265.934C218.771 262.044 216.064 258.641 212.249 257.869L197.162 254.816L192.525 279.133Z" fill="#F4AC96"/>
<path d="M231.343 352.374H208.569L206.027 350.672L205.176 352.374H197.279C197.279 352.374 197.171 348.129 198.324 344.661C198.615 343.799 198.981 342.97 199.444 342.28L199.207 339.393L211.984 336.431L211.682 339.512C211.682 339.512 218.157 340.622 223.672 343.455C227.616 345.479 231.074 348.366 231.343 352.374Z" fill="#F4AC96"/>
<path d="M231.343 352.374H208.569L206.027 350.672L205.176 352.374H197.279C197.279 352.374 197.171 348.129 198.324 344.661C199.671 345.383 204.12 347.257 212.814 346.719C220.183 346.277 222.779 344.51 223.673 343.455C227.616 345.479 231.074 348.366 231.343 352.374Z" fill="#2E4A79"/>
<path d="M185.226 174.458C185.226 174.458 189.238 177.133 192.247 186.493C195.256 195.854 199.268 204.212 200.772 205.048C202.277 205.884 220.59 186.796 220.59 186.796L225.097 194.613C225.097 194.613 216.485 210.229 208.796 218.253C201.107 226.277 198.767 225.608 196.594 224.772C194.421 223.936 184.23 213.651 184.23 213.651L185.226 174.458Z" fill="#F4AC96"/>
<path d="M220.853 187.824C220.313 186.96 220.143 185.919 220.382 184.928C221.05 182.151 222.523 176.346 223.872 173.24C225.688 169.061 226.695 168.887 227.18 168.937C227.665 168.987 228.722 169.77 225.408 177.786C225.408 177.786 227.815 175.467 228.971 178.165C228.971 178.165 231.228 177.661 231.794 180.304C231.794 180.304 234.455 181.946 233.821 185.154C233.187 188.363 231.191 186.59 231.191 186.59C231.191 186.59 232.205 190.278 228.977 192.485C225.75 194.693 225.097 194.612 225.097 194.612L220.853 187.824Z" fill="#F4AC96"/>
<path d="M221.447 185.435C221.447 185.435 225.15 180.37 226.451 179.619C227.752 178.868 228.004 179.997 227.057 182.026C226.11 184.055 226.05 184.815 226.05 184.815C226.05 184.815 227.799 188.355 225.211 190.971" stroke="#BE494F" stroke-width="0.5" stroke-miterlimit="10" stroke-linecap="round"/>
<path d="M229.357 178.825C229.357 178.825 229.472 183.361 228.126 184.789C226.78 186.216 226.283 184.442 226.331 183.779" stroke="#BE494F" stroke-width="0.5" stroke-miterlimit="10" stroke-linecap="round"/>
<path d="M231.749 180.621C231.749 180.621 231.703 184.452 230.438 185.407C229.172 186.362 228.312 185.043 228.425 184.376" stroke="#BE494F" stroke-width="0.5" stroke-miterlimit="10" stroke-linecap="round"/>
<path d="M190.474 196.925C189.64 184.726 186.954 177.614 186.066 175.547C185.989 175.261 185.893 175.038 185.772 174.897C183.335 172.039 175.941 168.75 175.941 168.75C174.953 173.499 170.541 178.122 170.541 178.122C164.153 176.525 156.847 166.733 156.847 166.733C156.847 166.733 143.98 169.801 140.618 173.204C137.256 176.607 136.444 229.673 147.784 233.708C159.124 237.743 185.071 234.386 185.071 234.386C185.071 228.502 183.725 221.389 183.853 214.711C183.857 214.524 183.862 214.336 183.866 214.149C188.691 212.181 191.314 209.2 190.474 196.925Z" fill="#0F43A9"/>
<path d="M170.542 178.122C170.542 178.122 166.844 182.006 160.119 182.796C153.395 183.586 153.955 167.475 155.188 166.733C156.421 165.991 157.391 166.513 157.391 166.513C157.391 166.513 161.884 172.911 170.542 178.122Z" fill="#2D79E9"/>
<path d="M170.542 178.122C170.542 178.122 174.655 180.502 179.003 181.176C183.351 181.85 178.441 169.72 177.644 169.086C176.847 168.452 175.891 168.607 175.891 168.607C175.891 168.607 174.799 172.804 170.542 178.122Z" fill="#2D79E9"/>
<path d="M140.535 218.164C140.535 218.164 139.471 230.816 136.856 237.134C134.241 243.452 128.742 272.296 144.783 276.83C160.823 281.364 195.568 279.69 195.568 279.69C195.568 279.69 198.947 251.877 220.109 246.374C221.316 246.06 221.31 244.341 220.103 244.025L185.355 234.912L180.914 220.524L140.535 218.164Z" fill="#0F43A9"/>
<path d="M172.746 183.072C172.746 183.789 172.164 184.371 171.447 184.371C170.73 184.371 170.148 183.789 170.148 183.072C170.148 182.355 170.729 181.773 171.447 181.773C172.165 181.773 172.746 182.354 172.746 183.072Z" fill="#2D79E9"/>
<path d="M172.746 188.265C172.746 188.982 172.164 189.564 171.447 189.564C170.73 189.564 170.148 188.982 170.148 188.265C170.148 187.548 170.729 186.966 171.447 186.966C172.165 186.965 172.746 187.547 172.746 188.265Z" fill="#2D79E9"/>
<path d="M163.096 234.248V234.259C162.902 234.259 162.654 234.248 162.385 234.248L154.973 233.699C150.061 233.268 144.653 232.708 143.328 232.514C141.044 232.191 126.813 230.456 125.833 227.623C124.863 224.801 126.275 212.207 129.42 198.407C132.576 184.607 137.133 176.032 139.094 173.855C141.044 171.679 145.935 171.463 148.973 178.961C152.022 186.459 147.593 198.578 144.986 203.9C142.379 209.222 139.757 218.97 139.757 218.97L159.252 225.35L159.898 225.555L163.096 234.248Z" fill="#F4AC96"/>
<path d="M183.696 227.727C182.499 227.668 181.979 226.462 180.488 224.823C178.997 223.195 176.662 223.283 176.662 223.283C176.662 223.283 178.496 223.774 180.203 226.02C181.91 228.276 182.989 232.72 181.959 232.7C180.939 232.68 179.634 230.856 179.634 230.856C179.909 231.778 179.86 234.054 178.781 233.946C177.702 233.838 176.956 232.435 176.956 232.435C177.201 233.475 176.593 235.329 175.357 234.319C174.121 233.299 171.963 230.052 171.963 230.052C169.02 232.946 164.89 234.28 164.89 234.28H163.075L156.326 233.78L155.993 225.844L162.34 225.099L162.409 225.089C162.409 225.089 172.533 218.713 177.016 220.047C181.499 221.381 183.069 223.716 183.402 224.54C183.726 225.363 184.903 227.786 183.696 227.727Z" fill="#F4AC96"/>
<path d="M176.568 231.175C176.568 231.175 175.545 228.924 173.376 227.246" stroke="#BE494F" stroke-width="0.5" stroke-miterlimit="10" stroke-linecap="round"/>
<path d="M179.814 229.729C179.814 229.729 178.319 226.419 176.15 224.741" stroke="#BE494F" stroke-width="0.5" stroke-miterlimit="10" stroke-linecap="round"/>
<path d="M385.108 186.715H323.427L317.243 224.859H378.925L385.108 186.715Z" fill="#999999"/>
<path d="M375.202 224.859H313.521V230.062H375.202V224.859Z" fill="#999999"/>
<path d="M381.386 186.715H319.704L313.521 224.859H375.203L381.386 186.715Z" fill="#B7B7B7"/>
<path d="M378.256 189.375L375.223 208.111L372.936 222.199H316.645L317.608 216.278L318.777 209.073L321.965 189.375H378.256Z" fill="#79DEE8"/>
<path d="M343.227 189.375L318.777 209.073L321.965 189.375H343.227Z" fill="#C5F8F9"/>
<path d="M360.245 189.375L317.98 222.199H316.645L317.608 216.278L351.301 189.375H360.245Z" fill="#C5F8F9"/>
<path d="M375.222 208.111L372.935 222.199H352.397L375.222 208.111Z" fill="#C5F8F9"/>
<path d="M351.175 224.859H289.494V230.062H351.175V224.859Z" fill="#A8A8A8"/>
<path d="M162.696 351.917H168.965L168.965 235.492H162.696V351.917Z" fill="#E0DCF5"/>
<path d="M455.311 351.917H461.58V235.492H455.311V351.917Z" fill="#A5A3CB"/>
<path d="M139.417 238.685L373.409 238.685V230.063L139.417 230.063V238.685Z" fill="#E0DCF5"/>
<path d="M373.41 238.685H469.458V230.063H373.41V238.685Z" fill="#A5A3CB"/>
<path d="M384.249 351.917H390.518V235.492H384.249V351.917Z" fill="#A5A3CB"/>
<path d="M272.166 150.254C272.166 150.254 273.097 153.299 270.836 159.949C269.533 163.819 266.694 164.983 264.533 165.275C262.957 165.494 261.754 165.255 261.754 165.255L262.997 170.721L263.835 174.378L241.261 170.967L241.833 163.693C238.382 148.1 247.977 138.924 256.189 135.148C260.105 133.346 263.709 132.774 265.431 133.319C266.375 133.618 267.16 134.13 267.811 134.788C270.856 137.8 271.056 143.678 271.056 143.678C271.056 143.678 274.161 144.788 274.387 146.936C274.62 149.083 272.166 150.254 272.166 150.254Z" fill="#FFCAC6"/>
<path d="M268.835 156.48C268.835 156.48 266.507 156.775 263.898 155.998" stroke="#DD4B47" stroke-width="0.75" stroke-miterlimit="10" stroke-linecap="round"/>
<path d="M267.498 138.822C267.498 138.822 265.267 137.704 263.746 140.008" stroke="#2C1106" stroke-miterlimit="10" stroke-linecap="round"/>
<path d="M266.879 142.027C267.028 142.583 266.93 143.092 266.661 143.164C266.392 143.236 266.053 142.844 265.905 142.287C265.756 141.731 265.854 141.222 266.123 141.15C266.392 141.079 266.73 141.471 266.879 142.027Z" fill="#011E3C"/>
<path d="M261.754 165.254L262.999 170.719C257.714 169.13 252.848 163.958 252.848 163.958C257.772 164.853 261.754 165.254 261.754 165.254Z" fill="#F9A0A0"/>
<path d="M267.811 134.787C263.755 138.471 255.284 140.007 255.284 140.007L256.188 135.146C260.104 133.344 263.708 132.772 265.43 133.317C266.375 133.617 267.159 134.129 267.811 134.787Z" fill="#F9A0A0"/>
<path d="M270.723 124.282C270.723 124.295 270.73 124.315 270.723 124.329C270.723 124.808 270.71 125.286 270.676 125.759C270.683 125.766 270.683 125.766 270.676 125.766C270.663 125.932 270.649 126.099 270.629 126.258C270.629 126.258 270.629 126.258 270.629 126.265C270.323 129.37 269.199 132.169 266.646 133.878C257.969 139.656 256.619 139.536 256.619 139.536L256.686 145.321C256.686 145.321 252.769 143.752 251.041 145.786C249.319 147.827 249.924 153.812 255.709 153.845C255.709 153.845 253.927 163.194 241.832 163.686C241.832 163.686 234.285 162.117 227.131 147.94C219.976 133.764 224.903 129.409 229.611 129.488C229.611 129.488 228.015 125.711 231.539 123.185C232.656 122.394 234.285 121.722 236.646 121.336C246.447 119.747 259.267 111.941 258.156 108.722C258.156 108.722 264.486 109.859 265.204 113.35L267.445 109.693C267.445 109.693 270.71 117.313 270.723 124.282Z" fill="#011E3C"/>
<path d="M270.723 124.282C270.324 120.219 266.659 114.814 266.659 114.814L263.745 118.105C263.745 118.105 262.324 113.331 260.442 112.253C258.56 111.176 255.397 118.306 245.78 121.535C240.054 123.458 231.544 123.191 231.544 123.191L231.537 123.184C232.654 122.393 234.283 121.721 236.644 121.335C246.445 119.746 259.265 111.94 258.154 108.721C258.154 108.721 264.484 109.858 265.202 113.349L267.443 109.692C267.445 109.693 270.71 117.313 270.723 124.282Z" fill="#083A66"/>
<path d="M286.443 332.398L286.981 339.122H304.598L303.522 331.591L286.443 332.398Z" fill="#EFACA5"/>
<path d="M322.576 351.986H283.218C283.205 350.962 283.259 349.938 283.365 348.941C283.937 343.395 285.998 338.628 285.998 338.628L304.595 338.854C304.595 338.854 312.715 340.244 317.915 343.469C320.515 345.085 321.678 347.219 322.197 348.941C322.709 350.663 322.576 351.986 322.576 351.986Z" fill="#021428"/>
<path d="M322.576 351.986H283.218C283.205 350.962 283.259 349.938 283.365 348.941H322.197C322.709 350.663 322.576 351.986 322.576 351.986Z" fill="#0D3A82"/>
<path d="M307.959 266.324V335.669C296.482 338.542 283.217 337.464 283.217 337.464V275.253C289.754 273.272 300.259 269.881 307.959 266.324Z" fill="#2F5ED2"/>
<path d="M227.482 234.374C227.482 234.374 226.674 269.865 239.725 274.707C252.776 279.548 268.106 275.245 268.106 275.245L263.389 240.011L227.482 234.374Z" fill="#2F5ED2"/>
<path d="M317.756 332.398L318.294 339.122H335.911L334.835 331.591L317.756 332.398Z" fill="#EFACA5"/>
<path d="M353.888 351.986H314.531C314.518 350.962 314.571 349.938 314.677 348.941C315.249 343.395 317.31 338.628 317.31 338.628L335.908 338.854C335.908 338.854 344.027 340.244 349.227 343.469C351.827 345.085 352.99 347.219 353.509 348.941C354.021 350.663 353.888 351.986 353.888 351.986Z" fill="#021C3D"/>
<path d="M353.888 351.986H314.531C314.518 350.962 314.571 349.938 314.677 348.941H353.509C354.021 350.663 353.888 351.986 353.888 351.986Z" fill="#0F43A9"/>
<path d="M239.909 240.997C239.909 240.997 243.653 269.918 254.21 275.782C271.154 285.196 313.74 270.761 313.74 270.761V337.463C313.74 337.463 327.009 338.539 338.484 335.67V252.273C338.484 243.976 330.966 237.707 322.804 239.198L282.54 246.554L247.124 238.978" fill="#377EE8"/>
<path d="M281.914 248.071C281.914 248.071 237.55 259.874 223.526 248.078C223.526 248.078 226.272 206.034 226.173 187.855C226.146 183.932 228.932 167.595 242.198 168.087C255.51 168.586 276.522 175.907 279.408 186.938C280.013 189.225 280.465 193.182 280.811 198.029C281.203 203.348 281.456 209.745 281.622 216.155C281.682 218.522 281.735 220.889 281.775 223.21C282 236.475 281.914 248.071 281.914 248.071Z" fill="#C6C6C6"/>
<path d="M281.774 223.21C277.199 221.933 272.552 219.806 268.835 216.308C257.458 205.609 259.745 185.542 259.745 185.542L274.4 189.199L280.81 198.029C281.202 203.348 281.455 209.745 281.621 216.155C281.681 218.522 281.734 220.889 281.774 223.21Z" fill="#9B9B9B"/>
<path d="M333.266 176.352C333.266 176.352 318.531 210.676 314.814 212.059C313.338 212.611 309.355 212.771 305.079 212.771C298.583 212.764 291.421 212.372 291.421 212.372L296.029 190.729L300.723 191.374L308.722 192.478L323.882 171.067L333.266 176.352Z" fill="#FFCAC6"/>
<path d="M323.885 171.065C323.885 171.065 321.809 167.66 322.526 162.281C323.243 156.902 326 156.162 326 156.162C326 156.162 327.816 147.757 330.953 144.171C334.091 140.585 333.037 146.771 332.589 147.757C332.141 148.743 330.841 153.204 330.841 153.204C330.841 153.204 332.193 151.939 333.8 152.868C335.313 153.742 334.809 155.558 334.809 155.558C334.809 155.558 335.347 154.393 337.05 155.468C338.753 156.544 338.034 158.165 338.034 158.165C338.034 158.165 339.739 157.261 340.905 158.875C342.071 160.489 342.698 164.613 341.533 165.868C340.368 167.123 339.112 166.316 339.112 166.316C339.112 166.316 339.254 175.356 333.266 176.35C327.278 177.343 323.885 171.065 323.885 171.065Z" fill="#FFCAC6"/>
<path d="M330.841 153.204C330.841 153.204 329.025 155.423 328.891 157.575" stroke="#DD4B47" stroke-width="0.75" stroke-miterlimit="10" stroke-linecap="round"/>
<path d="M334.808 155.557C334.808 155.557 332.69 156.868 332.264 159.76" stroke="#DD4B47" stroke-width="0.75" stroke-miterlimit="10" stroke-linecap="round"/>
<path d="M338.034 158.164C338.034 158.164 335.884 160.6 335.884 162.752" stroke="#DD4B47" stroke-width="0.75" stroke-miterlimit="10" stroke-linecap="round"/>
<path d="M339.112 166.316C339.112 166.316 338.372 164.534 338.641 162.752" stroke="#DD4B47" stroke-width="0.75" stroke-miterlimit="10" stroke-linecap="round"/>
<path d="M338.654 164.534C338.654 164.534 338.932 163.671 340.053 163.492" stroke="#DD4B47" stroke-width="0.75" stroke-miterlimit="10" stroke-linecap="round"/>
<path d="M305.08 212.771C298.584 212.764 291.422 212.372 291.422 212.372L296.03 190.729L300.724 191.374C302.414 195.29 305.559 203.894 305.08 212.771Z" fill="#F9A0A0"/>
<path d="M296.474 188.136L276.838 179.254C276.838 179.254 267.504 175.112 263.155 178.154C258.806 181.196 257.397 194.541 266.354 204.12C275.311 213.699 296.077 216.309 296.077 216.309C296.077 216.309 301.734 200.72 296.474 188.136Z" fill="#B2B2B2"/>
<path d="M226.885 280.893H220.219L217.267 261.145L216.176 253.846H222.759L223.872 261.145L226.885 280.893Z" fill="#FA8595"/>
<path d="M222.759 253.846L223.872 261.145H217.267L216.176 253.846H222.759Z" fill="#F15771"/>
<path d="M257.578 280.893H250.92L247.968 261.145L246.877 253.846H253.459L254.573 261.145L257.578 280.893Z" fill="#FA8595"/>
<path d="M254.573 261.145H247.968L246.877 253.846H253.459L254.573 261.145Z" fill="#F15771"/>
<path d="M252.104 211.634H206.007L213.46 254.817H259.557L252.104 211.634Z" fill="#F15771"/>
<path d="M245.392 211.634H199.296L206.748 254.817H252.845L245.392 211.634Z" fill="#FA8595"/>
<path d="M231.965 284.904L221.887 352.369H215.099L225.384 284.904H231.965Z" fill="#FA8595"/>
<path d="M251.711 284.904L241.633 352.369H234.845L245.129 284.904H251.711Z" fill="#F15771"/>
<path d="M294.494 284.904L304.572 352.369H311.36L301.076 284.904H294.494Z" fill="#F15771"/>
<path d="M266.315 284.904L276.393 352.369H283.181L272.897 284.904H266.315Z" fill="#FA8595"/>
<path d="M305.189 287.578H215.51C212.784 287.578 210.574 285.368 210.574 282.642C210.574 279.916 212.784 277.706 215.51 277.706H305.189C307.915 277.706 310.125 279.916 310.125 282.642C310.126 285.368 307.916 287.578 305.189 287.578Z" fill="#FA8595"/>
<path d="M250.646 90.8604C250.646 95.0474 248.945 98.8474 246.205 101.598C243.454 104.338 239.665 106.039 235.478 106.039H215.531L198.249 113.264L204.049 105.001C198.404 102.792 194.405 97.2904 194.405 90.8614C194.405 86.6744 196.106 82.8854 198.846 80.1344C201.597 77.3944 205.386 75.6934 209.584 75.6934H235.478C243.852 75.6924 250.646 82.4864 250.646 90.8604Z" fill="#FA8595"/>
<path d="M214.569 87.7046H207.795V94.4786H214.569V87.7046Z" fill="white"/>
<path d="M226.913 87.7046H220.139V94.4786H226.913V87.7046Z" fill="white"/>
<path d="M239.609 87.7046H232.835V94.4786H239.609V87.7046Z" fill="white"/>
<path d="M347.041 90.8604C347.041 95.0474 345.34 98.8474 342.6 101.598C339.849 104.338 336.06 106.039 331.873 106.039H311.926L294.644 113.264L300.444 105.001C294.799 102.792 290.8 97.2904 290.8 90.8614C290.8 86.6744 292.501 82.8854 295.241 80.1344C297.992 77.3944 301.781 75.6934 305.979 75.6934H331.874C340.247 75.6924 347.041 82.4864 347.041 90.8604Z" fill="#FA8595"/>
<path d="M310.639 87.7046H303.865V94.4786H310.639V87.7046Z" fill="white"/>
<path d="M322.983 87.7046H316.209V94.4786H322.983V87.7046Z" fill="white"/>
<path d="M335.68 87.7046H328.906V94.4786H335.68V87.7046Z" fill="white"/>
</svg>
